G04 #@! TF.GenerationSoftware,KiCad,Pcbnew,(5.0.0-rc2-117-g8a2639325)*
G04 #@! TF.CreationDate,2018-07-20T00:32:21+10:00*
G04 #@! TF.ProjectId,AR0004-R1,4152303030342D52312E6B696361645F,rev?*
G04 #@! TF.SameCoordinates,Original*
G04 #@! TF.FileFunction,Legend,Top*
G04 #@! TF.FilePolarity,Positive*
%FSLAX46Y46*%
G04 Gerber Fmt 4.6, Leading zero omitted, Abs format (unit mm)*
G04 Created by KiCad (PCBNEW (5.0.0-rc2-117-g8a2639325)) date 07/20/18 00:32:21*
%MOMM*%
%LPD*%
G01*
G04 APERTURE LIST*
%ADD10C,0.120000*%
%ADD11C,0.150000*%
G04 APERTURE END LIST*
D10*
G04 #@! TO.C,C5*
X134020000Y-83500000D02*
X134020000Y-81500000D01*
X136980000Y-81500000D02*
X136980000Y-83500000D01*
G04 #@! TO.C,C6*
X120500000Y-88980000D02*
X118500000Y-88980000D01*
X118500000Y-86020000D02*
X120500000Y-86020000D01*
G04 #@! TO.C,C7*
X55270000Y-68500000D02*
X55270000Y-66500000D01*
X58230000Y-66500000D02*
X58230000Y-68500000D01*
G04 #@! TO.C,C8*
X144730000Y-66500000D02*
X144730000Y-68500000D01*
X141770000Y-68500000D02*
X141770000Y-66500000D01*
G04 #@! TO.C,C9*
X101070000Y-61000000D02*
X101070000Y-63000000D01*
X98930000Y-63000000D02*
X98930000Y-61000000D01*
G04 #@! TO.C,C14*
X98930000Y-73950000D02*
X98930000Y-71950000D01*
X101070000Y-71950000D02*
X101070000Y-73950000D01*
G04 #@! TO.C,D1*
X63400000Y-63700000D02*
X63400000Y-60300000D01*
X66600000Y-63700000D02*
X66600000Y-60300000D01*
G04 #@! TO.C,D2*
X74100000Y-63700000D02*
X74100000Y-60300000D01*
X70900000Y-63700000D02*
X70900000Y-60300000D01*
G04 #@! TO.C,D3*
X78400000Y-63700000D02*
X78400000Y-60300000D01*
X81600000Y-63700000D02*
X81600000Y-60300000D01*
G04 #@! TO.C,D4*
X89100000Y-63700000D02*
X89100000Y-60300000D01*
X85900000Y-63700000D02*
X85900000Y-60300000D01*
G04 #@! TO.C,D5*
X96600000Y-63700000D02*
X96600000Y-60300000D01*
X93400000Y-63700000D02*
X93400000Y-60300000D01*
G04 #@! TO.C,D6*
X103400000Y-63700000D02*
X103400000Y-60300000D01*
X106600000Y-63700000D02*
X106600000Y-60300000D01*
G04 #@! TO.C,D7*
X114100000Y-63700000D02*
X114100000Y-60300000D01*
X110900000Y-63700000D02*
X110900000Y-60300000D01*
G04 #@! TO.C,D8*
X118400000Y-63700000D02*
X118400000Y-60300000D01*
X121600000Y-63700000D02*
X121600000Y-60300000D01*
G04 #@! TO.C,D9*
X129100000Y-63700000D02*
X129100000Y-60300000D01*
X125900000Y-63700000D02*
X125900000Y-60300000D01*
G04 #@! TO.C,D10*
X133400000Y-63700000D02*
X133400000Y-60300000D01*
X136600000Y-63700000D02*
X136600000Y-60300000D01*
G04 #@! TO.C,D11*
X126650000Y-86450000D02*
X122350000Y-86450000D01*
X122350000Y-86450000D02*
X122350000Y-92150000D01*
X126650000Y-86450000D02*
X126650000Y-92150000D01*
G04 #@! TO.C,D12*
X66600000Y-73700000D02*
X66600000Y-70300000D01*
X63400000Y-73700000D02*
X63400000Y-70300000D01*
G04 #@! TO.C,D13*
X74100000Y-73700000D02*
X74100000Y-70300000D01*
X70900000Y-73700000D02*
X70900000Y-70300000D01*
G04 #@! TO.C,D14*
X81360000Y-73700000D02*
X81360000Y-70300000D01*
X78160000Y-73700000D02*
X78160000Y-70300000D01*
G04 #@! TO.C,D15*
X85900000Y-73700000D02*
X85900000Y-70300000D01*
X89100000Y-73700000D02*
X89100000Y-70300000D01*
G04 #@! TO.C,D16*
X93400000Y-73700000D02*
X93400000Y-70300000D01*
X96600000Y-73700000D02*
X96600000Y-70300000D01*
G04 #@! TO.C,D17*
X106600000Y-73700000D02*
X106600000Y-70300000D01*
X103400000Y-73700000D02*
X103400000Y-70300000D01*
G04 #@! TO.C,D18*
X110900000Y-73700000D02*
X110900000Y-70300000D01*
X114100000Y-73700000D02*
X114100000Y-70300000D01*
G04 #@! TO.C,D19*
X121600000Y-73700000D02*
X121600000Y-70300000D01*
X118400000Y-73700000D02*
X118400000Y-70300000D01*
G04 #@! TO.C,D20*
X125900000Y-73700000D02*
X125900000Y-70300000D01*
X129100000Y-73700000D02*
X129100000Y-70300000D01*
G04 #@! TO.C,D21*
X133400000Y-73700000D02*
X133400000Y-70300000D01*
X136600000Y-73700000D02*
X136600000Y-70300000D01*
D11*
G04 #@! TO.C,J1*
X145400000Y-72200000D02*
X145400000Y-69800000D01*
X149600000Y-72200000D02*
X145400000Y-72200000D01*
X149600000Y-69800000D02*
X149600000Y-72200000D01*
X145400000Y-69800000D02*
X149600000Y-69800000D01*
G04 #@! TO.C,J2*
X50400000Y-72200000D02*
X50400000Y-69800000D01*
X54600000Y-72200000D02*
X50400000Y-72200000D01*
X54600000Y-69800000D02*
X54600000Y-72200000D01*
X50400000Y-69800000D02*
X54600000Y-69800000D01*
G04 #@! TO.C,J4*
X145400000Y-62800000D02*
X149600000Y-62800000D01*
X149600000Y-62800000D02*
X149600000Y-65200000D01*
X149600000Y-65200000D02*
X145400000Y-65200000D01*
X145400000Y-65200000D02*
X145400000Y-62800000D01*
G04 #@! TO.C,J5*
X50400000Y-62800000D02*
X54600000Y-62800000D01*
X54600000Y-62800000D02*
X54600000Y-65200000D01*
X54600000Y-65200000D02*
X50400000Y-65200000D01*
X50400000Y-65200000D02*
X50400000Y-62800000D01*
D10*
G04 #@! TO.C,R2*
X114500000Y-80570000D02*
X112500000Y-80570000D01*
X112500000Y-78430000D02*
X114500000Y-78430000D01*
G04 #@! TO.C,R3*
X112500000Y-80930000D02*
X114500000Y-80930000D01*
X114500000Y-83070000D02*
X112500000Y-83070000D01*
G04 #@! TO.C,R4*
X112500000Y-83430000D02*
X114500000Y-83430000D01*
X114500000Y-85570000D02*
X112500000Y-85570000D01*
G04 #@! TO.C,C5*
D11*
X133607142Y-82666666D02*
X133654761Y-82714285D01*
X133702380Y-82857142D01*
X133702380Y-82952380D01*
X133654761Y-83095238D01*
X133559523Y-83190476D01*
X133464285Y-83238095D01*
X133273809Y-83285714D01*
X133130952Y-83285714D01*
X132940476Y-83238095D01*
X132845238Y-83190476D01*
X132750000Y-83095238D01*
X132702380Y-82952380D01*
X132702380Y-82857142D01*
X132750000Y-82714285D01*
X132797619Y-82666666D01*
X132702380Y-81761904D02*
X132702380Y-82238095D01*
X133178571Y-82285714D01*
X133130952Y-82238095D01*
X133083333Y-82142857D01*
X133083333Y-81904761D01*
X133130952Y-81809523D01*
X133178571Y-81761904D01*
X133273809Y-81714285D01*
X133511904Y-81714285D01*
X133607142Y-81761904D01*
X133654761Y-81809523D01*
X133702380Y-81904761D01*
X133702380Y-82142857D01*
X133654761Y-82238095D01*
X133607142Y-82285714D01*
G04 #@! TO.C,C6*
X119333333Y-85607142D02*
X119285714Y-85654761D01*
X119142857Y-85702380D01*
X119047619Y-85702380D01*
X118904761Y-85654761D01*
X118809523Y-85559523D01*
X118761904Y-85464285D01*
X118714285Y-85273809D01*
X118714285Y-85130952D01*
X118761904Y-84940476D01*
X118809523Y-84845238D01*
X118904761Y-84750000D01*
X119047619Y-84702380D01*
X119142857Y-84702380D01*
X119285714Y-84750000D01*
X119333333Y-84797619D01*
X120190476Y-84702380D02*
X120000000Y-84702380D01*
X119904761Y-84750000D01*
X119857142Y-84797619D01*
X119761904Y-84940476D01*
X119714285Y-85130952D01*
X119714285Y-85511904D01*
X119761904Y-85607142D01*
X119809523Y-85654761D01*
X119904761Y-85702380D01*
X120095238Y-85702380D01*
X120190476Y-85654761D01*
X120238095Y-85607142D01*
X120285714Y-85511904D01*
X120285714Y-85273809D01*
X120238095Y-85178571D01*
X120190476Y-85130952D01*
X120095238Y-85083333D01*
X119904761Y-85083333D01*
X119809523Y-85130952D01*
X119761904Y-85178571D01*
X119714285Y-85273809D01*
G04 #@! TO.C,C7*
X54857142Y-67666666D02*
X54904761Y-67714285D01*
X54952380Y-67857142D01*
X54952380Y-67952380D01*
X54904761Y-68095238D01*
X54809523Y-68190476D01*
X54714285Y-68238095D01*
X54523809Y-68285714D01*
X54380952Y-68285714D01*
X54190476Y-68238095D01*
X54095238Y-68190476D01*
X54000000Y-68095238D01*
X53952380Y-67952380D01*
X53952380Y-67857142D01*
X54000000Y-67714285D01*
X54047619Y-67666666D01*
X53952380Y-67333333D02*
X53952380Y-66666666D01*
X54952380Y-67095238D01*
G04 #@! TO.C,C8*
X141357142Y-67666666D02*
X141404761Y-67714285D01*
X141452380Y-67857142D01*
X141452380Y-67952380D01*
X141404761Y-68095238D01*
X141309523Y-68190476D01*
X141214285Y-68238095D01*
X141023809Y-68285714D01*
X140880952Y-68285714D01*
X140690476Y-68238095D01*
X140595238Y-68190476D01*
X140500000Y-68095238D01*
X140452380Y-67952380D01*
X140452380Y-67857142D01*
X140500000Y-67714285D01*
X140547619Y-67666666D01*
X140880952Y-67095238D02*
X140833333Y-67190476D01*
X140785714Y-67238095D01*
X140690476Y-67285714D01*
X140642857Y-67285714D01*
X140547619Y-67238095D01*
X140500000Y-67190476D01*
X140452380Y-67095238D01*
X140452380Y-66904761D01*
X140500000Y-66809523D01*
X140547619Y-66761904D01*
X140642857Y-66714285D01*
X140690476Y-66714285D01*
X140785714Y-66761904D01*
X140833333Y-66809523D01*
X140880952Y-66904761D01*
X140880952Y-67095238D01*
X140928571Y-67190476D01*
X140976190Y-67238095D01*
X141071428Y-67285714D01*
X141261904Y-67285714D01*
X141357142Y-67238095D01*
X141404761Y-67190476D01*
X141452380Y-67095238D01*
X141452380Y-66904761D01*
X141404761Y-66809523D01*
X141357142Y-66761904D01*
X141261904Y-66714285D01*
X141071428Y-66714285D01*
X140976190Y-66761904D01*
X140928571Y-66809523D01*
X140880952Y-66904761D01*
G04 #@! TO.C,C9*
X98507142Y-62166666D02*
X98554761Y-62214285D01*
X98602380Y-62357142D01*
X98602380Y-62452380D01*
X98554761Y-62595238D01*
X98459523Y-62690476D01*
X98364285Y-62738095D01*
X98173809Y-62785714D01*
X98030952Y-62785714D01*
X97840476Y-62738095D01*
X97745238Y-62690476D01*
X97650000Y-62595238D01*
X97602380Y-62452380D01*
X97602380Y-62357142D01*
X97650000Y-62214285D01*
X97697619Y-62166666D01*
X98602380Y-61690476D02*
X98602380Y-61500000D01*
X98554761Y-61404761D01*
X98507142Y-61357142D01*
X98364285Y-61261904D01*
X98173809Y-61214285D01*
X97792857Y-61214285D01*
X97697619Y-61261904D01*
X97650000Y-61309523D01*
X97602380Y-61404761D01*
X97602380Y-61595238D01*
X97650000Y-61690476D01*
X97697619Y-61738095D01*
X97792857Y-61785714D01*
X98030952Y-61785714D01*
X98126190Y-61738095D01*
X98173809Y-61690476D01*
X98221428Y-61595238D01*
X98221428Y-61404761D01*
X98173809Y-61309523D01*
X98126190Y-61261904D01*
X98030952Y-61214285D01*
G04 #@! TO.C,C14*
X98507142Y-73592857D02*
X98554761Y-73640476D01*
X98602380Y-73783333D01*
X98602380Y-73878571D01*
X98554761Y-74021428D01*
X98459523Y-74116666D01*
X98364285Y-74164285D01*
X98173809Y-74211904D01*
X98030952Y-74211904D01*
X97840476Y-74164285D01*
X97745238Y-74116666D01*
X97650000Y-74021428D01*
X97602380Y-73878571D01*
X97602380Y-73783333D01*
X97650000Y-73640476D01*
X97697619Y-73592857D01*
X98602380Y-72640476D02*
X98602380Y-73211904D01*
X98602380Y-72926190D02*
X97602380Y-72926190D01*
X97745238Y-73021428D01*
X97840476Y-73116666D01*
X97888095Y-73211904D01*
X97935714Y-71783333D02*
X98602380Y-71783333D01*
X97554761Y-72021428D02*
X98269047Y-72259523D01*
X98269047Y-71640476D01*
G04 #@! TO.C,D1*
X62852380Y-63058095D02*
X61852380Y-63058095D01*
X61852380Y-62820000D01*
X61900000Y-62677142D01*
X61995238Y-62581904D01*
X62090476Y-62534285D01*
X62280952Y-62486666D01*
X62423809Y-62486666D01*
X62614285Y-62534285D01*
X62709523Y-62581904D01*
X62804761Y-62677142D01*
X62852380Y-62820000D01*
X62852380Y-63058095D01*
X62852380Y-61534285D02*
X62852380Y-62105714D01*
X62852380Y-61820000D02*
X61852380Y-61820000D01*
X61995238Y-61915238D01*
X62090476Y-62010476D01*
X62138095Y-62105714D01*
G04 #@! TO.C,D2*
X70352380Y-63058095D02*
X69352380Y-63058095D01*
X69352380Y-62820000D01*
X69400000Y-62677142D01*
X69495238Y-62581904D01*
X69590476Y-62534285D01*
X69780952Y-62486666D01*
X69923809Y-62486666D01*
X70114285Y-62534285D01*
X70209523Y-62581904D01*
X70304761Y-62677142D01*
X70352380Y-62820000D01*
X70352380Y-63058095D01*
X69447619Y-62105714D02*
X69400000Y-62058095D01*
X69352380Y-61962857D01*
X69352380Y-61724761D01*
X69400000Y-61629523D01*
X69447619Y-61581904D01*
X69542857Y-61534285D01*
X69638095Y-61534285D01*
X69780952Y-61581904D01*
X70352380Y-62153333D01*
X70352380Y-61534285D01*
G04 #@! TO.C,D3*
X77852380Y-63058095D02*
X76852380Y-63058095D01*
X76852380Y-62820000D01*
X76900000Y-62677142D01*
X76995238Y-62581904D01*
X77090476Y-62534285D01*
X77280952Y-62486666D01*
X77423809Y-62486666D01*
X77614285Y-62534285D01*
X77709523Y-62581904D01*
X77804761Y-62677142D01*
X77852380Y-62820000D01*
X77852380Y-63058095D01*
X76852380Y-62153333D02*
X76852380Y-61534285D01*
X77233333Y-61867619D01*
X77233333Y-61724761D01*
X77280952Y-61629523D01*
X77328571Y-61581904D01*
X77423809Y-61534285D01*
X77661904Y-61534285D01*
X77757142Y-61581904D01*
X77804761Y-61629523D01*
X77852380Y-61724761D01*
X77852380Y-62010476D01*
X77804761Y-62105714D01*
X77757142Y-62153333D01*
G04 #@! TO.C,D4*
X85352380Y-63058095D02*
X84352380Y-63058095D01*
X84352380Y-62820000D01*
X84400000Y-62677142D01*
X84495238Y-62581904D01*
X84590476Y-62534285D01*
X84780952Y-62486666D01*
X84923809Y-62486666D01*
X85114285Y-62534285D01*
X85209523Y-62581904D01*
X85304761Y-62677142D01*
X85352380Y-62820000D01*
X85352380Y-63058095D01*
X84685714Y-61629523D02*
X85352380Y-61629523D01*
X84304761Y-61867619D02*
X85019047Y-62105714D01*
X85019047Y-61486666D01*
G04 #@! TO.C,D5*
X92852380Y-63058095D02*
X91852380Y-63058095D01*
X91852380Y-62820000D01*
X91900000Y-62677142D01*
X91995238Y-62581904D01*
X92090476Y-62534285D01*
X92280952Y-62486666D01*
X92423809Y-62486666D01*
X92614285Y-62534285D01*
X92709523Y-62581904D01*
X92804761Y-62677142D01*
X92852380Y-62820000D01*
X92852380Y-63058095D01*
X91852380Y-61581904D02*
X91852380Y-62058095D01*
X92328571Y-62105714D01*
X92280952Y-62058095D01*
X92233333Y-61962857D01*
X92233333Y-61724761D01*
X92280952Y-61629523D01*
X92328571Y-61581904D01*
X92423809Y-61534285D01*
X92661904Y-61534285D01*
X92757142Y-61581904D01*
X92804761Y-61629523D01*
X92852380Y-61724761D01*
X92852380Y-61962857D01*
X92804761Y-62058095D01*
X92757142Y-62105714D01*
G04 #@! TO.C,D6*
X102852380Y-63058095D02*
X101852380Y-63058095D01*
X101852380Y-62820000D01*
X101900000Y-62677142D01*
X101995238Y-62581904D01*
X102090476Y-62534285D01*
X102280952Y-62486666D01*
X102423809Y-62486666D01*
X102614285Y-62534285D01*
X102709523Y-62581904D01*
X102804761Y-62677142D01*
X102852380Y-62820000D01*
X102852380Y-63058095D01*
X101852380Y-61629523D02*
X101852380Y-61820000D01*
X101900000Y-61915238D01*
X101947619Y-61962857D01*
X102090476Y-62058095D01*
X102280952Y-62105714D01*
X102661904Y-62105714D01*
X102757142Y-62058095D01*
X102804761Y-62010476D01*
X102852380Y-61915238D01*
X102852380Y-61724761D01*
X102804761Y-61629523D01*
X102757142Y-61581904D01*
X102661904Y-61534285D01*
X102423809Y-61534285D01*
X102328571Y-61581904D01*
X102280952Y-61629523D01*
X102233333Y-61724761D01*
X102233333Y-61915238D01*
X102280952Y-62010476D01*
X102328571Y-62058095D01*
X102423809Y-62105714D01*
G04 #@! TO.C,D7*
X110352380Y-63058095D02*
X109352380Y-63058095D01*
X109352380Y-62820000D01*
X109400000Y-62677142D01*
X109495238Y-62581904D01*
X109590476Y-62534285D01*
X109780952Y-62486666D01*
X109923809Y-62486666D01*
X110114285Y-62534285D01*
X110209523Y-62581904D01*
X110304761Y-62677142D01*
X110352380Y-62820000D01*
X110352380Y-63058095D01*
X109352380Y-62153333D02*
X109352380Y-61486666D01*
X110352380Y-61915238D01*
G04 #@! TO.C,D8*
X117852380Y-63058095D02*
X116852380Y-63058095D01*
X116852380Y-62820000D01*
X116900000Y-62677142D01*
X116995238Y-62581904D01*
X117090476Y-62534285D01*
X117280952Y-62486666D01*
X117423809Y-62486666D01*
X117614285Y-62534285D01*
X117709523Y-62581904D01*
X117804761Y-62677142D01*
X117852380Y-62820000D01*
X117852380Y-63058095D01*
X117280952Y-61915238D02*
X117233333Y-62010476D01*
X117185714Y-62058095D01*
X117090476Y-62105714D01*
X117042857Y-62105714D01*
X116947619Y-62058095D01*
X116900000Y-62010476D01*
X116852380Y-61915238D01*
X116852380Y-61724761D01*
X116900000Y-61629523D01*
X116947619Y-61581904D01*
X117042857Y-61534285D01*
X117090476Y-61534285D01*
X117185714Y-61581904D01*
X117233333Y-61629523D01*
X117280952Y-61724761D01*
X117280952Y-61915238D01*
X117328571Y-62010476D01*
X117376190Y-62058095D01*
X117471428Y-62105714D01*
X117661904Y-62105714D01*
X117757142Y-62058095D01*
X117804761Y-62010476D01*
X117852380Y-61915238D01*
X117852380Y-61724761D01*
X117804761Y-61629523D01*
X117757142Y-61581904D01*
X117661904Y-61534285D01*
X117471428Y-61534285D01*
X117376190Y-61581904D01*
X117328571Y-61629523D01*
X117280952Y-61724761D01*
G04 #@! TO.C,D9*
X125352380Y-63058095D02*
X124352380Y-63058095D01*
X124352380Y-62820000D01*
X124400000Y-62677142D01*
X124495238Y-62581904D01*
X124590476Y-62534285D01*
X124780952Y-62486666D01*
X124923809Y-62486666D01*
X125114285Y-62534285D01*
X125209523Y-62581904D01*
X125304761Y-62677142D01*
X125352380Y-62820000D01*
X125352380Y-63058095D01*
X125352380Y-62010476D02*
X125352380Y-61820000D01*
X125304761Y-61724761D01*
X125257142Y-61677142D01*
X125114285Y-61581904D01*
X124923809Y-61534285D01*
X124542857Y-61534285D01*
X124447619Y-61581904D01*
X124400000Y-61629523D01*
X124352380Y-61724761D01*
X124352380Y-61915238D01*
X124400000Y-62010476D01*
X124447619Y-62058095D01*
X124542857Y-62105714D01*
X124780952Y-62105714D01*
X124876190Y-62058095D01*
X124923809Y-62010476D01*
X124971428Y-61915238D01*
X124971428Y-61724761D01*
X124923809Y-61629523D01*
X124876190Y-61581904D01*
X124780952Y-61534285D01*
G04 #@! TO.C,D10*
X132852380Y-63534285D02*
X131852380Y-63534285D01*
X131852380Y-63296190D01*
X131900000Y-63153333D01*
X131995238Y-63058095D01*
X132090476Y-63010476D01*
X132280952Y-62962857D01*
X132423809Y-62962857D01*
X132614285Y-63010476D01*
X132709523Y-63058095D01*
X132804761Y-63153333D01*
X132852380Y-63296190D01*
X132852380Y-63534285D01*
X132852380Y-62010476D02*
X132852380Y-62581904D01*
X132852380Y-62296190D02*
X131852380Y-62296190D01*
X131995238Y-62391428D01*
X132090476Y-62486666D01*
X132138095Y-62581904D01*
X131852380Y-61391428D02*
X131852380Y-61296190D01*
X131900000Y-61200952D01*
X131947619Y-61153333D01*
X132042857Y-61105714D01*
X132233333Y-61058095D01*
X132471428Y-61058095D01*
X132661904Y-61105714D01*
X132757142Y-61153333D01*
X132804761Y-61200952D01*
X132852380Y-61296190D01*
X132852380Y-61391428D01*
X132804761Y-61486666D01*
X132757142Y-61534285D01*
X132661904Y-61581904D01*
X132471428Y-61629523D01*
X132233333Y-61629523D01*
X132042857Y-61581904D01*
X131947619Y-61534285D01*
X131900000Y-61486666D01*
X131852380Y-61391428D01*
G04 #@! TO.C,D11*
X127952380Y-91214285D02*
X126952380Y-91214285D01*
X126952380Y-90976190D01*
X127000000Y-90833333D01*
X127095238Y-90738095D01*
X127190476Y-90690476D01*
X127380952Y-90642857D01*
X127523809Y-90642857D01*
X127714285Y-90690476D01*
X127809523Y-90738095D01*
X127904761Y-90833333D01*
X127952380Y-90976190D01*
X127952380Y-91214285D01*
X127952380Y-89690476D02*
X127952380Y-90261904D01*
X127952380Y-89976190D02*
X126952380Y-89976190D01*
X127095238Y-90071428D01*
X127190476Y-90166666D01*
X127238095Y-90261904D01*
X127952380Y-88738095D02*
X127952380Y-89309523D01*
X127952380Y-89023809D02*
X126952380Y-89023809D01*
X127095238Y-89119047D01*
X127190476Y-89214285D01*
X127238095Y-89309523D01*
G04 #@! TO.C,D12*
X62852380Y-73534285D02*
X61852380Y-73534285D01*
X61852380Y-73296190D01*
X61900000Y-73153333D01*
X61995238Y-73058095D01*
X62090476Y-73010476D01*
X62280952Y-72962857D01*
X62423809Y-72962857D01*
X62614285Y-73010476D01*
X62709523Y-73058095D01*
X62804761Y-73153333D01*
X62852380Y-73296190D01*
X62852380Y-73534285D01*
X62852380Y-72010476D02*
X62852380Y-72581904D01*
X62852380Y-72296190D02*
X61852380Y-72296190D01*
X61995238Y-72391428D01*
X62090476Y-72486666D01*
X62138095Y-72581904D01*
X61947619Y-71629523D02*
X61900000Y-71581904D01*
X61852380Y-71486666D01*
X61852380Y-71248571D01*
X61900000Y-71153333D01*
X61947619Y-71105714D01*
X62042857Y-71058095D01*
X62138095Y-71058095D01*
X62280952Y-71105714D01*
X62852380Y-71677142D01*
X62852380Y-71058095D01*
G04 #@! TO.C,D13*
X70352380Y-73534285D02*
X69352380Y-73534285D01*
X69352380Y-73296190D01*
X69400000Y-73153333D01*
X69495238Y-73058095D01*
X69590476Y-73010476D01*
X69780952Y-72962857D01*
X69923809Y-72962857D01*
X70114285Y-73010476D01*
X70209523Y-73058095D01*
X70304761Y-73153333D01*
X70352380Y-73296190D01*
X70352380Y-73534285D01*
X70352380Y-72010476D02*
X70352380Y-72581904D01*
X70352380Y-72296190D02*
X69352380Y-72296190D01*
X69495238Y-72391428D01*
X69590476Y-72486666D01*
X69638095Y-72581904D01*
X69352380Y-71677142D02*
X69352380Y-71058095D01*
X69733333Y-71391428D01*
X69733333Y-71248571D01*
X69780952Y-71153333D01*
X69828571Y-71105714D01*
X69923809Y-71058095D01*
X70161904Y-71058095D01*
X70257142Y-71105714D01*
X70304761Y-71153333D01*
X70352380Y-71248571D01*
X70352380Y-71534285D01*
X70304761Y-71629523D01*
X70257142Y-71677142D01*
G04 #@! TO.C,D14*
X77612380Y-73534285D02*
X76612380Y-73534285D01*
X76612380Y-73296190D01*
X76660000Y-73153333D01*
X76755238Y-73058095D01*
X76850476Y-73010476D01*
X77040952Y-72962857D01*
X77183809Y-72962857D01*
X77374285Y-73010476D01*
X77469523Y-73058095D01*
X77564761Y-73153333D01*
X77612380Y-73296190D01*
X77612380Y-73534285D01*
X77612380Y-72010476D02*
X77612380Y-72581904D01*
X77612380Y-72296190D02*
X76612380Y-72296190D01*
X76755238Y-72391428D01*
X76850476Y-72486666D01*
X76898095Y-72581904D01*
X76945714Y-71153333D02*
X77612380Y-71153333D01*
X76564761Y-71391428D02*
X77279047Y-71629523D01*
X77279047Y-71010476D01*
G04 #@! TO.C,D15*
X85352380Y-73534285D02*
X84352380Y-73534285D01*
X84352380Y-73296190D01*
X84400000Y-73153333D01*
X84495238Y-73058095D01*
X84590476Y-73010476D01*
X84780952Y-72962857D01*
X84923809Y-72962857D01*
X85114285Y-73010476D01*
X85209523Y-73058095D01*
X85304761Y-73153333D01*
X85352380Y-73296190D01*
X85352380Y-73534285D01*
X85352380Y-72010476D02*
X85352380Y-72581904D01*
X85352380Y-72296190D02*
X84352380Y-72296190D01*
X84495238Y-72391428D01*
X84590476Y-72486666D01*
X84638095Y-72581904D01*
X84352380Y-71105714D02*
X84352380Y-71581904D01*
X84828571Y-71629523D01*
X84780952Y-71581904D01*
X84733333Y-71486666D01*
X84733333Y-71248571D01*
X84780952Y-71153333D01*
X84828571Y-71105714D01*
X84923809Y-71058095D01*
X85161904Y-71058095D01*
X85257142Y-71105714D01*
X85304761Y-71153333D01*
X85352380Y-71248571D01*
X85352380Y-71486666D01*
X85304761Y-71581904D01*
X85257142Y-71629523D01*
G04 #@! TO.C,D16*
X92852380Y-73534285D02*
X91852380Y-73534285D01*
X91852380Y-73296190D01*
X91900000Y-73153333D01*
X91995238Y-73058095D01*
X92090476Y-73010476D01*
X92280952Y-72962857D01*
X92423809Y-72962857D01*
X92614285Y-73010476D01*
X92709523Y-73058095D01*
X92804761Y-73153333D01*
X92852380Y-73296190D01*
X92852380Y-73534285D01*
X92852380Y-72010476D02*
X92852380Y-72581904D01*
X92852380Y-72296190D02*
X91852380Y-72296190D01*
X91995238Y-72391428D01*
X92090476Y-72486666D01*
X92138095Y-72581904D01*
X91852380Y-71153333D02*
X91852380Y-71343809D01*
X91900000Y-71439047D01*
X91947619Y-71486666D01*
X92090476Y-71581904D01*
X92280952Y-71629523D01*
X92661904Y-71629523D01*
X92757142Y-71581904D01*
X92804761Y-71534285D01*
X92852380Y-71439047D01*
X92852380Y-71248571D01*
X92804761Y-71153333D01*
X92757142Y-71105714D01*
X92661904Y-71058095D01*
X92423809Y-71058095D01*
X92328571Y-71105714D01*
X92280952Y-71153333D01*
X92233333Y-71248571D01*
X92233333Y-71439047D01*
X92280952Y-71534285D01*
X92328571Y-71581904D01*
X92423809Y-71629523D01*
G04 #@! TO.C,D17*
X102852380Y-73534285D02*
X101852380Y-73534285D01*
X101852380Y-73296190D01*
X101900000Y-73153333D01*
X101995238Y-73058095D01*
X102090476Y-73010476D01*
X102280952Y-72962857D01*
X102423809Y-72962857D01*
X102614285Y-73010476D01*
X102709523Y-73058095D01*
X102804761Y-73153333D01*
X102852380Y-73296190D01*
X102852380Y-73534285D01*
X102852380Y-72010476D02*
X102852380Y-72581904D01*
X102852380Y-72296190D02*
X101852380Y-72296190D01*
X101995238Y-72391428D01*
X102090476Y-72486666D01*
X102138095Y-72581904D01*
X101852380Y-71677142D02*
X101852380Y-71010476D01*
X102852380Y-71439047D01*
G04 #@! TO.C,D18*
X110352380Y-73534285D02*
X109352380Y-73534285D01*
X109352380Y-73296190D01*
X109400000Y-73153333D01*
X109495238Y-73058095D01*
X109590476Y-73010476D01*
X109780952Y-72962857D01*
X109923809Y-72962857D01*
X110114285Y-73010476D01*
X110209523Y-73058095D01*
X110304761Y-73153333D01*
X110352380Y-73296190D01*
X110352380Y-73534285D01*
X110352380Y-72010476D02*
X110352380Y-72581904D01*
X110352380Y-72296190D02*
X109352380Y-72296190D01*
X109495238Y-72391428D01*
X109590476Y-72486666D01*
X109638095Y-72581904D01*
X109780952Y-71439047D02*
X109733333Y-71534285D01*
X109685714Y-71581904D01*
X109590476Y-71629523D01*
X109542857Y-71629523D01*
X109447619Y-71581904D01*
X109400000Y-71534285D01*
X109352380Y-71439047D01*
X109352380Y-71248571D01*
X109400000Y-71153333D01*
X109447619Y-71105714D01*
X109542857Y-71058095D01*
X109590476Y-71058095D01*
X109685714Y-71105714D01*
X109733333Y-71153333D01*
X109780952Y-71248571D01*
X109780952Y-71439047D01*
X109828571Y-71534285D01*
X109876190Y-71581904D01*
X109971428Y-71629523D01*
X110161904Y-71629523D01*
X110257142Y-71581904D01*
X110304761Y-71534285D01*
X110352380Y-71439047D01*
X110352380Y-71248571D01*
X110304761Y-71153333D01*
X110257142Y-71105714D01*
X110161904Y-71058095D01*
X109971428Y-71058095D01*
X109876190Y-71105714D01*
X109828571Y-71153333D01*
X109780952Y-71248571D01*
G04 #@! TO.C,D19*
X117852380Y-73534285D02*
X116852380Y-73534285D01*
X116852380Y-73296190D01*
X116900000Y-73153333D01*
X116995238Y-73058095D01*
X117090476Y-73010476D01*
X117280952Y-72962857D01*
X117423809Y-72962857D01*
X117614285Y-73010476D01*
X117709523Y-73058095D01*
X117804761Y-73153333D01*
X117852380Y-73296190D01*
X117852380Y-73534285D01*
X117852380Y-72010476D02*
X117852380Y-72581904D01*
X117852380Y-72296190D02*
X116852380Y-72296190D01*
X116995238Y-72391428D01*
X117090476Y-72486666D01*
X117138095Y-72581904D01*
X117852380Y-71534285D02*
X117852380Y-71343809D01*
X117804761Y-71248571D01*
X117757142Y-71200952D01*
X117614285Y-71105714D01*
X117423809Y-71058095D01*
X117042857Y-71058095D01*
X116947619Y-71105714D01*
X116900000Y-71153333D01*
X116852380Y-71248571D01*
X116852380Y-71439047D01*
X116900000Y-71534285D01*
X116947619Y-71581904D01*
X117042857Y-71629523D01*
X117280952Y-71629523D01*
X117376190Y-71581904D01*
X117423809Y-71534285D01*
X117471428Y-71439047D01*
X117471428Y-71248571D01*
X117423809Y-71153333D01*
X117376190Y-71105714D01*
X117280952Y-71058095D01*
G04 #@! TO.C,D20*
X125352380Y-73534285D02*
X124352380Y-73534285D01*
X124352380Y-73296190D01*
X124400000Y-73153333D01*
X124495238Y-73058095D01*
X124590476Y-73010476D01*
X124780952Y-72962857D01*
X124923809Y-72962857D01*
X125114285Y-73010476D01*
X125209523Y-73058095D01*
X125304761Y-73153333D01*
X125352380Y-73296190D01*
X125352380Y-73534285D01*
X124447619Y-72581904D02*
X124400000Y-72534285D01*
X124352380Y-72439047D01*
X124352380Y-72200952D01*
X124400000Y-72105714D01*
X124447619Y-72058095D01*
X124542857Y-72010476D01*
X124638095Y-72010476D01*
X124780952Y-72058095D01*
X125352380Y-72629523D01*
X125352380Y-72010476D01*
X124352380Y-71391428D02*
X124352380Y-71296190D01*
X124400000Y-71200952D01*
X124447619Y-71153333D01*
X124542857Y-71105714D01*
X124733333Y-71058095D01*
X124971428Y-71058095D01*
X125161904Y-71105714D01*
X125257142Y-71153333D01*
X125304761Y-71200952D01*
X125352380Y-71296190D01*
X125352380Y-71391428D01*
X125304761Y-71486666D01*
X125257142Y-71534285D01*
X125161904Y-71581904D01*
X124971428Y-71629523D01*
X124733333Y-71629523D01*
X124542857Y-71581904D01*
X124447619Y-71534285D01*
X124400000Y-71486666D01*
X124352380Y-71391428D01*
G04 #@! TO.C,D21*
X132852380Y-73534285D02*
X131852380Y-73534285D01*
X131852380Y-73296190D01*
X131900000Y-73153333D01*
X131995238Y-73058095D01*
X132090476Y-73010476D01*
X132280952Y-72962857D01*
X132423809Y-72962857D01*
X132614285Y-73010476D01*
X132709523Y-73058095D01*
X132804761Y-73153333D01*
X132852380Y-73296190D01*
X132852380Y-73534285D01*
X131947619Y-72581904D02*
X131900000Y-72534285D01*
X131852380Y-72439047D01*
X131852380Y-72200952D01*
X131900000Y-72105714D01*
X131947619Y-72058095D01*
X132042857Y-72010476D01*
X132138095Y-72010476D01*
X132280952Y-72058095D01*
X132852380Y-72629523D01*
X132852380Y-72010476D01*
X132852380Y-71058095D02*
X132852380Y-71629523D01*
X132852380Y-71343809D02*
X131852380Y-71343809D01*
X131995238Y-71439047D01*
X132090476Y-71534285D01*
X132138095Y-71629523D01*
G04 #@! TO.C,R2*
X110952380Y-79666666D02*
X110476190Y-80000000D01*
X110952380Y-80238095D02*
X109952380Y-80238095D01*
X109952380Y-79857142D01*
X110000000Y-79761904D01*
X110047619Y-79714285D01*
X110142857Y-79666666D01*
X110285714Y-79666666D01*
X110380952Y-79714285D01*
X110428571Y-79761904D01*
X110476190Y-79857142D01*
X110476190Y-80238095D01*
X110047619Y-79285714D02*
X110000000Y-79238095D01*
X109952380Y-79142857D01*
X109952380Y-78904761D01*
X110000000Y-78809523D01*
X110047619Y-78761904D01*
X110142857Y-78714285D01*
X110238095Y-78714285D01*
X110380952Y-78761904D01*
X110952380Y-79333333D01*
X110952380Y-78714285D01*
G04 #@! TO.C,R3*
X110952380Y-82166666D02*
X110476190Y-82500000D01*
X110952380Y-82738095D02*
X109952380Y-82738095D01*
X109952380Y-82357142D01*
X110000000Y-82261904D01*
X110047619Y-82214285D01*
X110142857Y-82166666D01*
X110285714Y-82166666D01*
X110380952Y-82214285D01*
X110428571Y-82261904D01*
X110476190Y-82357142D01*
X110476190Y-82738095D01*
X109952380Y-81833333D02*
X109952380Y-81214285D01*
X110333333Y-81547619D01*
X110333333Y-81404761D01*
X110380952Y-81309523D01*
X110428571Y-81261904D01*
X110523809Y-81214285D01*
X110761904Y-81214285D01*
X110857142Y-81261904D01*
X110904761Y-81309523D01*
X110952380Y-81404761D01*
X110952380Y-81690476D01*
X110904761Y-81785714D01*
X110857142Y-81833333D01*
G04 #@! TO.C,R4*
X110952380Y-84666666D02*
X110476190Y-85000000D01*
X110952380Y-85238095D02*
X109952380Y-85238095D01*
X109952380Y-84857142D01*
X110000000Y-84761904D01*
X110047619Y-84714285D01*
X110142857Y-84666666D01*
X110285714Y-84666666D01*
X110380952Y-84714285D01*
X110428571Y-84761904D01*
X110476190Y-84857142D01*
X110476190Y-85238095D01*
X110285714Y-83809523D02*
X110952380Y-83809523D01*
X109904761Y-84047619D02*
X110619047Y-84285714D01*
X110619047Y-83666666D01*
G04 #@! TD*
M02*
