G04 #@! TF.GenerationSoftware,KiCad,Pcbnew,(5.0.0-rc2-117-g8a2639325)*
G04 #@! TF.CreationDate,2018-07-20T00:32:21+10:00*
G04 #@! TF.ProjectId,AR0004-R1,4152303030342D52312E6B696361645F,rev?*
G04 #@! TF.SameCoordinates,Original*
G04 #@! TF.FileFunction,Copper,L1,Top,Signal*
G04 #@! TF.FilePolarity,Positive*
%FSLAX46Y46*%
G04 Gerber Fmt 4.6, Leading zero omitted, Abs format (unit mm)*
G04 Created by KiCad (PCBNEW (5.0.0-rc2-117-g8a2639325)) date 07/20/18 00:32:21*
%MOMM*%
%LPD*%
G01*
G04 APERTURE LIST*
G04 #@! TA.AperFunction,SMDPad,CuDef*
%ADD10R,2.500000X0.900000*%
G04 #@! TD*
G04 #@! TA.AperFunction,SMDPad,CuDef*
%ADD11R,0.900000X2.500000*%
G04 #@! TD*
G04 #@! TA.AperFunction,SMDPad,CuDef*
%ADD12R,1.700000X0.900000*%
G04 #@! TD*
G04 #@! TA.AperFunction,SMDPad,CuDef*
%ADD13R,2.100000X1.300000*%
G04 #@! TD*
G04 #@! TA.AperFunction,SMDPad,CuDef*
%ADD14R,2.100000X2.200000*%
G04 #@! TD*
G04 #@! TA.AperFunction,SMDPad,CuDef*
%ADD15R,2.300000X2.500000*%
G04 #@! TD*
G04 #@! TA.AperFunction,SMDPad,CuDef*
%ADD16R,3.800000X2.000000*%
G04 #@! TD*
G04 #@! TA.AperFunction,ComponentPad*
%ADD17R,3.500000X3.500000*%
G04 #@! TD*
G04 #@! TA.AperFunction,ComponentPad*
%ADD18O,1.700000X1.700000*%
G04 #@! TD*
G04 #@! TA.AperFunction,ComponentPad*
%ADD19R,1.700000X1.700000*%
G04 #@! TD*
G04 #@! TA.AperFunction,ComponentPad*
%ADD20C,4.600000*%
G04 #@! TD*
G04 #@! TA.AperFunction,ComponentPad*
%ADD21C,1.800000*%
G04 #@! TD*
G04 #@! TA.AperFunction,ComponentPad*
%ADD22C,5.500000*%
G04 #@! TD*
G04 #@! TA.AperFunction,SMDPad,CuDef*
%ADD23R,0.900000X1.700000*%
G04 #@! TD*
G04 #@! TA.AperFunction,Conductor*
%ADD24R,2.950000X4.500000*%
G04 #@! TD*
G04 #@! TA.AperFunction,ViaPad*
%ADD25C,0.600000*%
G04 #@! TD*
G04 #@! TA.AperFunction,ViaPad*
%ADD26C,0.800000*%
G04 #@! TD*
G04 #@! TA.AperFunction,Conductor*
%ADD27C,1.270000*%
G04 #@! TD*
G04 #@! TA.AperFunction,Conductor*
%ADD28C,0.762000*%
G04 #@! TD*
G04 #@! TA.AperFunction,Conductor*
%ADD29C,0.250000*%
G04 #@! TD*
G04 #@! TA.AperFunction,Conductor*
%ADD30C,0.254000*%
G04 #@! TD*
G04 APERTURE END LIST*
D10*
G04 #@! TO.P,C5,2*
G04 #@! TO.N,GND*
X135500000Y-81050000D03*
G04 #@! TO.P,C5,1*
G04 #@! TO.N,VCC*
X135500000Y-83950000D03*
G04 #@! TD*
D11*
G04 #@! TO.P,C6,1*
G04 #@! TO.N,VCC*
X118050000Y-87500000D03*
G04 #@! TO.P,C6,2*
G04 #@! TO.N,GND*
X120950000Y-87500000D03*
G04 #@! TD*
D10*
G04 #@! TO.P,C7,2*
G04 #@! TO.N,GND*
X56750000Y-66050000D03*
G04 #@! TO.P,C7,1*
G04 #@! TO.N,VCC*
X56750000Y-68950000D03*
G04 #@! TD*
G04 #@! TO.P,C8,1*
G04 #@! TO.N,VCC*
X143250000Y-68950000D03*
G04 #@! TO.P,C8,2*
G04 #@! TO.N,GND*
X143250000Y-66050000D03*
G04 #@! TD*
D12*
G04 #@! TO.P,C9,1*
G04 #@! TO.N,LED+*
X100000000Y-63450000D03*
G04 #@! TO.P,C9,2*
G04 #@! TO.N,LED-*
X100000000Y-60550000D03*
G04 #@! TD*
G04 #@! TO.P,C14,2*
G04 #@! TO.N,LED-*
X100000000Y-71500000D03*
G04 #@! TO.P,C14,1*
G04 #@! TO.N,LED+*
X100000000Y-74400000D03*
G04 #@! TD*
D13*
G04 #@! TO.P,D1,2*
G04 #@! TO.N,LED+*
X65000000Y-63630000D03*
D14*
G04 #@! TO.P,D1,1*
G04 #@! TO.N,LED-*
X65000000Y-61370000D03*
G04 #@! TD*
G04 #@! TO.P,D2,1*
G04 #@! TO.N,LED-*
X72500000Y-61370000D03*
D13*
G04 #@! TO.P,D2,2*
G04 #@! TO.N,LED+*
X72500000Y-63630000D03*
G04 #@! TD*
G04 #@! TO.P,D3,2*
G04 #@! TO.N,LED+*
X80000000Y-63630000D03*
D14*
G04 #@! TO.P,D3,1*
G04 #@! TO.N,LED-*
X80000000Y-61370000D03*
G04 #@! TD*
G04 #@! TO.P,D4,1*
G04 #@! TO.N,LED-*
X87500000Y-61370000D03*
D13*
G04 #@! TO.P,D4,2*
G04 #@! TO.N,LED+*
X87500000Y-63630000D03*
G04 #@! TD*
D14*
G04 #@! TO.P,D5,1*
G04 #@! TO.N,LED-*
X95000000Y-61370000D03*
D13*
G04 #@! TO.P,D5,2*
G04 #@! TO.N,LED+*
X95000000Y-63630000D03*
G04 #@! TD*
G04 #@! TO.P,D6,2*
G04 #@! TO.N,LED+*
X105000000Y-63630000D03*
D14*
G04 #@! TO.P,D6,1*
G04 #@! TO.N,LED-*
X105000000Y-61370000D03*
G04 #@! TD*
G04 #@! TO.P,D7,1*
G04 #@! TO.N,LED-*
X112500000Y-61370000D03*
D13*
G04 #@! TO.P,D7,2*
G04 #@! TO.N,LED+*
X112500000Y-63630000D03*
G04 #@! TD*
G04 #@! TO.P,D8,2*
G04 #@! TO.N,LED+*
X120000000Y-63630000D03*
D14*
G04 #@! TO.P,D8,1*
G04 #@! TO.N,LED-*
X120000000Y-61370000D03*
G04 #@! TD*
G04 #@! TO.P,D9,1*
G04 #@! TO.N,LED-*
X127500000Y-61370000D03*
D13*
G04 #@! TO.P,D9,2*
G04 #@! TO.N,LED+*
X127500000Y-63630000D03*
G04 #@! TD*
G04 #@! TO.P,D10,2*
G04 #@! TO.N,LED+*
X135000000Y-63630000D03*
D14*
G04 #@! TO.P,D10,1*
G04 #@! TO.N,LED-*
X135000000Y-61370000D03*
G04 #@! TD*
D15*
G04 #@! TO.P,D11,1*
G04 #@! TO.N,VCC*
X124500000Y-87850000D03*
G04 #@! TO.P,D11,2*
G04 #@! TO.N,Net-(D11-Pad2)*
X124500000Y-92150000D03*
G04 #@! TD*
D14*
G04 #@! TO.P,D12,1*
G04 #@! TO.N,LED-*
X65000000Y-71370000D03*
D13*
G04 #@! TO.P,D12,2*
G04 #@! TO.N,LED+*
X65000000Y-73630000D03*
G04 #@! TD*
D14*
G04 #@! TO.P,D13,1*
G04 #@! TO.N,LED-*
X72500000Y-71370000D03*
D13*
G04 #@! TO.P,D13,2*
G04 #@! TO.N,LED+*
X72500000Y-73630000D03*
G04 #@! TD*
D14*
G04 #@! TO.P,D14,1*
G04 #@! TO.N,LED-*
X79760000Y-71370000D03*
D13*
G04 #@! TO.P,D14,2*
G04 #@! TO.N,LED+*
X79760000Y-73630000D03*
G04 #@! TD*
G04 #@! TO.P,D15,2*
G04 #@! TO.N,LED+*
X87500000Y-73630000D03*
D14*
G04 #@! TO.P,D15,1*
G04 #@! TO.N,LED-*
X87500000Y-71370000D03*
G04 #@! TD*
D13*
G04 #@! TO.P,D16,2*
G04 #@! TO.N,LED+*
X95000000Y-73630000D03*
D14*
G04 #@! TO.P,D16,1*
G04 #@! TO.N,LED-*
X95000000Y-71370000D03*
G04 #@! TD*
G04 #@! TO.P,D17,1*
G04 #@! TO.N,LED-*
X105000000Y-71370000D03*
D13*
G04 #@! TO.P,D17,2*
G04 #@! TO.N,LED+*
X105000000Y-73630000D03*
G04 #@! TD*
G04 #@! TO.P,D18,2*
G04 #@! TO.N,LED+*
X112500000Y-73630000D03*
D14*
G04 #@! TO.P,D18,1*
G04 #@! TO.N,LED-*
X112500000Y-71370000D03*
G04 #@! TD*
G04 #@! TO.P,D19,1*
G04 #@! TO.N,LED-*
X120000000Y-71370000D03*
D13*
G04 #@! TO.P,D19,2*
G04 #@! TO.N,LED+*
X120000000Y-73630000D03*
G04 #@! TD*
G04 #@! TO.P,D20,2*
G04 #@! TO.N,LED+*
X127500000Y-73630000D03*
D14*
G04 #@! TO.P,D20,1*
G04 #@! TO.N,LED-*
X127500000Y-71370000D03*
G04 #@! TD*
D13*
G04 #@! TO.P,D21,2*
G04 #@! TO.N,LED+*
X135000000Y-73630000D03*
D14*
G04 #@! TO.P,D21,1*
G04 #@! TO.N,LED-*
X135000000Y-71370000D03*
G04 #@! TD*
D16*
G04 #@! TO.P,J1,1*
G04 #@! TO.N,VCC*
X147500000Y-71000000D03*
G04 #@! TD*
G04 #@! TO.P,J2,1*
G04 #@! TO.N,VCC*
X52500000Y-71000000D03*
G04 #@! TD*
D17*
G04 #@! TO.P,J3,3*
G04 #@! TO.N,GND*
X137800000Y-87000000D03*
G04 #@! TO.P,J3,2*
X142500000Y-90000000D03*
G04 #@! TO.P,J3,1*
G04 #@! TO.N,VCC*
X142500000Y-84000000D03*
G04 #@! TD*
D16*
G04 #@! TO.P,J4,1*
G04 #@! TO.N,GND*
X147500000Y-64000000D03*
G04 #@! TD*
G04 #@! TO.P,J5,1*
G04 #@! TO.N,GND*
X52500000Y-64000000D03*
G04 #@! TD*
D18*
G04 #@! TO.P,J6,2*
G04 #@! TO.N,+5V*
X60540000Y-91000000D03*
D19*
G04 #@! TO.P,J6,1*
G04 #@! TO.N,GND*
X58000000Y-91000000D03*
G04 #@! TD*
D20*
G04 #@! TO.P,RV1,0*
G04 #@! TO.N,N/C*
X95000000Y-51300000D03*
X105000000Y-51300000D03*
D21*
G04 #@! TO.P,RV1,1*
G04 #@! TO.N,Net-(R1-Pad2)*
X97500000Y-48000000D03*
G04 #@! TO.P,RV1,2*
G04 #@! TO.N,Net-(RV1-Pad2)*
X100000000Y-48000000D03*
G04 #@! TO.P,RV1,3*
G04 #@! TO.N,GND*
X102500000Y-48000000D03*
G04 #@! TD*
D22*
G04 #@! TO.P,MK1,1*
G04 #@! TO.N,GND*
X54000000Y-59000000D03*
G04 #@! TD*
G04 #@! TO.P,MK2,1*
G04 #@! TO.N,GND*
X100000000Y-67500000D03*
G04 #@! TD*
G04 #@! TO.P,MK3,1*
G04 #@! TO.N,GND*
X146000000Y-59000000D03*
G04 #@! TD*
G04 #@! TO.P,MK4,1*
G04 #@! TO.N,GND*
X54000000Y-76000000D03*
G04 #@! TD*
G04 #@! TO.P,MK5,1*
G04 #@! TO.N,GND*
X100000000Y-88000000D03*
G04 #@! TD*
G04 #@! TO.P,MK6,1*
G04 #@! TO.N,GND*
X146000000Y-76000000D03*
G04 #@! TD*
D23*
G04 #@! TO.P,R2,1*
G04 #@! TO.N,LED+*
X112050000Y-79500000D03*
G04 #@! TO.P,R2,2*
G04 #@! TO.N,VCC*
X114950000Y-79500000D03*
G04 #@! TD*
G04 #@! TO.P,R3,2*
G04 #@! TO.N,VCC*
X114950000Y-82000000D03*
G04 #@! TO.P,R3,1*
G04 #@! TO.N,LED+*
X112050000Y-82000000D03*
G04 #@! TD*
G04 #@! TO.P,R4,2*
G04 #@! TO.N,VCC*
X114950000Y-84500000D03*
G04 #@! TO.P,R4,1*
G04 #@! TO.N,LED+*
X112050000Y-84500000D03*
G04 #@! TD*
D24*
G04 #@! TO.N,GND*
G04 #@! TO.C,U3*
X113500000Y-90500000D03*
D25*
X112900000Y-91700000D03*
X112900000Y-90900000D03*
X114100000Y-90900000D03*
X114100000Y-91700000D03*
X112900000Y-89300000D03*
X112900000Y-90100000D03*
X114100000Y-90100000D03*
X114100000Y-89300000D03*
G04 #@! TD*
D26*
G04 #@! TO.N,VCC*
X57000000Y-71000000D03*
X117000000Y-76000000D03*
X118000000Y-89500000D03*
G04 #@! TO.N,GND*
X51000000Y-62000000D03*
X51000000Y-60000000D03*
X51000000Y-58000000D03*
X51000000Y-56000000D03*
X51000000Y-54000000D03*
X51000000Y-52000000D03*
X51000000Y-50000000D03*
X51000000Y-48000000D03*
X53000000Y-46000000D03*
X55000000Y-46000000D03*
X57000000Y-46000000D03*
X59000000Y-46000000D03*
X61000000Y-46000000D03*
X63000000Y-46000000D03*
X52000000Y-47000000D03*
X149000000Y-62000000D03*
X149000000Y-60000000D03*
X149000000Y-58000000D03*
X149000000Y-56000000D03*
X149000000Y-54000000D03*
X149000000Y-52000000D03*
X149000000Y-50000000D03*
X149000000Y-48000000D03*
X148000000Y-47000000D03*
X147000000Y-46000000D03*
X145000000Y-46000000D03*
X143000000Y-46000000D03*
X141000000Y-46000000D03*
X139000000Y-46000000D03*
X137000000Y-46000000D03*
X135000000Y-46000000D03*
X133000000Y-46000000D03*
X131000000Y-46000000D03*
X129000000Y-46000000D03*
X127000000Y-46000000D03*
X125000000Y-46000000D03*
X123000000Y-46000000D03*
X121000000Y-46000000D03*
X119000000Y-46000000D03*
X117000000Y-46000000D03*
X115000000Y-46000000D03*
X113000000Y-46000000D03*
X111000000Y-46000000D03*
X109000000Y-46000000D03*
X107000000Y-46000000D03*
X105000000Y-46000000D03*
X103000000Y-46000000D03*
X101000000Y-46000000D03*
X99000000Y-46000000D03*
X97000000Y-46000000D03*
X95000000Y-46000000D03*
X93000000Y-46000000D03*
X91000000Y-46000000D03*
X89000000Y-46000000D03*
X87000000Y-46000000D03*
X85000000Y-46000000D03*
X83000000Y-46000000D03*
X81000000Y-46000000D03*
X79000000Y-46000000D03*
X77000000Y-46000000D03*
X149000000Y-67500000D03*
X51000000Y-67500000D03*
X51000000Y-73000000D03*
X51000000Y-75000000D03*
X51000000Y-77000000D03*
X51000000Y-79000000D03*
X51000000Y-81000000D03*
X51000000Y-83000000D03*
X51000000Y-85000000D03*
X51000000Y-87000000D03*
X51000000Y-89000000D03*
X52000000Y-93000000D03*
X53000000Y-94000000D03*
X55000000Y-94000000D03*
X57000000Y-94000000D03*
X59000000Y-94000000D03*
X61000000Y-94000000D03*
X63000000Y-94000000D03*
X65000000Y-94000000D03*
X67000000Y-94000000D03*
X69000000Y-94000000D03*
X71000000Y-94000000D03*
X73000000Y-94000000D03*
X75000000Y-94000000D03*
X77000000Y-94000000D03*
X79000000Y-94000000D03*
X81000000Y-94000000D03*
X83000000Y-94000000D03*
X85000000Y-94000000D03*
X87000000Y-94000000D03*
X89000000Y-94000000D03*
X91000000Y-94000000D03*
X93000000Y-94000000D03*
X95000000Y-94000000D03*
X97000000Y-94000000D03*
X75000000Y-46000000D03*
X73000000Y-46000000D03*
X71000000Y-46000000D03*
X143250000Y-64750000D03*
X56750000Y-64750000D03*
X87000000Y-49500000D03*
X72000000Y-54000000D03*
X64500000Y-85000000D03*
X135500000Y-79750000D03*
X119750000Y-87500000D03*
X149000000Y-81000000D03*
X149000000Y-73000000D03*
X149000000Y-79000000D03*
X149000000Y-85000000D03*
X149000000Y-83000000D03*
X149000000Y-77000000D03*
X149000000Y-89000000D03*
X149000000Y-87000000D03*
X149000000Y-75000000D03*
X149000000Y-92000000D03*
X148000000Y-93000000D03*
X147000000Y-94000000D03*
X145000000Y-94000000D03*
X143000000Y-94000000D03*
X141000000Y-94000000D03*
X139000000Y-94000000D03*
X137000000Y-94000000D03*
X135000000Y-94000000D03*
X133000000Y-94000000D03*
X131000000Y-94000000D03*
X129000000Y-94000000D03*
X127000000Y-94000802D03*
X125000000Y-94000802D03*
X123000000Y-94000802D03*
X121000000Y-94000000D03*
X119000000Y-94000000D03*
X117000000Y-94000000D03*
X115000000Y-94000000D03*
X113000000Y-94000000D03*
X111000000Y-94000000D03*
X109000000Y-94000000D03*
X107000000Y-94000000D03*
X105000000Y-94000000D03*
X103000000Y-94000000D03*
X101000000Y-94000000D03*
X99000000Y-94000000D03*
X51000000Y-92000000D03*
G04 #@! TO.N,Net-(D11-Pad2)*
X126500000Y-92000000D03*
X122500000Y-92000000D03*
X124500000Y-92000000D03*
G04 #@! TO.N,Net-(RV1-Pad2)*
X108000000Y-86000000D03*
G04 #@! TO.N,LED+*
X65500000Y-63750000D03*
X73000000Y-63750000D03*
X72000000Y-63750000D03*
X79500000Y-63750000D03*
X80500000Y-63750000D03*
X88000000Y-63750000D03*
X87000000Y-63750000D03*
X94500000Y-63750000D03*
X95500000Y-63750000D03*
X105500000Y-63750000D03*
X104500000Y-63750000D03*
X135500000Y-63750000D03*
X134500000Y-63750000D03*
X128000000Y-63750000D03*
X127000000Y-63750000D03*
X120500000Y-63750000D03*
X119500000Y-63750000D03*
X112000000Y-63750000D03*
X113000000Y-63750000D03*
X135500000Y-73750000D03*
X134500000Y-73750000D03*
X128000000Y-73750000D03*
X127000000Y-73750000D03*
X120500000Y-73750000D03*
X119500000Y-73750000D03*
X113000000Y-73750000D03*
X112000000Y-73750000D03*
X105500000Y-73750000D03*
X104500000Y-73750000D03*
X95500000Y-73750000D03*
X94500000Y-73750000D03*
X88000000Y-73750000D03*
X87000000Y-73750000D03*
X73000000Y-73750000D03*
X72000000Y-73750000D03*
X65500000Y-73750000D03*
X64500000Y-73750000D03*
X64500000Y-63750000D03*
X109000000Y-89500000D03*
X79250000Y-73750000D03*
X80250000Y-73750000D03*
X100000000Y-63750000D03*
X100000000Y-73630000D03*
G04 #@! TO.N,LED-*
X64500000Y-62000000D03*
X65500000Y-62000000D03*
X65500000Y-60750000D03*
X64500000Y-60750000D03*
X72000000Y-62000000D03*
X73000000Y-62000000D03*
X73000000Y-60750000D03*
X72000000Y-60750000D03*
X79500000Y-62000000D03*
X80500000Y-62000000D03*
X80500000Y-60750000D03*
X79500000Y-60750000D03*
X87000000Y-62000000D03*
X88000000Y-62000000D03*
X88000000Y-60750000D03*
X87000000Y-60750000D03*
X94500000Y-60750000D03*
X95500000Y-60750000D03*
X95500000Y-62000000D03*
X94500000Y-62000000D03*
X105500000Y-62000000D03*
X104500000Y-62000000D03*
X104500000Y-60750000D03*
X105500000Y-60750000D03*
X112000000Y-62000000D03*
X113000000Y-62000000D03*
X113000000Y-60750000D03*
X112000000Y-60750000D03*
X120500000Y-62000000D03*
X119500000Y-62000000D03*
X119500000Y-60750000D03*
X120500000Y-60750000D03*
X127000000Y-60750000D03*
X127000000Y-62000000D03*
X128000000Y-62000000D03*
X128000000Y-60750000D03*
X134500000Y-60750000D03*
X134500000Y-62000000D03*
X135500000Y-62000000D03*
X135500000Y-60750000D03*
X134500000Y-72000000D03*
X135500000Y-72000000D03*
X135500000Y-70750000D03*
X134500000Y-70750000D03*
X127000000Y-72000000D03*
X128000000Y-72000000D03*
X128000000Y-70750000D03*
X127000000Y-70750000D03*
X119500000Y-72000000D03*
X120500000Y-72000000D03*
X120500000Y-70750000D03*
X119500000Y-70750000D03*
X113000000Y-70750000D03*
X112000000Y-70750000D03*
X112000000Y-72000000D03*
X113000000Y-72000000D03*
X104500000Y-72000000D03*
X105500000Y-72000000D03*
X105500000Y-70750000D03*
X104500000Y-70750000D03*
X94500000Y-72000000D03*
X95500000Y-72000000D03*
X95500000Y-70750000D03*
X94500000Y-70750000D03*
X87000000Y-72000000D03*
X88000000Y-72000000D03*
X88000000Y-70750000D03*
X87000000Y-70750000D03*
X79250000Y-72000000D03*
X80250000Y-72000000D03*
X80250000Y-70750000D03*
X79250000Y-70750000D03*
X72000000Y-70750000D03*
X73000000Y-70750000D03*
X73000000Y-72000000D03*
X72000000Y-72000000D03*
X64500000Y-72000000D03*
X65500000Y-72000000D03*
X65500000Y-70750000D03*
X64500000Y-70750000D03*
X122500000Y-82500000D03*
X126500000Y-82500000D03*
X124500000Y-82500000D03*
X100000000Y-61370000D03*
X100000000Y-71250000D03*
G04 #@! TD*
D27*
G04 #@! TO.N,VCC*
X147500000Y-71000000D02*
X144330000Y-71000000D01*
X142500000Y-84000000D02*
X134000000Y-84000000D01*
X130150000Y-87850000D02*
X124500000Y-87850000D01*
X134000000Y-84000000D02*
X130150000Y-87850000D01*
D28*
X116162000Y-82000000D02*
X114950000Y-82000000D01*
X118750000Y-82000000D02*
X116162000Y-82000000D01*
X114950000Y-84500000D02*
X114950000Y-82000000D01*
X114950000Y-82000000D02*
X114950000Y-79500000D01*
D27*
X124500000Y-87750000D02*
X118750000Y-82000000D01*
X124500000Y-87850000D02*
X124500000Y-87750000D01*
X118750000Y-82000000D02*
X118750000Y-77750000D01*
X118750000Y-77750000D02*
X117000000Y-76000000D01*
D29*
X118000000Y-89500000D02*
X118000000Y-86000000D01*
X116500000Y-84500000D02*
X114950000Y-84500000D01*
X118000000Y-86000000D02*
X116500000Y-84500000D01*
D27*
X142500000Y-80980000D02*
X142500000Y-84000000D01*
X141500000Y-79980000D02*
X142500000Y-80980000D01*
X144330000Y-71000000D02*
X141500000Y-73830000D01*
X141500000Y-73830000D02*
X141500000Y-79980000D01*
D28*
X55912000Y-71000000D02*
X55500000Y-71000000D01*
X56750000Y-70162000D02*
X55912000Y-71000000D01*
X56750000Y-68950000D02*
X56750000Y-70162000D01*
D27*
X57000000Y-71000000D02*
X55500000Y-71000000D01*
X55500000Y-71000000D02*
X52500000Y-71000000D01*
D28*
X144088000Y-71000000D02*
X144330000Y-71000000D01*
X143250000Y-70162000D02*
X144088000Y-71000000D01*
X143250000Y-68950000D02*
X143250000Y-70162000D01*
D29*
G04 #@! TO.N,GND*
X51750000Y-62000000D02*
X51000000Y-62000000D01*
X52500000Y-64000000D02*
X52500000Y-62750000D01*
X52500000Y-62750000D02*
X51750000Y-62000000D01*
X51000000Y-60000000D02*
X51000000Y-58000000D01*
X51000000Y-56000000D02*
X51000000Y-54000000D01*
X51000000Y-52000000D02*
X51000000Y-50000000D01*
X55000000Y-46000000D02*
X57000000Y-46000000D01*
X59000000Y-46000000D02*
X61000000Y-46000000D01*
X51000000Y-48000000D02*
X52000000Y-47000000D01*
X52000000Y-47000000D02*
X53000000Y-46000000D01*
X148250000Y-62000000D02*
X149000000Y-62000000D01*
X147500000Y-64000000D02*
X147500000Y-62750000D01*
X147500000Y-62750000D02*
X148250000Y-62000000D01*
X149000000Y-60000000D02*
X149000000Y-58000000D01*
X149000000Y-56000000D02*
X149000000Y-54000000D01*
X149000000Y-52000000D02*
X149000000Y-50000000D01*
X149000000Y-48000000D02*
X148000000Y-47000000D01*
X148000000Y-47000000D02*
X147000000Y-46000000D01*
X145000000Y-46000000D02*
X143000000Y-46000000D01*
X141000000Y-46000000D02*
X139000000Y-46000000D01*
X137000000Y-46000000D02*
X135000000Y-46000000D01*
X133000000Y-46000000D02*
X131000000Y-46000000D01*
X129000000Y-46000000D02*
X127000000Y-46000000D01*
X125000000Y-46000000D02*
X123000000Y-46000000D01*
X121000000Y-46000000D02*
X119000000Y-46000000D01*
X117000000Y-46000000D02*
X115000000Y-46000000D01*
X113000000Y-46000000D02*
X111000000Y-46000000D01*
X109000000Y-46000000D02*
X107000000Y-46000000D01*
X105000000Y-46000000D02*
X103000000Y-46000000D01*
X101000000Y-46000000D02*
X99000000Y-46000000D01*
X97000000Y-46000000D02*
X95000000Y-46000000D01*
X93000000Y-46000000D02*
X91000000Y-46000000D01*
X87000000Y-46000000D02*
X85000000Y-46000000D01*
X83000000Y-46000000D02*
X81000000Y-46000000D01*
X79000000Y-46000000D02*
X77000000Y-46000000D01*
X147500000Y-64000000D02*
X147500000Y-66000000D01*
X147500000Y-66000000D02*
X149000000Y-67500000D01*
X52500000Y-64000000D02*
X52500000Y-66000000D01*
X52500000Y-66000000D02*
X51000000Y-67500000D01*
X54000000Y-76000000D02*
X51000000Y-73000000D01*
X51000000Y-75000000D02*
X51000000Y-77000000D01*
X51000000Y-79000000D02*
X51000000Y-81000000D01*
X51000000Y-83000000D02*
X51000000Y-85000000D01*
X51000000Y-87000000D02*
X51000000Y-89000000D01*
X51000000Y-92000000D02*
X52000000Y-93000000D01*
X53000000Y-94000000D02*
X55000000Y-94000000D01*
X57000000Y-94000000D02*
X59000000Y-94000000D01*
X61000000Y-94000000D02*
X63000000Y-94000000D01*
X65000000Y-94000000D02*
X67000000Y-94000000D01*
X69000000Y-94000000D02*
X71000000Y-94000000D01*
X73000000Y-94000000D02*
X75000000Y-94000000D01*
X77000000Y-94000000D02*
X79000000Y-94000000D01*
X81000000Y-94000000D02*
X83000000Y-94000000D01*
X85000000Y-94000000D02*
X87000000Y-94000000D01*
X89000000Y-94000000D02*
X91000000Y-94000000D01*
X93000000Y-94000000D02*
X95000000Y-94000000D01*
X97000000Y-94000000D02*
X99000000Y-94000000D01*
X75000000Y-46000000D02*
X73000000Y-46000000D01*
X143250000Y-66050000D02*
X143250000Y-64750000D01*
X56750000Y-66050000D02*
X56750000Y-64750000D01*
X135500000Y-81050000D02*
X135500000Y-79750000D01*
X120950000Y-87500000D02*
X119750000Y-87500000D01*
X149000000Y-81000000D02*
X149000000Y-83000000D01*
X149000000Y-77000000D02*
X149000000Y-79000000D01*
X149000000Y-89000000D02*
X149000000Y-91000000D01*
X149000000Y-85000000D02*
X149000000Y-87000000D01*
X149000000Y-73000000D02*
X149000000Y-75000000D01*
X149000000Y-91000000D02*
X149000000Y-92000000D01*
X148000000Y-93000000D02*
X147000000Y-94000000D01*
X143000000Y-94000000D02*
X141000000Y-94000000D01*
X139000000Y-94000000D02*
X137000000Y-94000000D01*
X135000000Y-94000000D02*
X133000000Y-94000000D01*
X131000000Y-94000000D02*
X129000000Y-94000000D01*
X127000000Y-94000802D02*
X125000000Y-94000802D01*
X123000000Y-94000802D02*
X121000802Y-94000802D01*
X121000802Y-94000802D02*
X121000000Y-94000000D01*
X119000000Y-94000000D02*
X117000000Y-94000000D01*
X115000000Y-94000000D02*
X113000000Y-94000000D01*
X111000000Y-94000000D02*
X109000000Y-94000000D01*
X107000000Y-94000000D02*
X105000000Y-94000000D01*
X103000000Y-94000000D02*
X101000000Y-94000000D01*
D27*
G04 #@! TO.N,Net-(D11-Pad2)*
X124500000Y-92150000D02*
X126350000Y-92150000D01*
X126350000Y-92150000D02*
X126500000Y-92000000D01*
X124500000Y-92150000D02*
X122650000Y-92150000D01*
X122650000Y-92150000D02*
X122500000Y-92000000D01*
X124500000Y-92150000D02*
X124500000Y-92000000D01*
X126500000Y-92000000D02*
X122500000Y-92000000D01*
D29*
G04 #@! TO.N,Net-(RV1-Pad2)*
X100000000Y-48000000D02*
X100000000Y-54000000D01*
X100000000Y-54000000D02*
X96000000Y-58000000D01*
X96000000Y-58000000D02*
X64000000Y-58000000D01*
X64000000Y-58000000D02*
X60000000Y-62000000D01*
X60000000Y-62000000D02*
X60000000Y-76000000D01*
X60000000Y-76000000D02*
X63000000Y-79000000D01*
X63000000Y-79000000D02*
X101000000Y-79000000D01*
X101000000Y-79000000D02*
X108000000Y-86000000D01*
D27*
G04 #@! TO.N,LED+*
X135000000Y-63630000D02*
X65000000Y-63630000D01*
X135000000Y-73630000D02*
X109000000Y-73630000D01*
X64370000Y-63630000D02*
X65000000Y-63630000D01*
D28*
X112050000Y-79500000D02*
X112050000Y-82000000D01*
X112050000Y-82000000D02*
X112050000Y-84500000D01*
X112050000Y-73800000D02*
X112000000Y-73750000D01*
D27*
X63643034Y-73630000D02*
X65000000Y-73630000D01*
X62000000Y-71986966D02*
X63643034Y-73630000D01*
X62000000Y-65000000D02*
X62000000Y-71986966D01*
X65000000Y-63630000D02*
X63370000Y-63630000D01*
X63370000Y-63630000D02*
X62000000Y-65000000D01*
D29*
X109000000Y-89500000D02*
X109000000Y-86000000D01*
X110500000Y-84500000D02*
X112050000Y-84500000D01*
X109000000Y-86000000D02*
X110500000Y-84500000D01*
D30*
X100000000Y-74400000D02*
X100000000Y-73630000D01*
D27*
X109000000Y-73630000D02*
X100000000Y-73630000D01*
X100000000Y-73630000D02*
X65000000Y-73630000D01*
X62000000Y-75000000D02*
X62000000Y-71986966D01*
X63370000Y-73630000D02*
X62000000Y-75000000D01*
X63643034Y-73630000D02*
X63370000Y-73630000D01*
D28*
X112050000Y-79500000D02*
X112050000Y-79100000D01*
D27*
X64000000Y-77000000D02*
X62000000Y-75000000D01*
X105000000Y-77000000D02*
X64000000Y-77000000D01*
X112050000Y-82000000D02*
X110000000Y-82000000D01*
X110000000Y-82000000D02*
X105000000Y-77000000D01*
D29*
X79760000Y-73630000D02*
X79370000Y-73630000D01*
X79370000Y-73630000D02*
X79250000Y-73750000D01*
X79760000Y-73630000D02*
X80130000Y-73630000D01*
X80130000Y-73630000D02*
X80250000Y-73750000D01*
X100000000Y-63450000D02*
X100000000Y-63750000D01*
D27*
G04 #@! TO.N,LED-*
X66120000Y-61370000D02*
X65000000Y-61370000D01*
X66120000Y-71370000D02*
X135000000Y-71370000D01*
X66120000Y-71370000D02*
X65000000Y-71370000D01*
X137320000Y-71370000D02*
X138000000Y-72050000D01*
X135000000Y-71370000D02*
X137320000Y-71370000D01*
X138000000Y-72050000D02*
X138000000Y-75000000D01*
X138000000Y-75000000D02*
X130400920Y-82599080D01*
X138000000Y-70690000D02*
X137320000Y-71370000D01*
X138000000Y-62050000D02*
X138000000Y-70690000D01*
X135000000Y-61370000D02*
X137320000Y-61370000D01*
X137320000Y-61370000D02*
X138000000Y-62050000D01*
D30*
X100000000Y-60550000D02*
X100000000Y-61370000D01*
D27*
X135000000Y-61370000D02*
X100000000Y-61370000D01*
X100000000Y-61370000D02*
X66120000Y-61370000D01*
X124500000Y-82599080D02*
X122599080Y-82599080D01*
X122599080Y-82599080D02*
X122500000Y-82500000D01*
X126400920Y-82599080D02*
X126500000Y-82500000D01*
X130400920Y-82599080D02*
X124500000Y-82599080D01*
X124500000Y-82599080D02*
X124500000Y-82500000D01*
X124500000Y-82500000D02*
X126400920Y-82599080D01*
X126500000Y-82500000D02*
X122500000Y-82500000D01*
D29*
X100000000Y-71500000D02*
X100000000Y-71250000D01*
G04 #@! TD*
D30*
G04 #@! TO.N,GND*
G36*
X149544001Y-47724238D02*
X149544001Y-62647256D01*
X149511133Y-62633642D01*
X149437525Y-62619000D01*
X147722250Y-62619000D01*
X147627000Y-62714250D01*
X147627000Y-63873000D01*
X147647000Y-63873000D01*
X147647000Y-64127000D01*
X147627000Y-64127000D01*
X147627000Y-65285750D01*
X147722250Y-65381000D01*
X149437525Y-65381000D01*
X149511133Y-65366358D01*
X149544001Y-65352744D01*
X149544001Y-69645538D01*
X149474689Y-69624513D01*
X149400000Y-69617157D01*
X145600000Y-69617157D01*
X145525311Y-69624513D01*
X145453492Y-69646299D01*
X145387304Y-69681678D01*
X145329289Y-69729289D01*
X145281678Y-69787304D01*
X145246299Y-69853492D01*
X145224513Y-69925311D01*
X145218733Y-69984000D01*
X144379893Y-69984000D01*
X144329999Y-69979086D01*
X144280105Y-69984000D01*
X144280098Y-69984000D01*
X144161328Y-69995698D01*
X144012000Y-69846370D01*
X144012000Y-69782843D01*
X144500000Y-69782843D01*
X144574689Y-69775487D01*
X144646508Y-69753701D01*
X144712696Y-69718322D01*
X144770711Y-69670711D01*
X144818322Y-69612696D01*
X144853701Y-69546508D01*
X144875487Y-69474689D01*
X144882843Y-69400000D01*
X144882843Y-68500000D01*
X144875487Y-68425311D01*
X144853701Y-68353492D01*
X144818322Y-68287304D01*
X144770711Y-68229289D01*
X144712696Y-68181678D01*
X144646508Y-68146299D01*
X144574689Y-68124513D01*
X144500000Y-68117157D01*
X142000000Y-68117157D01*
X141925311Y-68124513D01*
X141853492Y-68146299D01*
X141787304Y-68181678D01*
X141729289Y-68229289D01*
X141681678Y-68287304D01*
X141646299Y-68353492D01*
X141624513Y-68425311D01*
X141617157Y-68500000D01*
X141617157Y-69400000D01*
X141624513Y-69474689D01*
X141646299Y-69546508D01*
X141681678Y-69612696D01*
X141729289Y-69670711D01*
X141787304Y-69718322D01*
X141853492Y-69753701D01*
X141925311Y-69775487D01*
X142000000Y-69782843D01*
X142488001Y-69782843D01*
X142488001Y-70124567D01*
X142484314Y-70162000D01*
X142499027Y-70311378D01*
X142542599Y-70455015D01*
X142613355Y-70587392D01*
X142678817Y-70667157D01*
X142708579Y-70703422D01*
X142737649Y-70727279D01*
X142951764Y-70941395D01*
X140816872Y-73076288D01*
X140778104Y-73108104D01*
X140651140Y-73262810D01*
X140556798Y-73439314D01*
X140522288Y-73553078D01*
X140498702Y-73630830D01*
X140479085Y-73830000D01*
X140484000Y-73879902D01*
X140484001Y-79930088D01*
X140479085Y-79980000D01*
X140498702Y-80179170D01*
X140524947Y-80265686D01*
X140556799Y-80370687D01*
X140651141Y-80547190D01*
X140778105Y-80701896D01*
X140816868Y-80733708D01*
X141484000Y-81400841D01*
X141484000Y-81867157D01*
X140750000Y-81867157D01*
X140675311Y-81874513D01*
X140603492Y-81896299D01*
X140537304Y-81931678D01*
X140479289Y-81979289D01*
X140431678Y-82037304D01*
X140396299Y-82103492D01*
X140374513Y-82175311D01*
X140367157Y-82250000D01*
X140367157Y-82984000D01*
X134049893Y-82984000D01*
X133999999Y-82979086D01*
X133950105Y-82984000D01*
X133950098Y-82984000D01*
X133800829Y-82998702D01*
X133609313Y-83056798D01*
X133432810Y-83151140D01*
X133278104Y-83278104D01*
X133246292Y-83316867D01*
X129729160Y-86834000D01*
X126032843Y-86834000D01*
X126032843Y-86600000D01*
X126025487Y-86525311D01*
X126003701Y-86453492D01*
X125968322Y-86387304D01*
X125920711Y-86329289D01*
X125862696Y-86281678D01*
X125796508Y-86246299D01*
X125724689Y-86224513D01*
X125650000Y-86217157D01*
X124403998Y-86217157D01*
X119766000Y-81579160D01*
X119766000Y-77799902D01*
X119770915Y-77750000D01*
X119751298Y-77550829D01*
X119693202Y-77359313D01*
X119598860Y-77182810D01*
X119471896Y-77028104D01*
X119433133Y-76996292D01*
X117683134Y-75246294D01*
X117567189Y-75151141D01*
X117390687Y-75056799D01*
X117199170Y-74998702D01*
X117000000Y-74979085D01*
X116800830Y-74998702D01*
X116609313Y-75056799D01*
X116432811Y-75151141D01*
X116278105Y-75278105D01*
X116151141Y-75432811D01*
X116056799Y-75609313D01*
X115998702Y-75800830D01*
X115979085Y-76000000D01*
X115998702Y-76199170D01*
X116056799Y-76390687D01*
X116151141Y-76567189D01*
X116246294Y-76683134D01*
X117734001Y-78170842D01*
X117734000Y-81238000D01*
X115782843Y-81238000D01*
X115782843Y-81150000D01*
X115775487Y-81075311D01*
X115753701Y-81003492D01*
X115718322Y-80937304D01*
X115712000Y-80929601D01*
X115712000Y-80570399D01*
X115718322Y-80562696D01*
X115753701Y-80496508D01*
X115775487Y-80424689D01*
X115782843Y-80350000D01*
X115782843Y-78650000D01*
X115775487Y-78575311D01*
X115753701Y-78503492D01*
X115718322Y-78437304D01*
X115670711Y-78379289D01*
X115612696Y-78331678D01*
X115546508Y-78296299D01*
X115474689Y-78274513D01*
X115400000Y-78267157D01*
X114500000Y-78267157D01*
X114425311Y-78274513D01*
X114353492Y-78296299D01*
X114287304Y-78331678D01*
X114229289Y-78379289D01*
X114181678Y-78437304D01*
X114146299Y-78503492D01*
X114124513Y-78575311D01*
X114117157Y-78650000D01*
X114117157Y-80350000D01*
X114124513Y-80424689D01*
X114146299Y-80496508D01*
X114181678Y-80562696D01*
X114188001Y-80570400D01*
X114188000Y-80929600D01*
X114181678Y-80937304D01*
X114146299Y-81003492D01*
X114124513Y-81075311D01*
X114117157Y-81150000D01*
X114117157Y-82850000D01*
X114124513Y-82924689D01*
X114146299Y-82996508D01*
X114181678Y-83062696D01*
X114188001Y-83070400D01*
X114188000Y-83429600D01*
X114181678Y-83437304D01*
X114146299Y-83503492D01*
X114124513Y-83575311D01*
X114117157Y-83650000D01*
X114117157Y-85350000D01*
X114124513Y-85424689D01*
X114146299Y-85496508D01*
X114181678Y-85562696D01*
X114229289Y-85620711D01*
X114287304Y-85668322D01*
X114353492Y-85703701D01*
X114425311Y-85725487D01*
X114500000Y-85732843D01*
X115400000Y-85732843D01*
X115474689Y-85725487D01*
X115546508Y-85703701D01*
X115612696Y-85668322D01*
X115670711Y-85620711D01*
X115718322Y-85562696D01*
X115753701Y-85496508D01*
X115775487Y-85424689D01*
X115782843Y-85350000D01*
X115782843Y-85006000D01*
X116290409Y-85006000D01*
X117299723Y-86015315D01*
X117281678Y-86037304D01*
X117246299Y-86103492D01*
X117224513Y-86175311D01*
X117217157Y-86250000D01*
X117217157Y-88750000D01*
X117224513Y-88824689D01*
X117246299Y-88896508D01*
X117281678Y-88962696D01*
X117329289Y-89020711D01*
X117362654Y-89048093D01*
X117307887Y-89130058D01*
X117249013Y-89272191D01*
X117219000Y-89423078D01*
X117219000Y-89576922D01*
X117249013Y-89727809D01*
X117307887Y-89869942D01*
X117393358Y-89997859D01*
X117502141Y-90106642D01*
X117630058Y-90192113D01*
X117772191Y-90250987D01*
X117923078Y-90281000D01*
X118076922Y-90281000D01*
X118227809Y-90250987D01*
X118297185Y-90222250D01*
X140369000Y-90222250D01*
X140369000Y-91787525D01*
X140383642Y-91861133D01*
X140412362Y-91930471D01*
X140454058Y-91992873D01*
X140507126Y-92045942D01*
X140569529Y-92087638D01*
X140638866Y-92116358D01*
X140712475Y-92131000D01*
X142277750Y-92131000D01*
X142373000Y-92035750D01*
X142373000Y-90127000D01*
X142627000Y-90127000D01*
X142627000Y-92035750D01*
X142722250Y-92131000D01*
X144287525Y-92131000D01*
X144361134Y-92116358D01*
X144430471Y-92087638D01*
X144492874Y-92045942D01*
X144545942Y-91992873D01*
X144587638Y-91930471D01*
X144616358Y-91861133D01*
X144631000Y-91787525D01*
X144631000Y-90222250D01*
X144535750Y-90127000D01*
X142627000Y-90127000D01*
X142373000Y-90127000D01*
X140464250Y-90127000D01*
X140369000Y-90222250D01*
X118297185Y-90222250D01*
X118369942Y-90192113D01*
X118497859Y-90106642D01*
X118606642Y-89997859D01*
X118692113Y-89869942D01*
X118750987Y-89727809D01*
X118781000Y-89576922D01*
X118781000Y-89423078D01*
X118750987Y-89272191D01*
X118692113Y-89130058D01*
X118667135Y-89092675D01*
X118712696Y-89068322D01*
X118770711Y-89020711D01*
X118818322Y-88962696D01*
X118853701Y-88896508D01*
X118875487Y-88824689D01*
X118882843Y-88750000D01*
X118882843Y-87722250D01*
X120119000Y-87722250D01*
X120119000Y-88787525D01*
X120133642Y-88861134D01*
X120162362Y-88930471D01*
X120204058Y-88992874D01*
X120257127Y-89045942D01*
X120319529Y-89087638D01*
X120388867Y-89116358D01*
X120462475Y-89131000D01*
X120727750Y-89131000D01*
X120823000Y-89035750D01*
X120823000Y-87627000D01*
X121077000Y-87627000D01*
X121077000Y-89035750D01*
X121172250Y-89131000D01*
X121437525Y-89131000D01*
X121511133Y-89116358D01*
X121580471Y-89087638D01*
X121642873Y-89045942D01*
X121695942Y-88992874D01*
X121737638Y-88930471D01*
X121766358Y-88861134D01*
X121781000Y-88787525D01*
X121781000Y-87722250D01*
X121685750Y-87627000D01*
X121077000Y-87627000D01*
X120823000Y-87627000D01*
X120214250Y-87627000D01*
X120119000Y-87722250D01*
X118882843Y-87722250D01*
X118882843Y-86250000D01*
X118879148Y-86212475D01*
X120119000Y-86212475D01*
X120119000Y-87277750D01*
X120214250Y-87373000D01*
X120823000Y-87373000D01*
X120823000Y-85964250D01*
X120727750Y-85869000D01*
X120462475Y-85869000D01*
X120388867Y-85883642D01*
X120319529Y-85912362D01*
X120257127Y-85954058D01*
X120204058Y-86007126D01*
X120162362Y-86069529D01*
X120133642Y-86138866D01*
X120119000Y-86212475D01*
X118879148Y-86212475D01*
X118875487Y-86175311D01*
X118853701Y-86103492D01*
X118818322Y-86037304D01*
X118770711Y-85979289D01*
X118712696Y-85931678D01*
X118646508Y-85896299D01*
X118574689Y-85874513D01*
X118500000Y-85867157D01*
X118488471Y-85867157D01*
X118469745Y-85805425D01*
X118422759Y-85717521D01*
X118359527Y-85640473D01*
X118340220Y-85624628D01*
X116875376Y-84159785D01*
X116859527Y-84140473D01*
X116782479Y-84077241D01*
X116694575Y-84030255D01*
X116599193Y-84001322D01*
X116524854Y-83994000D01*
X116524846Y-83994000D01*
X116500000Y-83991553D01*
X116475154Y-83994000D01*
X115782843Y-83994000D01*
X115782843Y-83650000D01*
X115775487Y-83575311D01*
X115753701Y-83503492D01*
X115718322Y-83437304D01*
X115712000Y-83429601D01*
X115712000Y-83070399D01*
X115718322Y-83062696D01*
X115753701Y-82996508D01*
X115775487Y-82924689D01*
X115782843Y-82850000D01*
X115782843Y-82762000D01*
X118075160Y-82762000D01*
X121182159Y-85869000D01*
X121172250Y-85869000D01*
X121077000Y-85964250D01*
X121077000Y-87373000D01*
X121685750Y-87373000D01*
X121781000Y-87277750D01*
X121781000Y-86467841D01*
X122967157Y-87653998D01*
X122967157Y-89100000D01*
X122974513Y-89174689D01*
X122996299Y-89246508D01*
X123031678Y-89312696D01*
X123079289Y-89370711D01*
X123137304Y-89418322D01*
X123203492Y-89453701D01*
X123275311Y-89475487D01*
X123350000Y-89482843D01*
X125650000Y-89482843D01*
X125724689Y-89475487D01*
X125796508Y-89453701D01*
X125862696Y-89418322D01*
X125920711Y-89370711D01*
X125968322Y-89312696D01*
X126003701Y-89246508D01*
X126025487Y-89174689D01*
X126032843Y-89100000D01*
X126032843Y-88866000D01*
X130100098Y-88866000D01*
X130150000Y-88870915D01*
X130199902Y-88866000D01*
X130349171Y-88851298D01*
X130540687Y-88793202D01*
X130717190Y-88698860D01*
X130871896Y-88571896D01*
X130903712Y-88533128D01*
X132214590Y-87222250D01*
X135669000Y-87222250D01*
X135669000Y-88787525D01*
X135683642Y-88861133D01*
X135712362Y-88930471D01*
X135754058Y-88992873D01*
X135807126Y-89045942D01*
X135869529Y-89087638D01*
X135938866Y-89116358D01*
X136012475Y-89131000D01*
X137577750Y-89131000D01*
X137673000Y-89035750D01*
X137673000Y-87127000D01*
X137927000Y-87127000D01*
X137927000Y-89035750D01*
X138022250Y-89131000D01*
X139587525Y-89131000D01*
X139661134Y-89116358D01*
X139730471Y-89087638D01*
X139792874Y-89045942D01*
X139845942Y-88992873D01*
X139887638Y-88930471D01*
X139916358Y-88861133D01*
X139931000Y-88787525D01*
X139931000Y-88212475D01*
X140369000Y-88212475D01*
X140369000Y-89777750D01*
X140464250Y-89873000D01*
X142373000Y-89873000D01*
X142373000Y-87964250D01*
X142627000Y-87964250D01*
X142627000Y-89873000D01*
X144535750Y-89873000D01*
X144631000Y-89777750D01*
X144631000Y-88212475D01*
X144616358Y-88138867D01*
X144587638Y-88069529D01*
X144545942Y-88007127D01*
X144492874Y-87954058D01*
X144430471Y-87912362D01*
X144361134Y-87883642D01*
X144287525Y-87869000D01*
X142722250Y-87869000D01*
X142627000Y-87964250D01*
X142373000Y-87964250D01*
X142277750Y-87869000D01*
X140712475Y-87869000D01*
X140638866Y-87883642D01*
X140569529Y-87912362D01*
X140507126Y-87954058D01*
X140454058Y-88007127D01*
X140412362Y-88069529D01*
X140383642Y-88138867D01*
X140369000Y-88212475D01*
X139931000Y-88212475D01*
X139931000Y-87222250D01*
X139835750Y-87127000D01*
X137927000Y-87127000D01*
X137673000Y-87127000D01*
X135764250Y-87127000D01*
X135669000Y-87222250D01*
X132214590Y-87222250D01*
X134420841Y-85016000D01*
X135748129Y-85016000D01*
X135712362Y-85069529D01*
X135683642Y-85138867D01*
X135669000Y-85212475D01*
X135669000Y-86777750D01*
X135764250Y-86873000D01*
X137673000Y-86873000D01*
X137673000Y-86853000D01*
X137927000Y-86853000D01*
X137927000Y-86873000D01*
X139835750Y-86873000D01*
X139931000Y-86777750D01*
X139931000Y-85212475D01*
X139916358Y-85138867D01*
X139887638Y-85069529D01*
X139851871Y-85016000D01*
X140367157Y-85016000D01*
X140367157Y-85750000D01*
X140374513Y-85824689D01*
X140396299Y-85896508D01*
X140431678Y-85962696D01*
X140479289Y-86020711D01*
X140537304Y-86068322D01*
X140603492Y-86103701D01*
X140675311Y-86125487D01*
X140750000Y-86132843D01*
X144250000Y-86132843D01*
X144324689Y-86125487D01*
X144396508Y-86103701D01*
X144462696Y-86068322D01*
X144520711Y-86020711D01*
X144568322Y-85962696D01*
X144603701Y-85896508D01*
X144625487Y-85824689D01*
X144632843Y-85750000D01*
X144632843Y-82250000D01*
X144625487Y-82175311D01*
X144603701Y-82103492D01*
X144568322Y-82037304D01*
X144520711Y-81979289D01*
X144462696Y-81931678D01*
X144396508Y-81896299D01*
X144324689Y-81874513D01*
X144250000Y-81867157D01*
X143516000Y-81867157D01*
X143516000Y-81029902D01*
X143520915Y-80980000D01*
X143501298Y-80780829D01*
X143443202Y-80589313D01*
X143348860Y-80412810D01*
X143221896Y-80258104D01*
X143183133Y-80226292D01*
X142516000Y-79559160D01*
X142516000Y-74250840D01*
X144750841Y-72016000D01*
X145218733Y-72016000D01*
X145224513Y-72074689D01*
X145246299Y-72146508D01*
X145281678Y-72212696D01*
X145329289Y-72270711D01*
X145387304Y-72318322D01*
X145453492Y-72353701D01*
X145525311Y-72375487D01*
X145600000Y-72382843D01*
X149400000Y-72382843D01*
X149474689Y-72375487D01*
X149544000Y-72354462D01*
X149544000Y-92275763D01*
X147275764Y-94544000D01*
X52724237Y-94544000D01*
X50456000Y-92275764D01*
X50456000Y-91222250D01*
X56769000Y-91222250D01*
X56769000Y-91887525D01*
X56783642Y-91961133D01*
X56812362Y-92030471D01*
X56854058Y-92092873D01*
X56907126Y-92145942D01*
X56969529Y-92187638D01*
X57038866Y-92216358D01*
X57112475Y-92231000D01*
X57777750Y-92231000D01*
X57873000Y-92135750D01*
X57873000Y-91127000D01*
X58127000Y-91127000D01*
X58127000Y-92135750D01*
X58222250Y-92231000D01*
X58887525Y-92231000D01*
X58961134Y-92216358D01*
X59030471Y-92187638D01*
X59092874Y-92145942D01*
X59145942Y-92092873D01*
X59187638Y-92030471D01*
X59216358Y-91961133D01*
X59231000Y-91887525D01*
X59231000Y-91222250D01*
X59135750Y-91127000D01*
X58127000Y-91127000D01*
X57873000Y-91127000D01*
X56864250Y-91127000D01*
X56769000Y-91222250D01*
X50456000Y-91222250D01*
X50456000Y-91000000D01*
X59303044Y-91000000D01*
X59326812Y-91241318D01*
X59397202Y-91473363D01*
X59511509Y-91687216D01*
X59665340Y-91874660D01*
X59852784Y-92028491D01*
X60066637Y-92142798D01*
X60298682Y-92213188D01*
X60479528Y-92231000D01*
X60600472Y-92231000D01*
X60781318Y-92213188D01*
X60836251Y-92196524D01*
X112583081Y-92196524D01*
X112607514Y-92318637D01*
X112733825Y-92363811D01*
X112866521Y-92383475D01*
X113000504Y-92376874D01*
X113130624Y-92344261D01*
X113192486Y-92318637D01*
X113216919Y-92196524D01*
X113783081Y-92196524D01*
X113807514Y-92318637D01*
X113933825Y-92363811D01*
X114066521Y-92383475D01*
X114200504Y-92376874D01*
X114330624Y-92344261D01*
X114392486Y-92318637D01*
X114416919Y-92196524D01*
X114100000Y-91879605D01*
X113783081Y-92196524D01*
X113216919Y-92196524D01*
X112900000Y-91879605D01*
X112583081Y-92196524D01*
X60836251Y-92196524D01*
X61013363Y-92142798D01*
X61227216Y-92028491D01*
X61414660Y-91874660D01*
X61568491Y-91687216D01*
X61579552Y-91666521D01*
X112216525Y-91666521D01*
X112223126Y-91800504D01*
X112255739Y-91930624D01*
X112281363Y-91992486D01*
X112403476Y-92016919D01*
X112720395Y-91700000D01*
X113079605Y-91700000D01*
X113396524Y-92016919D01*
X113500000Y-91996215D01*
X113603476Y-92016919D01*
X113920395Y-91700000D01*
X114279605Y-91700000D01*
X114596524Y-92016919D01*
X114681082Y-92000000D01*
X121479085Y-92000000D01*
X121498702Y-92199171D01*
X121556798Y-92390687D01*
X121651140Y-92567190D01*
X121778104Y-92721896D01*
X121816873Y-92753713D01*
X121896287Y-92833127D01*
X121928104Y-92871896D01*
X122082810Y-92998860D01*
X122259313Y-93093202D01*
X122450829Y-93151298D01*
X122600098Y-93166000D01*
X122649999Y-93170915D01*
X122699901Y-93166000D01*
X122967157Y-93166000D01*
X122967157Y-93400000D01*
X122974513Y-93474689D01*
X122996299Y-93546508D01*
X123031678Y-93612696D01*
X123079289Y-93670711D01*
X123137304Y-93718322D01*
X123203492Y-93753701D01*
X123275311Y-93775487D01*
X123350000Y-93782843D01*
X125650000Y-93782843D01*
X125724689Y-93775487D01*
X125796508Y-93753701D01*
X125862696Y-93718322D01*
X125920711Y-93670711D01*
X125968322Y-93612696D01*
X126003701Y-93546508D01*
X126025487Y-93474689D01*
X126032843Y-93400000D01*
X126032843Y-93166000D01*
X126300098Y-93166000D01*
X126350000Y-93170915D01*
X126399902Y-93166000D01*
X126549171Y-93151298D01*
X126740687Y-93093202D01*
X126917190Y-92998860D01*
X127071896Y-92871896D01*
X127103713Y-92833127D01*
X127183127Y-92753713D01*
X127221896Y-92721896D01*
X127348860Y-92567190D01*
X127443202Y-92390687D01*
X127501298Y-92199171D01*
X127520915Y-92000000D01*
X127501298Y-91800829D01*
X127443202Y-91609313D01*
X127348860Y-91432810D01*
X127221896Y-91278104D01*
X127067190Y-91151140D01*
X126890687Y-91056798D01*
X126699171Y-90998702D01*
X126549902Y-90984000D01*
X126549901Y-90984000D01*
X126499999Y-90979085D01*
X126450098Y-90984000D01*
X126032843Y-90984000D01*
X126032843Y-90900000D01*
X126025487Y-90825311D01*
X126003701Y-90753492D01*
X125968322Y-90687304D01*
X125920711Y-90629289D01*
X125862696Y-90581678D01*
X125796508Y-90546299D01*
X125724689Y-90524513D01*
X125650000Y-90517157D01*
X123350000Y-90517157D01*
X123275311Y-90524513D01*
X123203492Y-90546299D01*
X123137304Y-90581678D01*
X123079289Y-90629289D01*
X123031678Y-90687304D01*
X122996299Y-90753492D01*
X122974513Y-90825311D01*
X122967157Y-90900000D01*
X122967157Y-90984000D01*
X122549902Y-90984000D01*
X122500000Y-90979085D01*
X122450098Y-90984000D01*
X122300829Y-90998702D01*
X122109313Y-91056798D01*
X121932810Y-91151140D01*
X121778104Y-91278104D01*
X121651140Y-91432810D01*
X121556798Y-91609313D01*
X121498702Y-91800829D01*
X121479085Y-92000000D01*
X114681082Y-92000000D01*
X114718637Y-91992486D01*
X114763811Y-91866175D01*
X114783475Y-91733479D01*
X114776874Y-91599496D01*
X114744261Y-91469376D01*
X114718637Y-91407514D01*
X114596524Y-91383081D01*
X114279605Y-91700000D01*
X113920395Y-91700000D01*
X113603476Y-91383081D01*
X113500000Y-91403785D01*
X113396524Y-91383081D01*
X113079605Y-91700000D01*
X112720395Y-91700000D01*
X112403476Y-91383081D01*
X112281363Y-91407514D01*
X112236189Y-91533825D01*
X112216525Y-91666521D01*
X61579552Y-91666521D01*
X61682798Y-91473363D01*
X61753188Y-91241318D01*
X61776956Y-91000000D01*
X61763810Y-90866521D01*
X112216525Y-90866521D01*
X112223126Y-91000504D01*
X112255739Y-91130624D01*
X112281363Y-91192486D01*
X112403476Y-91216919D01*
X112416919Y-91203476D01*
X112583081Y-91203476D01*
X112679605Y-91300000D01*
X112583081Y-91396524D01*
X112607514Y-91518637D01*
X112733825Y-91563811D01*
X112866521Y-91583475D01*
X113000504Y-91576874D01*
X113130624Y-91544261D01*
X113192486Y-91518637D01*
X113216919Y-91396524D01*
X113120395Y-91300000D01*
X113216919Y-91203476D01*
X113192486Y-91081363D01*
X113066175Y-91036189D01*
X112933479Y-91016525D01*
X112799496Y-91023126D01*
X112669376Y-91055739D01*
X112607514Y-91081363D01*
X112583081Y-91203476D01*
X112416919Y-91203476D01*
X112720395Y-90900000D01*
X113079605Y-90900000D01*
X113396524Y-91216919D01*
X113500000Y-91196215D01*
X113603476Y-91216919D01*
X113616919Y-91203476D01*
X113783081Y-91203476D01*
X113879605Y-91300000D01*
X113783081Y-91396524D01*
X113807514Y-91518637D01*
X113933825Y-91563811D01*
X114066521Y-91583475D01*
X114200504Y-91576874D01*
X114330624Y-91544261D01*
X114392486Y-91518637D01*
X114416919Y-91396524D01*
X114320395Y-91300000D01*
X114416919Y-91203476D01*
X114392486Y-91081363D01*
X114266175Y-91036189D01*
X114133479Y-91016525D01*
X113999496Y-91023126D01*
X113869376Y-91055739D01*
X113807514Y-91081363D01*
X113783081Y-91203476D01*
X113616919Y-91203476D01*
X113920395Y-90900000D01*
X114279605Y-90900000D01*
X114596524Y-91216919D01*
X114718637Y-91192486D01*
X114763811Y-91066175D01*
X114783475Y-90933479D01*
X114776874Y-90799496D01*
X114744261Y-90669376D01*
X114718637Y-90607514D01*
X114596524Y-90583081D01*
X114279605Y-90900000D01*
X113920395Y-90900000D01*
X113603476Y-90583081D01*
X113500000Y-90603785D01*
X113396524Y-90583081D01*
X113079605Y-90900000D01*
X112720395Y-90900000D01*
X112403476Y-90583081D01*
X112281363Y-90607514D01*
X112236189Y-90733825D01*
X112216525Y-90866521D01*
X61763810Y-90866521D01*
X61753188Y-90758682D01*
X61682798Y-90526637D01*
X61568491Y-90312784D01*
X61414660Y-90125340D01*
X61227216Y-89971509D01*
X61013363Y-89857202D01*
X60781318Y-89786812D01*
X60600472Y-89769000D01*
X60479528Y-89769000D01*
X60298682Y-89786812D01*
X60066637Y-89857202D01*
X59852784Y-89971509D01*
X59665340Y-90125340D01*
X59511509Y-90312784D01*
X59397202Y-90526637D01*
X59326812Y-90758682D01*
X59303044Y-91000000D01*
X50456000Y-91000000D01*
X50456000Y-90112475D01*
X56769000Y-90112475D01*
X56769000Y-90777750D01*
X56864250Y-90873000D01*
X57873000Y-90873000D01*
X57873000Y-89864250D01*
X58127000Y-89864250D01*
X58127000Y-90873000D01*
X59135750Y-90873000D01*
X59231000Y-90777750D01*
X59231000Y-90112475D01*
X59216358Y-90038867D01*
X59187638Y-89969529D01*
X59145942Y-89907127D01*
X59092874Y-89854058D01*
X59030471Y-89812362D01*
X58961134Y-89783642D01*
X58887525Y-89769000D01*
X58222250Y-89769000D01*
X58127000Y-89864250D01*
X57873000Y-89864250D01*
X57777750Y-89769000D01*
X57112475Y-89769000D01*
X57038866Y-89783642D01*
X56969529Y-89812362D01*
X56907126Y-89854058D01*
X56854058Y-89907127D01*
X56812362Y-89969529D01*
X56783642Y-90038867D01*
X56769000Y-90112475D01*
X50456000Y-90112475D01*
X50456000Y-72354462D01*
X50525311Y-72375487D01*
X50600000Y-72382843D01*
X54400000Y-72382843D01*
X54474689Y-72375487D01*
X54546508Y-72353701D01*
X54612696Y-72318322D01*
X54670711Y-72270711D01*
X54718322Y-72212696D01*
X54753701Y-72146508D01*
X54775487Y-72074689D01*
X54781267Y-72016000D01*
X57049902Y-72016000D01*
X57199171Y-72001298D01*
X57390687Y-71943202D01*
X57567190Y-71848860D01*
X57721896Y-71721896D01*
X57848860Y-71567190D01*
X57943202Y-71390687D01*
X58001298Y-71199171D01*
X58020915Y-71000000D01*
X58001298Y-70800829D01*
X57943202Y-70609313D01*
X57848860Y-70432810D01*
X57721896Y-70278104D01*
X57567190Y-70151140D01*
X57512000Y-70121641D01*
X57512000Y-69782843D01*
X58000000Y-69782843D01*
X58074689Y-69775487D01*
X58146508Y-69753701D01*
X58212696Y-69718322D01*
X58270711Y-69670711D01*
X58318322Y-69612696D01*
X58353701Y-69546508D01*
X58375487Y-69474689D01*
X58382843Y-69400000D01*
X58382843Y-68500000D01*
X58375487Y-68425311D01*
X58353701Y-68353492D01*
X58318322Y-68287304D01*
X58270711Y-68229289D01*
X58212696Y-68181678D01*
X58146508Y-68146299D01*
X58074689Y-68124513D01*
X58000000Y-68117157D01*
X55500000Y-68117157D01*
X55425311Y-68124513D01*
X55353492Y-68146299D01*
X55287304Y-68181678D01*
X55229289Y-68229289D01*
X55181678Y-68287304D01*
X55146299Y-68353492D01*
X55124513Y-68425311D01*
X55117157Y-68500000D01*
X55117157Y-69400000D01*
X55124513Y-69474689D01*
X55146299Y-69546508D01*
X55181678Y-69612696D01*
X55229289Y-69670711D01*
X55287304Y-69718322D01*
X55353492Y-69753701D01*
X55425311Y-69775487D01*
X55500000Y-69782843D01*
X55988001Y-69782843D01*
X55988001Y-69846369D01*
X55850369Y-69984000D01*
X54781267Y-69984000D01*
X54775487Y-69925311D01*
X54753701Y-69853492D01*
X54718322Y-69787304D01*
X54670711Y-69729289D01*
X54612696Y-69681678D01*
X54546508Y-69646299D01*
X54474689Y-69624513D01*
X54400000Y-69617157D01*
X50600000Y-69617157D01*
X50525311Y-69624513D01*
X50456000Y-69645538D01*
X50456000Y-66272250D01*
X55119000Y-66272250D01*
X55119000Y-66537525D01*
X55133642Y-66611133D01*
X55162362Y-66680471D01*
X55204058Y-66742873D01*
X55257126Y-66795942D01*
X55319529Y-66837638D01*
X55388866Y-66866358D01*
X55462475Y-66881000D01*
X56527750Y-66881000D01*
X56623000Y-66785750D01*
X56623000Y-66177000D01*
X56877000Y-66177000D01*
X56877000Y-66785750D01*
X56972250Y-66881000D01*
X58037525Y-66881000D01*
X58111134Y-66866358D01*
X58180471Y-66837638D01*
X58242874Y-66795942D01*
X58295942Y-66742873D01*
X58337638Y-66680471D01*
X58366358Y-66611133D01*
X58381000Y-66537525D01*
X58381000Y-66272250D01*
X58285750Y-66177000D01*
X56877000Y-66177000D01*
X56623000Y-66177000D01*
X55214250Y-66177000D01*
X55119000Y-66272250D01*
X50456000Y-66272250D01*
X50456000Y-65562475D01*
X55119000Y-65562475D01*
X55119000Y-65827750D01*
X55214250Y-65923000D01*
X56623000Y-65923000D01*
X56623000Y-65314250D01*
X56877000Y-65314250D01*
X56877000Y-65923000D01*
X58285750Y-65923000D01*
X58381000Y-65827750D01*
X58381000Y-65562475D01*
X58366358Y-65488867D01*
X58337638Y-65419529D01*
X58295942Y-65357127D01*
X58242874Y-65304058D01*
X58180471Y-65262362D01*
X58111134Y-65233642D01*
X58037525Y-65219000D01*
X56972250Y-65219000D01*
X56877000Y-65314250D01*
X56623000Y-65314250D01*
X56527750Y-65219000D01*
X55462475Y-65219000D01*
X55388866Y-65233642D01*
X55319529Y-65262362D01*
X55257126Y-65304058D01*
X55204058Y-65357127D01*
X55162362Y-65419529D01*
X55133642Y-65488867D01*
X55119000Y-65562475D01*
X50456000Y-65562475D01*
X50456000Y-65352744D01*
X50488867Y-65366358D01*
X50562475Y-65381000D01*
X52277750Y-65381000D01*
X52373000Y-65285750D01*
X52373000Y-64127000D01*
X52627000Y-64127000D01*
X52627000Y-65285750D01*
X52722250Y-65381000D01*
X54437525Y-65381000D01*
X54511133Y-65366358D01*
X54580471Y-65337638D01*
X54642873Y-65295942D01*
X54695942Y-65242874D01*
X54737638Y-65180471D01*
X54766358Y-65111134D01*
X54781000Y-65037525D01*
X54781000Y-64222250D01*
X54685750Y-64127000D01*
X52627000Y-64127000D01*
X52373000Y-64127000D01*
X52353000Y-64127000D01*
X52353000Y-63873000D01*
X52373000Y-63873000D01*
X52373000Y-62714250D01*
X52627000Y-62714250D01*
X52627000Y-63873000D01*
X54685750Y-63873000D01*
X54781000Y-63777750D01*
X54781000Y-62962475D01*
X54766358Y-62888866D01*
X54737638Y-62819529D01*
X54695942Y-62757126D01*
X54642873Y-62704058D01*
X54580471Y-62662362D01*
X54511133Y-62633642D01*
X54437525Y-62619000D01*
X52722250Y-62619000D01*
X52627000Y-62714250D01*
X52373000Y-62714250D01*
X52277750Y-62619000D01*
X50562475Y-62619000D01*
X50488867Y-62633642D01*
X50456000Y-62647256D01*
X50456000Y-62000000D01*
X59491553Y-62000000D01*
X59494000Y-62024846D01*
X59494001Y-75975144D01*
X59491553Y-76000000D01*
X59501322Y-76099192D01*
X59530255Y-76194574D01*
X59530256Y-76194575D01*
X59577242Y-76282479D01*
X59640474Y-76359527D01*
X59659781Y-76375372D01*
X62624628Y-79340220D01*
X62640473Y-79359527D01*
X62717521Y-79422759D01*
X62792009Y-79462574D01*
X62805425Y-79469745D01*
X62900807Y-79498678D01*
X63000000Y-79508448D01*
X63024854Y-79506000D01*
X100790409Y-79506000D01*
X107219000Y-85934592D01*
X107219000Y-86076922D01*
X107249013Y-86227809D01*
X107307887Y-86369942D01*
X107393358Y-86497859D01*
X107502141Y-86606642D01*
X107630058Y-86692113D01*
X107772191Y-86750987D01*
X107923078Y-86781000D01*
X108076922Y-86781000D01*
X108227809Y-86750987D01*
X108369942Y-86692113D01*
X108494001Y-86609220D01*
X108494000Y-88901499D01*
X108393358Y-89002141D01*
X108307887Y-89130058D01*
X108249013Y-89272191D01*
X108219000Y-89423078D01*
X108219000Y-89576922D01*
X108249013Y-89727809D01*
X108307887Y-89869942D01*
X108393358Y-89997859D01*
X108502141Y-90106642D01*
X108630058Y-90192113D01*
X108772191Y-90250987D01*
X108923078Y-90281000D01*
X109076922Y-90281000D01*
X109227809Y-90250987D01*
X109369942Y-90192113D01*
X109497859Y-90106642D01*
X109537980Y-90066521D01*
X112216525Y-90066521D01*
X112223126Y-90200504D01*
X112255739Y-90330624D01*
X112281363Y-90392486D01*
X112403476Y-90416919D01*
X112416919Y-90403476D01*
X112583081Y-90403476D01*
X112679605Y-90500000D01*
X112583081Y-90596524D01*
X112607514Y-90718637D01*
X112733825Y-90763811D01*
X112866521Y-90783475D01*
X113000504Y-90776874D01*
X113130624Y-90744261D01*
X113192486Y-90718637D01*
X113216919Y-90596524D01*
X113120395Y-90500000D01*
X113216919Y-90403476D01*
X113192486Y-90281363D01*
X113066175Y-90236189D01*
X112933479Y-90216525D01*
X112799496Y-90223126D01*
X112669376Y-90255739D01*
X112607514Y-90281363D01*
X112583081Y-90403476D01*
X112416919Y-90403476D01*
X112720395Y-90100000D01*
X113079605Y-90100000D01*
X113396524Y-90416919D01*
X113500000Y-90396215D01*
X113603476Y-90416919D01*
X113616919Y-90403476D01*
X113783081Y-90403476D01*
X113879605Y-90500000D01*
X113783081Y-90596524D01*
X113807514Y-90718637D01*
X113933825Y-90763811D01*
X114066521Y-90783475D01*
X114200504Y-90776874D01*
X114330624Y-90744261D01*
X114392486Y-90718637D01*
X114416919Y-90596524D01*
X114320395Y-90500000D01*
X114416919Y-90403476D01*
X114392486Y-90281363D01*
X114266175Y-90236189D01*
X114133479Y-90216525D01*
X113999496Y-90223126D01*
X113869376Y-90255739D01*
X113807514Y-90281363D01*
X113783081Y-90403476D01*
X113616919Y-90403476D01*
X113920395Y-90100000D01*
X114279605Y-90100000D01*
X114596524Y-90416919D01*
X114718637Y-90392486D01*
X114763811Y-90266175D01*
X114783475Y-90133479D01*
X114776874Y-89999496D01*
X114744261Y-89869376D01*
X114718637Y-89807514D01*
X114596524Y-89783081D01*
X114279605Y-90100000D01*
X113920395Y-90100000D01*
X113603476Y-89783081D01*
X113500000Y-89803785D01*
X113396524Y-89783081D01*
X113079605Y-90100000D01*
X112720395Y-90100000D01*
X112403476Y-89783081D01*
X112281363Y-89807514D01*
X112236189Y-89933825D01*
X112216525Y-90066521D01*
X109537980Y-90066521D01*
X109606642Y-89997859D01*
X109692113Y-89869942D01*
X109750987Y-89727809D01*
X109781000Y-89576922D01*
X109781000Y-89423078D01*
X109750987Y-89272191D01*
X109748639Y-89266521D01*
X112216525Y-89266521D01*
X112223126Y-89400504D01*
X112255739Y-89530624D01*
X112281363Y-89592486D01*
X112403476Y-89616919D01*
X112416919Y-89603476D01*
X112583081Y-89603476D01*
X112679605Y-89700000D01*
X112583081Y-89796524D01*
X112607514Y-89918637D01*
X112733825Y-89963811D01*
X112866521Y-89983475D01*
X113000504Y-89976874D01*
X113130624Y-89944261D01*
X113192486Y-89918637D01*
X113216919Y-89796524D01*
X113120395Y-89700000D01*
X113216919Y-89603476D01*
X113192486Y-89481363D01*
X113066175Y-89436189D01*
X112933479Y-89416525D01*
X112799496Y-89423126D01*
X112669376Y-89455739D01*
X112607514Y-89481363D01*
X112583081Y-89603476D01*
X112416919Y-89603476D01*
X112720395Y-89300000D01*
X113079605Y-89300000D01*
X113396524Y-89616919D01*
X113500000Y-89596215D01*
X113603476Y-89616919D01*
X113616919Y-89603476D01*
X113783081Y-89603476D01*
X113879605Y-89700000D01*
X113783081Y-89796524D01*
X113807514Y-89918637D01*
X113933825Y-89963811D01*
X114066521Y-89983475D01*
X114200504Y-89976874D01*
X114330624Y-89944261D01*
X114392486Y-89918637D01*
X114416919Y-89796524D01*
X114320395Y-89700000D01*
X114416919Y-89603476D01*
X114392486Y-89481363D01*
X114266175Y-89436189D01*
X114133479Y-89416525D01*
X113999496Y-89423126D01*
X113869376Y-89455739D01*
X113807514Y-89481363D01*
X113783081Y-89603476D01*
X113616919Y-89603476D01*
X113920395Y-89300000D01*
X114279605Y-89300000D01*
X114596524Y-89616919D01*
X114718637Y-89592486D01*
X114763811Y-89466175D01*
X114783475Y-89333479D01*
X114776874Y-89199496D01*
X114744261Y-89069376D01*
X114718637Y-89007514D01*
X114596524Y-88983081D01*
X114279605Y-89300000D01*
X113920395Y-89300000D01*
X113603476Y-88983081D01*
X113500000Y-89003785D01*
X113396524Y-88983081D01*
X113079605Y-89300000D01*
X112720395Y-89300000D01*
X112403476Y-88983081D01*
X112281363Y-89007514D01*
X112236189Y-89133825D01*
X112216525Y-89266521D01*
X109748639Y-89266521D01*
X109692113Y-89130058D01*
X109606642Y-89002141D01*
X109506000Y-88901499D01*
X109506000Y-88803476D01*
X112583081Y-88803476D01*
X112900000Y-89120395D01*
X113216919Y-88803476D01*
X113783081Y-88803476D01*
X114100000Y-89120395D01*
X114416919Y-88803476D01*
X114392486Y-88681363D01*
X114266175Y-88636189D01*
X114133479Y-88616525D01*
X113999496Y-88623126D01*
X113869376Y-88655739D01*
X113807514Y-88681363D01*
X113783081Y-88803476D01*
X113216919Y-88803476D01*
X113192486Y-88681363D01*
X113066175Y-88636189D01*
X112933479Y-88616525D01*
X112799496Y-88623126D01*
X112669376Y-88655739D01*
X112607514Y-88681363D01*
X112583081Y-88803476D01*
X109506000Y-88803476D01*
X109506000Y-86209591D01*
X110709592Y-85006000D01*
X111217157Y-85006000D01*
X111217157Y-85350000D01*
X111224513Y-85424689D01*
X111246299Y-85496508D01*
X111281678Y-85562696D01*
X111329289Y-85620711D01*
X111387304Y-85668322D01*
X111453492Y-85703701D01*
X111525311Y-85725487D01*
X111600000Y-85732843D01*
X112500000Y-85732843D01*
X112574689Y-85725487D01*
X112646508Y-85703701D01*
X112712696Y-85668322D01*
X112770711Y-85620711D01*
X112818322Y-85562696D01*
X112853701Y-85496508D01*
X112875487Y-85424689D01*
X112882843Y-85350000D01*
X112882843Y-83650000D01*
X112875487Y-83575311D01*
X112853701Y-83503492D01*
X112818322Y-83437304D01*
X112812000Y-83429601D01*
X112812000Y-83070399D01*
X112818322Y-83062696D01*
X112853701Y-82996508D01*
X112875487Y-82924689D01*
X112882843Y-82850000D01*
X112882843Y-82586707D01*
X112898860Y-82567190D01*
X112993202Y-82390687D01*
X113051298Y-82199171D01*
X113070915Y-82000000D01*
X113051298Y-81800829D01*
X112993202Y-81609313D01*
X112898860Y-81432810D01*
X112882843Y-81413293D01*
X112882843Y-81150000D01*
X112875487Y-81075311D01*
X112853701Y-81003492D01*
X112818322Y-80937304D01*
X112812000Y-80929601D01*
X112812000Y-80570399D01*
X112818322Y-80562696D01*
X112853701Y-80496508D01*
X112875487Y-80424689D01*
X112882843Y-80350000D01*
X112882843Y-78650000D01*
X112875487Y-78575311D01*
X112853701Y-78503492D01*
X112818322Y-78437304D01*
X112770711Y-78379289D01*
X112712696Y-78331678D01*
X112646508Y-78296299D01*
X112574689Y-78274513D01*
X112500000Y-78267157D01*
X111600000Y-78267157D01*
X111525311Y-78274513D01*
X111453492Y-78296299D01*
X111387304Y-78331678D01*
X111329289Y-78379289D01*
X111281678Y-78437304D01*
X111246299Y-78503492D01*
X111224513Y-78575311D01*
X111217157Y-78650000D01*
X111217157Y-80350000D01*
X111224513Y-80424689D01*
X111246299Y-80496508D01*
X111281678Y-80562696D01*
X111288000Y-80570400D01*
X111288001Y-80929600D01*
X111281678Y-80937304D01*
X111256718Y-80984000D01*
X110420841Y-80984000D01*
X105753712Y-76316872D01*
X105721896Y-76278104D01*
X105567190Y-76151140D01*
X105390687Y-76056798D01*
X105199171Y-75998702D01*
X105049902Y-75984000D01*
X105000000Y-75979085D01*
X104950098Y-75984000D01*
X64420841Y-75984000D01*
X63436840Y-75000000D01*
X63790841Y-74646000D01*
X63844036Y-74646000D01*
X63875311Y-74655487D01*
X63950000Y-74662843D01*
X66050000Y-74662843D01*
X66124689Y-74655487D01*
X66155964Y-74646000D01*
X71344036Y-74646000D01*
X71375311Y-74655487D01*
X71450000Y-74662843D01*
X73550000Y-74662843D01*
X73624689Y-74655487D01*
X73655964Y-74646000D01*
X78604036Y-74646000D01*
X78635311Y-74655487D01*
X78710000Y-74662843D01*
X80810000Y-74662843D01*
X80884689Y-74655487D01*
X80915964Y-74646000D01*
X86344036Y-74646000D01*
X86375311Y-74655487D01*
X86450000Y-74662843D01*
X88550000Y-74662843D01*
X88624689Y-74655487D01*
X88655964Y-74646000D01*
X93844036Y-74646000D01*
X93875311Y-74655487D01*
X93950000Y-74662843D01*
X96050000Y-74662843D01*
X96124689Y-74655487D01*
X96155964Y-74646000D01*
X98767157Y-74646000D01*
X98767157Y-74850000D01*
X98774513Y-74924689D01*
X98796299Y-74996508D01*
X98831678Y-75062696D01*
X98879289Y-75120711D01*
X98937304Y-75168322D01*
X99003492Y-75203701D01*
X99075311Y-75225487D01*
X99150000Y-75232843D01*
X100850000Y-75232843D01*
X100924689Y-75225487D01*
X100996508Y-75203701D01*
X101062696Y-75168322D01*
X101120711Y-75120711D01*
X101168322Y-75062696D01*
X101203701Y-74996508D01*
X101225487Y-74924689D01*
X101232843Y-74850000D01*
X101232843Y-74646000D01*
X103844036Y-74646000D01*
X103875311Y-74655487D01*
X103950000Y-74662843D01*
X106050000Y-74662843D01*
X106124689Y-74655487D01*
X106155964Y-74646000D01*
X111344036Y-74646000D01*
X111375311Y-74655487D01*
X111450000Y-74662843D01*
X113550000Y-74662843D01*
X113624689Y-74655487D01*
X113655964Y-74646000D01*
X118844036Y-74646000D01*
X118875311Y-74655487D01*
X118950000Y-74662843D01*
X121050000Y-74662843D01*
X121124689Y-74655487D01*
X121155964Y-74646000D01*
X126344036Y-74646000D01*
X126375311Y-74655487D01*
X126450000Y-74662843D01*
X128550000Y-74662843D01*
X128624689Y-74655487D01*
X128655964Y-74646000D01*
X133844036Y-74646000D01*
X133875311Y-74655487D01*
X133950000Y-74662843D01*
X136050000Y-74662843D01*
X136124689Y-74655487D01*
X136196508Y-74633701D01*
X136262696Y-74598322D01*
X136320711Y-74550711D01*
X136368322Y-74492696D01*
X136403701Y-74426508D01*
X136425487Y-74354689D01*
X136432843Y-74280000D01*
X136432843Y-72980000D01*
X136425487Y-72905311D01*
X136403701Y-72833492D01*
X136368322Y-72767304D01*
X136333605Y-72725000D01*
X136368322Y-72682696D01*
X136403701Y-72616508D01*
X136425487Y-72544689D01*
X136432843Y-72470000D01*
X136432843Y-72386000D01*
X136899160Y-72386000D01*
X136984000Y-72470840D01*
X136984001Y-74579158D01*
X129980080Y-81583080D01*
X126939858Y-81583080D01*
X126890687Y-81556798D01*
X126699171Y-81498702D01*
X126549902Y-81484000D01*
X126549893Y-81484000D01*
X126499999Y-81479086D01*
X126450105Y-81484000D01*
X124549902Y-81484000D01*
X124500000Y-81479085D01*
X124450098Y-81484000D01*
X122549902Y-81484000D01*
X122500000Y-81479085D01*
X122450098Y-81484000D01*
X122300829Y-81498702D01*
X122109313Y-81556798D01*
X121932810Y-81651140D01*
X121778104Y-81778104D01*
X121651140Y-81932810D01*
X121556798Y-82109313D01*
X121498702Y-82300829D01*
X121479085Y-82500000D01*
X121498702Y-82699171D01*
X121556798Y-82890687D01*
X121651140Y-83067190D01*
X121778104Y-83221896D01*
X121816873Y-83253713D01*
X121845367Y-83282207D01*
X121877184Y-83320976D01*
X122031890Y-83447940D01*
X122208393Y-83542282D01*
X122399909Y-83600378D01*
X122549178Y-83615080D01*
X122549185Y-83615080D01*
X122599079Y-83619994D01*
X122648973Y-83615080D01*
X124450098Y-83615080D01*
X124500000Y-83619995D01*
X124549902Y-83615080D01*
X126351018Y-83615080D01*
X126400920Y-83619995D01*
X126450822Y-83615080D01*
X130351018Y-83615080D01*
X130400920Y-83619995D01*
X130450822Y-83615080D01*
X130600091Y-83600378D01*
X130791607Y-83542282D01*
X130968110Y-83447940D01*
X131122816Y-83320976D01*
X131154632Y-83282208D01*
X133164590Y-81272250D01*
X133869000Y-81272250D01*
X133869000Y-81537525D01*
X133883642Y-81611133D01*
X133912362Y-81680471D01*
X133954058Y-81742873D01*
X134007126Y-81795942D01*
X134069529Y-81837638D01*
X134138866Y-81866358D01*
X134212475Y-81881000D01*
X135277750Y-81881000D01*
X135373000Y-81785750D01*
X135373000Y-81177000D01*
X135627000Y-81177000D01*
X135627000Y-81785750D01*
X135722250Y-81881000D01*
X136787525Y-81881000D01*
X136861134Y-81866358D01*
X136930471Y-81837638D01*
X136992874Y-81795942D01*
X137045942Y-81742873D01*
X137087638Y-81680471D01*
X137116358Y-81611133D01*
X137131000Y-81537525D01*
X137131000Y-81272250D01*
X137035750Y-81177000D01*
X135627000Y-81177000D01*
X135373000Y-81177000D01*
X133964250Y-81177000D01*
X133869000Y-81272250D01*
X133164590Y-81272250D01*
X133869000Y-80567840D01*
X133869000Y-80827750D01*
X133964250Y-80923000D01*
X135373000Y-80923000D01*
X135373000Y-80314250D01*
X135627000Y-80314250D01*
X135627000Y-80923000D01*
X137035750Y-80923000D01*
X137131000Y-80827750D01*
X137131000Y-80562475D01*
X137116358Y-80488867D01*
X137087638Y-80419529D01*
X137045942Y-80357127D01*
X136992874Y-80304058D01*
X136930471Y-80262362D01*
X136861134Y-80233642D01*
X136787525Y-80219000D01*
X135722250Y-80219000D01*
X135627000Y-80314250D01*
X135373000Y-80314250D01*
X135277750Y-80219000D01*
X134217840Y-80219000D01*
X138683135Y-75753706D01*
X138721896Y-75721896D01*
X138848860Y-75567190D01*
X138943202Y-75390687D01*
X139001298Y-75199171D01*
X139016000Y-75049902D01*
X139016000Y-75049901D01*
X139020915Y-75000000D01*
X139016000Y-74950098D01*
X139016000Y-72099893D01*
X139020914Y-72049999D01*
X139016000Y-72000105D01*
X139016000Y-72000098D01*
X139001298Y-71850829D01*
X138943202Y-71659313D01*
X138848860Y-71482810D01*
X138756279Y-71370000D01*
X138848860Y-71257190D01*
X138943202Y-71080687D01*
X139001298Y-70889171D01*
X139016000Y-70739902D01*
X139016000Y-70739895D01*
X139020914Y-70690001D01*
X139016000Y-70640107D01*
X139016000Y-66272250D01*
X141619000Y-66272250D01*
X141619000Y-66537525D01*
X141633642Y-66611133D01*
X141662362Y-66680471D01*
X141704058Y-66742873D01*
X141757126Y-66795942D01*
X141819529Y-66837638D01*
X141888866Y-66866358D01*
X141962475Y-66881000D01*
X143027750Y-66881000D01*
X143123000Y-66785750D01*
X143123000Y-66177000D01*
X143377000Y-66177000D01*
X143377000Y-66785750D01*
X143472250Y-66881000D01*
X144537525Y-66881000D01*
X144611134Y-66866358D01*
X144680471Y-66837638D01*
X144742874Y-66795942D01*
X144795942Y-66742873D01*
X144837638Y-66680471D01*
X144866358Y-66611133D01*
X144881000Y-66537525D01*
X144881000Y-66272250D01*
X144785750Y-66177000D01*
X143377000Y-66177000D01*
X143123000Y-66177000D01*
X141714250Y-66177000D01*
X141619000Y-66272250D01*
X139016000Y-66272250D01*
X139016000Y-65562475D01*
X141619000Y-65562475D01*
X141619000Y-65827750D01*
X141714250Y-65923000D01*
X143123000Y-65923000D01*
X143123000Y-65314250D01*
X143377000Y-65314250D01*
X143377000Y-65923000D01*
X144785750Y-65923000D01*
X144881000Y-65827750D01*
X144881000Y-65562475D01*
X144866358Y-65488867D01*
X144837638Y-65419529D01*
X144795942Y-65357127D01*
X144742874Y-65304058D01*
X144680471Y-65262362D01*
X144611134Y-65233642D01*
X144537525Y-65219000D01*
X143472250Y-65219000D01*
X143377000Y-65314250D01*
X143123000Y-65314250D01*
X143027750Y-65219000D01*
X141962475Y-65219000D01*
X141888866Y-65233642D01*
X141819529Y-65262362D01*
X141757126Y-65304058D01*
X141704058Y-65357127D01*
X141662362Y-65419529D01*
X141633642Y-65488867D01*
X141619000Y-65562475D01*
X139016000Y-65562475D01*
X139016000Y-64222250D01*
X145219000Y-64222250D01*
X145219000Y-65037525D01*
X145233642Y-65111134D01*
X145262362Y-65180471D01*
X145304058Y-65242874D01*
X145357127Y-65295942D01*
X145419529Y-65337638D01*
X145488867Y-65366358D01*
X145562475Y-65381000D01*
X147277750Y-65381000D01*
X147373000Y-65285750D01*
X147373000Y-64127000D01*
X145314250Y-64127000D01*
X145219000Y-64222250D01*
X139016000Y-64222250D01*
X139016000Y-62962475D01*
X145219000Y-62962475D01*
X145219000Y-63777750D01*
X145314250Y-63873000D01*
X147373000Y-63873000D01*
X147373000Y-62714250D01*
X147277750Y-62619000D01*
X145562475Y-62619000D01*
X145488867Y-62633642D01*
X145419529Y-62662362D01*
X145357127Y-62704058D01*
X145304058Y-62757126D01*
X145262362Y-62819529D01*
X145233642Y-62888866D01*
X145219000Y-62962475D01*
X139016000Y-62962475D01*
X139016000Y-62099893D01*
X139020914Y-62049999D01*
X139016000Y-62000105D01*
X139016000Y-62000098D01*
X139001298Y-61850829D01*
X138943202Y-61659313D01*
X138848860Y-61482810D01*
X138721896Y-61328104D01*
X138683127Y-61296287D01*
X138073713Y-60686873D01*
X138041896Y-60648104D01*
X137887190Y-60521140D01*
X137710687Y-60426798D01*
X137519171Y-60368702D01*
X137369902Y-60354000D01*
X137320000Y-60349085D01*
X137270098Y-60354000D01*
X136432843Y-60354000D01*
X136432843Y-60270000D01*
X136425487Y-60195311D01*
X136403701Y-60123492D01*
X136368322Y-60057304D01*
X136320711Y-59999289D01*
X136262696Y-59951678D01*
X136196508Y-59916299D01*
X136124689Y-59894513D01*
X136050000Y-59887157D01*
X133950000Y-59887157D01*
X133875311Y-59894513D01*
X133803492Y-59916299D01*
X133737304Y-59951678D01*
X133679289Y-59999289D01*
X133631678Y-60057304D01*
X133596299Y-60123492D01*
X133574513Y-60195311D01*
X133567157Y-60270000D01*
X133567157Y-60354000D01*
X128932843Y-60354000D01*
X128932843Y-60270000D01*
X128925487Y-60195311D01*
X128903701Y-60123492D01*
X128868322Y-60057304D01*
X128820711Y-59999289D01*
X128762696Y-59951678D01*
X128696508Y-59916299D01*
X128624689Y-59894513D01*
X128550000Y-59887157D01*
X126450000Y-59887157D01*
X126375311Y-59894513D01*
X126303492Y-59916299D01*
X126237304Y-59951678D01*
X126179289Y-59999289D01*
X126131678Y-60057304D01*
X126096299Y-60123492D01*
X126074513Y-60195311D01*
X126067157Y-60270000D01*
X126067157Y-60354000D01*
X121432843Y-60354000D01*
X121432843Y-60270000D01*
X121425487Y-60195311D01*
X121403701Y-60123492D01*
X121368322Y-60057304D01*
X121320711Y-59999289D01*
X121262696Y-59951678D01*
X121196508Y-59916299D01*
X121124689Y-59894513D01*
X121050000Y-59887157D01*
X118950000Y-59887157D01*
X118875311Y-59894513D01*
X118803492Y-59916299D01*
X118737304Y-59951678D01*
X118679289Y-59999289D01*
X118631678Y-60057304D01*
X118596299Y-60123492D01*
X118574513Y-60195311D01*
X118567157Y-60270000D01*
X118567157Y-60354000D01*
X113932843Y-60354000D01*
X113932843Y-60270000D01*
X113925487Y-60195311D01*
X113903701Y-60123492D01*
X113868322Y-60057304D01*
X113820711Y-59999289D01*
X113762696Y-59951678D01*
X113696508Y-59916299D01*
X113624689Y-59894513D01*
X113550000Y-59887157D01*
X111450000Y-59887157D01*
X111375311Y-59894513D01*
X111303492Y-59916299D01*
X111237304Y-59951678D01*
X111179289Y-59999289D01*
X111131678Y-60057304D01*
X111096299Y-60123492D01*
X111074513Y-60195311D01*
X111067157Y-60270000D01*
X111067157Y-60354000D01*
X106432843Y-60354000D01*
X106432843Y-60270000D01*
X106425487Y-60195311D01*
X106403701Y-60123492D01*
X106368322Y-60057304D01*
X106320711Y-59999289D01*
X106262696Y-59951678D01*
X106196508Y-59916299D01*
X106124689Y-59894513D01*
X106050000Y-59887157D01*
X103950000Y-59887157D01*
X103875311Y-59894513D01*
X103803492Y-59916299D01*
X103737304Y-59951678D01*
X103679289Y-59999289D01*
X103631678Y-60057304D01*
X103596299Y-60123492D01*
X103574513Y-60195311D01*
X103567157Y-60270000D01*
X103567157Y-60354000D01*
X101232843Y-60354000D01*
X101232843Y-60100000D01*
X101225487Y-60025311D01*
X101203701Y-59953492D01*
X101168322Y-59887304D01*
X101120711Y-59829289D01*
X101062696Y-59781678D01*
X100996508Y-59746299D01*
X100924689Y-59724513D01*
X100850000Y-59717157D01*
X99150000Y-59717157D01*
X99075311Y-59724513D01*
X99003492Y-59746299D01*
X98937304Y-59781678D01*
X98879289Y-59829289D01*
X98831678Y-59887304D01*
X98796299Y-59953492D01*
X98774513Y-60025311D01*
X98767157Y-60100000D01*
X98767157Y-60354000D01*
X96432843Y-60354000D01*
X96432843Y-60270000D01*
X96425487Y-60195311D01*
X96403701Y-60123492D01*
X96368322Y-60057304D01*
X96320711Y-59999289D01*
X96262696Y-59951678D01*
X96196508Y-59916299D01*
X96124689Y-59894513D01*
X96050000Y-59887157D01*
X93950000Y-59887157D01*
X93875311Y-59894513D01*
X93803492Y-59916299D01*
X93737304Y-59951678D01*
X93679289Y-59999289D01*
X93631678Y-60057304D01*
X93596299Y-60123492D01*
X93574513Y-60195311D01*
X93567157Y-60270000D01*
X93567157Y-60354000D01*
X88932843Y-60354000D01*
X88932843Y-60270000D01*
X88925487Y-60195311D01*
X88903701Y-60123492D01*
X88868322Y-60057304D01*
X88820711Y-59999289D01*
X88762696Y-59951678D01*
X88696508Y-59916299D01*
X88624689Y-59894513D01*
X88550000Y-59887157D01*
X86450000Y-59887157D01*
X86375311Y-59894513D01*
X86303492Y-59916299D01*
X86237304Y-59951678D01*
X86179289Y-59999289D01*
X86131678Y-60057304D01*
X86096299Y-60123492D01*
X86074513Y-60195311D01*
X86067157Y-60270000D01*
X86067157Y-60354000D01*
X81432843Y-60354000D01*
X81432843Y-60270000D01*
X81425487Y-60195311D01*
X81403701Y-60123492D01*
X81368322Y-60057304D01*
X81320711Y-59999289D01*
X81262696Y-59951678D01*
X81196508Y-59916299D01*
X81124689Y-59894513D01*
X81050000Y-59887157D01*
X78950000Y-59887157D01*
X78875311Y-59894513D01*
X78803492Y-59916299D01*
X78737304Y-59951678D01*
X78679289Y-59999289D01*
X78631678Y-60057304D01*
X78596299Y-60123492D01*
X78574513Y-60195311D01*
X78567157Y-60270000D01*
X78567157Y-60354000D01*
X73932843Y-60354000D01*
X73932843Y-60270000D01*
X73925487Y-60195311D01*
X73903701Y-60123492D01*
X73868322Y-60057304D01*
X73820711Y-59999289D01*
X73762696Y-59951678D01*
X73696508Y-59916299D01*
X73624689Y-59894513D01*
X73550000Y-59887157D01*
X71450000Y-59887157D01*
X71375311Y-59894513D01*
X71303492Y-59916299D01*
X71237304Y-59951678D01*
X71179289Y-59999289D01*
X71131678Y-60057304D01*
X71096299Y-60123492D01*
X71074513Y-60195311D01*
X71067157Y-60270000D01*
X71067157Y-60354000D01*
X66432843Y-60354000D01*
X66432843Y-60270000D01*
X66425487Y-60195311D01*
X66403701Y-60123492D01*
X66368322Y-60057304D01*
X66320711Y-59999289D01*
X66262696Y-59951678D01*
X66196508Y-59916299D01*
X66124689Y-59894513D01*
X66050000Y-59887157D01*
X63950000Y-59887157D01*
X63875311Y-59894513D01*
X63803492Y-59916299D01*
X63737304Y-59951678D01*
X63679289Y-59999289D01*
X63631678Y-60057304D01*
X63596299Y-60123492D01*
X63574513Y-60195311D01*
X63567157Y-60270000D01*
X63567157Y-62470000D01*
X63574513Y-62544689D01*
X63595538Y-62614000D01*
X63419902Y-62614000D01*
X63370000Y-62609085D01*
X63320098Y-62614000D01*
X63170829Y-62628702D01*
X62979313Y-62686798D01*
X62802810Y-62781140D01*
X62648104Y-62908104D01*
X62616292Y-62946867D01*
X61316872Y-64246288D01*
X61278104Y-64278104D01*
X61151140Y-64432810D01*
X61056798Y-64609314D01*
X60998702Y-64800829D01*
X60998702Y-64800830D01*
X60979085Y-65000000D01*
X60984000Y-65049902D01*
X60984001Y-71937054D01*
X60979085Y-71986966D01*
X60984001Y-72036877D01*
X60984000Y-74950098D01*
X60979085Y-75000000D01*
X60984000Y-75049901D01*
X60998702Y-75199170D01*
X61056798Y-75390686D01*
X61151140Y-75567190D01*
X61278104Y-75721896D01*
X61316872Y-75753712D01*
X63246292Y-77683133D01*
X63278104Y-77721896D01*
X63432810Y-77848860D01*
X63609313Y-77943202D01*
X63800829Y-78001298D01*
X63999999Y-78020915D01*
X64049901Y-78016000D01*
X104579160Y-78016000D01*
X109246292Y-82683133D01*
X109278104Y-82721896D01*
X109432810Y-82848860D01*
X109609313Y-82943202D01*
X109800829Y-83001298D01*
X110000000Y-83020915D01*
X110049902Y-83016000D01*
X111256718Y-83016000D01*
X111281678Y-83062696D01*
X111288000Y-83070400D01*
X111288001Y-83429600D01*
X111281678Y-83437304D01*
X111246299Y-83503492D01*
X111224513Y-83575311D01*
X111217157Y-83650000D01*
X111217157Y-83994000D01*
X110524845Y-83994000D01*
X110499999Y-83991553D01*
X110475153Y-83994000D01*
X110475146Y-83994000D01*
X110414229Y-84000000D01*
X110400806Y-84001322D01*
X110378607Y-84008056D01*
X110305425Y-84030255D01*
X110217521Y-84077241D01*
X110140473Y-84140473D01*
X110124628Y-84159780D01*
X108676988Y-85607421D01*
X108606642Y-85502141D01*
X108497859Y-85393358D01*
X108369942Y-85307887D01*
X108227809Y-85249013D01*
X108076922Y-85219000D01*
X107934592Y-85219000D01*
X101375376Y-78659785D01*
X101359527Y-78640473D01*
X101282479Y-78577241D01*
X101194575Y-78530255D01*
X101099193Y-78501322D01*
X101024854Y-78494000D01*
X101024846Y-78494000D01*
X101000000Y-78491553D01*
X100975154Y-78494000D01*
X63209592Y-78494000D01*
X60506000Y-75790409D01*
X60506000Y-62209591D01*
X64209592Y-58506000D01*
X95975154Y-58506000D01*
X96000000Y-58508447D01*
X96024846Y-58506000D01*
X96024854Y-58506000D01*
X96099193Y-58498678D01*
X96194575Y-58469745D01*
X96282479Y-58422759D01*
X96359527Y-58359527D01*
X96375376Y-58340215D01*
X100340220Y-54375372D01*
X100359527Y-54359527D01*
X100422759Y-54282479D01*
X100469745Y-54194575D01*
X100498678Y-54099193D01*
X100506000Y-54024854D01*
X100506000Y-54024847D01*
X100508447Y-54000001D01*
X100506000Y-53975155D01*
X100506000Y-51035945D01*
X102319000Y-51035945D01*
X102319000Y-51564055D01*
X102422030Y-52082019D01*
X102624129Y-52569930D01*
X102917531Y-53009038D01*
X103290962Y-53382469D01*
X103730070Y-53675871D01*
X104217981Y-53877970D01*
X104735945Y-53981000D01*
X105264055Y-53981000D01*
X105782019Y-53877970D01*
X106269930Y-53675871D01*
X106709038Y-53382469D01*
X107082469Y-53009038D01*
X107375871Y-52569930D01*
X107577970Y-52082019D01*
X107681000Y-51564055D01*
X107681000Y-51035945D01*
X107577970Y-50517981D01*
X107375871Y-50030070D01*
X107082469Y-49590962D01*
X106709038Y-49217531D01*
X106269930Y-48924129D01*
X105782019Y-48722030D01*
X105264055Y-48619000D01*
X104735945Y-48619000D01*
X104217981Y-48722030D01*
X103730070Y-48924129D01*
X103290962Y-49217531D01*
X102917531Y-49590962D01*
X102624129Y-50030070D01*
X102422030Y-50517981D01*
X102319000Y-51035945D01*
X100506000Y-51035945D01*
X100506000Y-49176952D01*
X100606781Y-49135207D01*
X100816590Y-48995018D01*
X100883769Y-48927839D01*
X101751766Y-48927839D01*
X101849840Y-49110933D01*
X102079065Y-49216427D01*
X102324466Y-49275174D01*
X102576614Y-49284916D01*
X102825816Y-49245280D01*
X103062498Y-49157788D01*
X103150160Y-49110933D01*
X103248234Y-48927839D01*
X102500000Y-48179605D01*
X101751766Y-48927839D01*
X100883769Y-48927839D01*
X100995018Y-48816590D01*
X101135207Y-48606781D01*
X101231772Y-48373654D01*
X101248752Y-48288291D01*
X101254720Y-48325816D01*
X101342212Y-48562498D01*
X101389067Y-48650160D01*
X101572161Y-48748234D01*
X102320395Y-48000000D01*
X102679605Y-48000000D01*
X103427839Y-48748234D01*
X103610933Y-48650160D01*
X103716427Y-48420935D01*
X103775174Y-48175534D01*
X103784916Y-47923386D01*
X103745280Y-47674184D01*
X103657788Y-47437502D01*
X103610933Y-47349840D01*
X103427839Y-47251766D01*
X102679605Y-48000000D01*
X102320395Y-48000000D01*
X101572161Y-47251766D01*
X101389067Y-47349840D01*
X101283573Y-47579065D01*
X101250144Y-47718707D01*
X101231772Y-47626346D01*
X101135207Y-47393219D01*
X100995018Y-47183410D01*
X100883769Y-47072161D01*
X101751766Y-47072161D01*
X102500000Y-47820395D01*
X103248234Y-47072161D01*
X103150160Y-46889067D01*
X102920935Y-46783573D01*
X102675534Y-46724826D01*
X102423386Y-46715084D01*
X102174184Y-46754720D01*
X101937502Y-46842212D01*
X101849840Y-46889067D01*
X101751766Y-47072161D01*
X100883769Y-47072161D01*
X100816590Y-47004982D01*
X100606781Y-46864793D01*
X100373654Y-46768228D01*
X100126167Y-46719000D01*
X99873833Y-46719000D01*
X99626346Y-46768228D01*
X99393219Y-46864793D01*
X99183410Y-47004982D01*
X99004982Y-47183410D01*
X98864793Y-47393219D01*
X98768228Y-47626346D01*
X98750000Y-47717985D01*
X98731772Y-47626346D01*
X98635207Y-47393219D01*
X98495018Y-47183410D01*
X98316590Y-47004982D01*
X98106781Y-46864793D01*
X97873654Y-46768228D01*
X97626167Y-46719000D01*
X97373833Y-46719000D01*
X97126346Y-46768228D01*
X96893219Y-46864793D01*
X96683410Y-47004982D01*
X96504982Y-47183410D01*
X96364793Y-47393219D01*
X96268228Y-47626346D01*
X96219000Y-47873833D01*
X96219000Y-48126167D01*
X96268228Y-48373654D01*
X96364793Y-48606781D01*
X96504982Y-48816590D01*
X96683410Y-48995018D01*
X96893219Y-49135207D01*
X97126346Y-49231772D01*
X97373833Y-49281000D01*
X97626167Y-49281000D01*
X97873654Y-49231772D01*
X98106781Y-49135207D01*
X98316590Y-48995018D01*
X98495018Y-48816590D01*
X98635207Y-48606781D01*
X98731772Y-48373654D01*
X98750000Y-48282015D01*
X98768228Y-48373654D01*
X98864793Y-48606781D01*
X99004982Y-48816590D01*
X99183410Y-48995018D01*
X99393219Y-49135207D01*
X99494000Y-49176952D01*
X99494001Y-53790407D01*
X95790409Y-57494000D01*
X64024845Y-57494000D01*
X63999999Y-57491553D01*
X63975153Y-57494000D01*
X63975146Y-57494000D01*
X63910694Y-57500348D01*
X63900806Y-57501322D01*
X63805425Y-57530255D01*
X63717521Y-57577241D01*
X63640473Y-57640473D01*
X63624629Y-57659779D01*
X59659785Y-61624624D01*
X59640473Y-61640473D01*
X59577241Y-61717521D01*
X59530255Y-61805426D01*
X59501322Y-61900808D01*
X59494000Y-61975147D01*
X59494000Y-61975154D01*
X59491553Y-62000000D01*
X50456000Y-62000000D01*
X50456000Y-51035945D01*
X92319000Y-51035945D01*
X92319000Y-51564055D01*
X92422030Y-52082019D01*
X92624129Y-52569930D01*
X92917531Y-53009038D01*
X93290962Y-53382469D01*
X93730070Y-53675871D01*
X94217981Y-53877970D01*
X94735945Y-53981000D01*
X95264055Y-53981000D01*
X95782019Y-53877970D01*
X96269930Y-53675871D01*
X96709038Y-53382469D01*
X97082469Y-53009038D01*
X97375871Y-52569930D01*
X97577970Y-52082019D01*
X97681000Y-51564055D01*
X97681000Y-51035945D01*
X97577970Y-50517981D01*
X97375871Y-50030070D01*
X97082469Y-49590962D01*
X96709038Y-49217531D01*
X96269930Y-48924129D01*
X95782019Y-48722030D01*
X95264055Y-48619000D01*
X94735945Y-48619000D01*
X94217981Y-48722030D01*
X93730070Y-48924129D01*
X93290962Y-49217531D01*
X92917531Y-49590962D01*
X92624129Y-50030070D01*
X92422030Y-50517981D01*
X92319000Y-51035945D01*
X50456000Y-51035945D01*
X50456000Y-47724236D01*
X52724237Y-45456000D01*
X147275764Y-45456000D01*
X149544001Y-47724238D01*
X149544001Y-47724238D01*
G37*
X149544001Y-47724238D02*
X149544001Y-62647256D01*
X149511133Y-62633642D01*
X149437525Y-62619000D01*
X147722250Y-62619000D01*
X147627000Y-62714250D01*
X147627000Y-63873000D01*
X147647000Y-63873000D01*
X147647000Y-64127000D01*
X147627000Y-64127000D01*
X147627000Y-65285750D01*
X147722250Y-65381000D01*
X149437525Y-65381000D01*
X149511133Y-65366358D01*
X149544001Y-65352744D01*
X149544001Y-69645538D01*
X149474689Y-69624513D01*
X149400000Y-69617157D01*
X145600000Y-69617157D01*
X145525311Y-69624513D01*
X145453492Y-69646299D01*
X145387304Y-69681678D01*
X145329289Y-69729289D01*
X145281678Y-69787304D01*
X145246299Y-69853492D01*
X145224513Y-69925311D01*
X145218733Y-69984000D01*
X144379893Y-69984000D01*
X144329999Y-69979086D01*
X144280105Y-69984000D01*
X144280098Y-69984000D01*
X144161328Y-69995698D01*
X144012000Y-69846370D01*
X144012000Y-69782843D01*
X144500000Y-69782843D01*
X144574689Y-69775487D01*
X144646508Y-69753701D01*
X144712696Y-69718322D01*
X144770711Y-69670711D01*
X144818322Y-69612696D01*
X144853701Y-69546508D01*
X144875487Y-69474689D01*
X144882843Y-69400000D01*
X144882843Y-68500000D01*
X144875487Y-68425311D01*
X144853701Y-68353492D01*
X144818322Y-68287304D01*
X144770711Y-68229289D01*
X144712696Y-68181678D01*
X144646508Y-68146299D01*
X144574689Y-68124513D01*
X144500000Y-68117157D01*
X142000000Y-68117157D01*
X141925311Y-68124513D01*
X141853492Y-68146299D01*
X141787304Y-68181678D01*
X141729289Y-68229289D01*
X141681678Y-68287304D01*
X141646299Y-68353492D01*
X141624513Y-68425311D01*
X141617157Y-68500000D01*
X141617157Y-69400000D01*
X141624513Y-69474689D01*
X141646299Y-69546508D01*
X141681678Y-69612696D01*
X141729289Y-69670711D01*
X141787304Y-69718322D01*
X141853492Y-69753701D01*
X141925311Y-69775487D01*
X142000000Y-69782843D01*
X142488001Y-69782843D01*
X142488001Y-70124567D01*
X142484314Y-70162000D01*
X142499027Y-70311378D01*
X142542599Y-70455015D01*
X142613355Y-70587392D01*
X142678817Y-70667157D01*
X142708579Y-70703422D01*
X142737649Y-70727279D01*
X142951764Y-70941395D01*
X140816872Y-73076288D01*
X140778104Y-73108104D01*
X140651140Y-73262810D01*
X140556798Y-73439314D01*
X140522288Y-73553078D01*
X140498702Y-73630830D01*
X140479085Y-73830000D01*
X140484000Y-73879902D01*
X140484001Y-79930088D01*
X140479085Y-79980000D01*
X140498702Y-80179170D01*
X140524947Y-80265686D01*
X140556799Y-80370687D01*
X140651141Y-80547190D01*
X140778105Y-80701896D01*
X140816868Y-80733708D01*
X141484000Y-81400841D01*
X141484000Y-81867157D01*
X140750000Y-81867157D01*
X140675311Y-81874513D01*
X140603492Y-81896299D01*
X140537304Y-81931678D01*
X140479289Y-81979289D01*
X140431678Y-82037304D01*
X140396299Y-82103492D01*
X140374513Y-82175311D01*
X140367157Y-82250000D01*
X140367157Y-82984000D01*
X134049893Y-82984000D01*
X133999999Y-82979086D01*
X133950105Y-82984000D01*
X133950098Y-82984000D01*
X133800829Y-82998702D01*
X133609313Y-83056798D01*
X133432810Y-83151140D01*
X133278104Y-83278104D01*
X133246292Y-83316867D01*
X129729160Y-86834000D01*
X126032843Y-86834000D01*
X126032843Y-86600000D01*
X126025487Y-86525311D01*
X126003701Y-86453492D01*
X125968322Y-86387304D01*
X125920711Y-86329289D01*
X125862696Y-86281678D01*
X125796508Y-86246299D01*
X125724689Y-86224513D01*
X125650000Y-86217157D01*
X124403998Y-86217157D01*
X119766000Y-81579160D01*
X119766000Y-77799902D01*
X119770915Y-77750000D01*
X119751298Y-77550829D01*
X119693202Y-77359313D01*
X119598860Y-77182810D01*
X119471896Y-77028104D01*
X119433133Y-76996292D01*
X117683134Y-75246294D01*
X117567189Y-75151141D01*
X117390687Y-75056799D01*
X117199170Y-74998702D01*
X117000000Y-74979085D01*
X116800830Y-74998702D01*
X116609313Y-75056799D01*
X116432811Y-75151141D01*
X116278105Y-75278105D01*
X116151141Y-75432811D01*
X116056799Y-75609313D01*
X115998702Y-75800830D01*
X115979085Y-76000000D01*
X115998702Y-76199170D01*
X116056799Y-76390687D01*
X116151141Y-76567189D01*
X116246294Y-76683134D01*
X117734001Y-78170842D01*
X117734000Y-81238000D01*
X115782843Y-81238000D01*
X115782843Y-81150000D01*
X115775487Y-81075311D01*
X115753701Y-81003492D01*
X115718322Y-80937304D01*
X115712000Y-80929601D01*
X115712000Y-80570399D01*
X115718322Y-80562696D01*
X115753701Y-80496508D01*
X115775487Y-80424689D01*
X115782843Y-80350000D01*
X115782843Y-78650000D01*
X115775487Y-78575311D01*
X115753701Y-78503492D01*
X115718322Y-78437304D01*
X115670711Y-78379289D01*
X115612696Y-78331678D01*
X115546508Y-78296299D01*
X115474689Y-78274513D01*
X115400000Y-78267157D01*
X114500000Y-78267157D01*
X114425311Y-78274513D01*
X114353492Y-78296299D01*
X114287304Y-78331678D01*
X114229289Y-78379289D01*
X114181678Y-78437304D01*
X114146299Y-78503492D01*
X114124513Y-78575311D01*
X114117157Y-78650000D01*
X114117157Y-80350000D01*
X114124513Y-80424689D01*
X114146299Y-80496508D01*
X114181678Y-80562696D01*
X114188001Y-80570400D01*
X114188000Y-80929600D01*
X114181678Y-80937304D01*
X114146299Y-81003492D01*
X114124513Y-81075311D01*
X114117157Y-81150000D01*
X114117157Y-82850000D01*
X114124513Y-82924689D01*
X114146299Y-82996508D01*
X114181678Y-83062696D01*
X114188001Y-83070400D01*
X114188000Y-83429600D01*
X114181678Y-83437304D01*
X114146299Y-83503492D01*
X114124513Y-83575311D01*
X114117157Y-83650000D01*
X114117157Y-85350000D01*
X114124513Y-85424689D01*
X114146299Y-85496508D01*
X114181678Y-85562696D01*
X114229289Y-85620711D01*
X114287304Y-85668322D01*
X114353492Y-85703701D01*
X114425311Y-85725487D01*
X114500000Y-85732843D01*
X115400000Y-85732843D01*
X115474689Y-85725487D01*
X115546508Y-85703701D01*
X115612696Y-85668322D01*
X115670711Y-85620711D01*
X115718322Y-85562696D01*
X115753701Y-85496508D01*
X115775487Y-85424689D01*
X115782843Y-85350000D01*
X115782843Y-85006000D01*
X116290409Y-85006000D01*
X117299723Y-86015315D01*
X117281678Y-86037304D01*
X117246299Y-86103492D01*
X117224513Y-86175311D01*
X117217157Y-86250000D01*
X117217157Y-88750000D01*
X117224513Y-88824689D01*
X117246299Y-88896508D01*
X117281678Y-88962696D01*
X117329289Y-89020711D01*
X117362654Y-89048093D01*
X117307887Y-89130058D01*
X117249013Y-89272191D01*
X117219000Y-89423078D01*
X117219000Y-89576922D01*
X117249013Y-89727809D01*
X117307887Y-89869942D01*
X117393358Y-89997859D01*
X117502141Y-90106642D01*
X117630058Y-90192113D01*
X117772191Y-90250987D01*
X117923078Y-90281000D01*
X118076922Y-90281000D01*
X118227809Y-90250987D01*
X118297185Y-90222250D01*
X140369000Y-90222250D01*
X140369000Y-91787525D01*
X140383642Y-91861133D01*
X140412362Y-91930471D01*
X140454058Y-91992873D01*
X140507126Y-92045942D01*
X140569529Y-92087638D01*
X140638866Y-92116358D01*
X140712475Y-92131000D01*
X142277750Y-92131000D01*
X142373000Y-92035750D01*
X142373000Y-90127000D01*
X142627000Y-90127000D01*
X142627000Y-92035750D01*
X142722250Y-92131000D01*
X144287525Y-92131000D01*
X144361134Y-92116358D01*
X144430471Y-92087638D01*
X144492874Y-92045942D01*
X144545942Y-91992873D01*
X144587638Y-91930471D01*
X144616358Y-91861133D01*
X144631000Y-91787525D01*
X144631000Y-90222250D01*
X144535750Y-90127000D01*
X142627000Y-90127000D01*
X142373000Y-90127000D01*
X140464250Y-90127000D01*
X140369000Y-90222250D01*
X118297185Y-90222250D01*
X118369942Y-90192113D01*
X118497859Y-90106642D01*
X118606642Y-89997859D01*
X118692113Y-89869942D01*
X118750987Y-89727809D01*
X118781000Y-89576922D01*
X118781000Y-89423078D01*
X118750987Y-89272191D01*
X118692113Y-89130058D01*
X118667135Y-89092675D01*
X118712696Y-89068322D01*
X118770711Y-89020711D01*
X118818322Y-88962696D01*
X118853701Y-88896508D01*
X118875487Y-88824689D01*
X118882843Y-88750000D01*
X118882843Y-87722250D01*
X120119000Y-87722250D01*
X120119000Y-88787525D01*
X120133642Y-88861134D01*
X120162362Y-88930471D01*
X120204058Y-88992874D01*
X120257127Y-89045942D01*
X120319529Y-89087638D01*
X120388867Y-89116358D01*
X120462475Y-89131000D01*
X120727750Y-89131000D01*
X120823000Y-89035750D01*
X120823000Y-87627000D01*
X121077000Y-87627000D01*
X121077000Y-89035750D01*
X121172250Y-89131000D01*
X121437525Y-89131000D01*
X121511133Y-89116358D01*
X121580471Y-89087638D01*
X121642873Y-89045942D01*
X121695942Y-88992874D01*
X121737638Y-88930471D01*
X121766358Y-88861134D01*
X121781000Y-88787525D01*
X121781000Y-87722250D01*
X121685750Y-87627000D01*
X121077000Y-87627000D01*
X120823000Y-87627000D01*
X120214250Y-87627000D01*
X120119000Y-87722250D01*
X118882843Y-87722250D01*
X118882843Y-86250000D01*
X118879148Y-86212475D01*
X120119000Y-86212475D01*
X120119000Y-87277750D01*
X120214250Y-87373000D01*
X120823000Y-87373000D01*
X120823000Y-85964250D01*
X120727750Y-85869000D01*
X120462475Y-85869000D01*
X120388867Y-85883642D01*
X120319529Y-85912362D01*
X120257127Y-85954058D01*
X120204058Y-86007126D01*
X120162362Y-86069529D01*
X120133642Y-86138866D01*
X120119000Y-86212475D01*
X118879148Y-86212475D01*
X118875487Y-86175311D01*
X118853701Y-86103492D01*
X118818322Y-86037304D01*
X118770711Y-85979289D01*
X118712696Y-85931678D01*
X118646508Y-85896299D01*
X118574689Y-85874513D01*
X118500000Y-85867157D01*
X118488471Y-85867157D01*
X118469745Y-85805425D01*
X118422759Y-85717521D01*
X118359527Y-85640473D01*
X118340220Y-85624628D01*
X116875376Y-84159785D01*
X116859527Y-84140473D01*
X116782479Y-84077241D01*
X116694575Y-84030255D01*
X116599193Y-84001322D01*
X116524854Y-83994000D01*
X116524846Y-83994000D01*
X116500000Y-83991553D01*
X116475154Y-83994000D01*
X115782843Y-83994000D01*
X115782843Y-83650000D01*
X115775487Y-83575311D01*
X115753701Y-83503492D01*
X115718322Y-83437304D01*
X115712000Y-83429601D01*
X115712000Y-83070399D01*
X115718322Y-83062696D01*
X115753701Y-82996508D01*
X115775487Y-82924689D01*
X115782843Y-82850000D01*
X115782843Y-82762000D01*
X118075160Y-82762000D01*
X121182159Y-85869000D01*
X121172250Y-85869000D01*
X121077000Y-85964250D01*
X121077000Y-87373000D01*
X121685750Y-87373000D01*
X121781000Y-87277750D01*
X121781000Y-86467841D01*
X122967157Y-87653998D01*
X122967157Y-89100000D01*
X122974513Y-89174689D01*
X122996299Y-89246508D01*
X123031678Y-89312696D01*
X123079289Y-89370711D01*
X123137304Y-89418322D01*
X123203492Y-89453701D01*
X123275311Y-89475487D01*
X123350000Y-89482843D01*
X125650000Y-89482843D01*
X125724689Y-89475487D01*
X125796508Y-89453701D01*
X125862696Y-89418322D01*
X125920711Y-89370711D01*
X125968322Y-89312696D01*
X126003701Y-89246508D01*
X126025487Y-89174689D01*
X126032843Y-89100000D01*
X126032843Y-88866000D01*
X130100098Y-88866000D01*
X130150000Y-88870915D01*
X130199902Y-88866000D01*
X130349171Y-88851298D01*
X130540687Y-88793202D01*
X130717190Y-88698860D01*
X130871896Y-88571896D01*
X130903712Y-88533128D01*
X132214590Y-87222250D01*
X135669000Y-87222250D01*
X135669000Y-88787525D01*
X135683642Y-88861133D01*
X135712362Y-88930471D01*
X135754058Y-88992873D01*
X135807126Y-89045942D01*
X135869529Y-89087638D01*
X135938866Y-89116358D01*
X136012475Y-89131000D01*
X137577750Y-89131000D01*
X137673000Y-89035750D01*
X137673000Y-87127000D01*
X137927000Y-87127000D01*
X137927000Y-89035750D01*
X138022250Y-89131000D01*
X139587525Y-89131000D01*
X139661134Y-89116358D01*
X139730471Y-89087638D01*
X139792874Y-89045942D01*
X139845942Y-88992873D01*
X139887638Y-88930471D01*
X139916358Y-88861133D01*
X139931000Y-88787525D01*
X139931000Y-88212475D01*
X140369000Y-88212475D01*
X140369000Y-89777750D01*
X140464250Y-89873000D01*
X142373000Y-89873000D01*
X142373000Y-87964250D01*
X142627000Y-87964250D01*
X142627000Y-89873000D01*
X144535750Y-89873000D01*
X144631000Y-89777750D01*
X144631000Y-88212475D01*
X144616358Y-88138867D01*
X144587638Y-88069529D01*
X144545942Y-88007127D01*
X144492874Y-87954058D01*
X144430471Y-87912362D01*
X144361134Y-87883642D01*
X144287525Y-87869000D01*
X142722250Y-87869000D01*
X142627000Y-87964250D01*
X142373000Y-87964250D01*
X142277750Y-87869000D01*
X140712475Y-87869000D01*
X140638866Y-87883642D01*
X140569529Y-87912362D01*
X140507126Y-87954058D01*
X140454058Y-88007127D01*
X140412362Y-88069529D01*
X140383642Y-88138867D01*
X140369000Y-88212475D01*
X139931000Y-88212475D01*
X139931000Y-87222250D01*
X139835750Y-87127000D01*
X137927000Y-87127000D01*
X137673000Y-87127000D01*
X135764250Y-87127000D01*
X135669000Y-87222250D01*
X132214590Y-87222250D01*
X134420841Y-85016000D01*
X135748129Y-85016000D01*
X135712362Y-85069529D01*
X135683642Y-85138867D01*
X135669000Y-85212475D01*
X135669000Y-86777750D01*
X135764250Y-86873000D01*
X137673000Y-86873000D01*
X137673000Y-86853000D01*
X137927000Y-86853000D01*
X137927000Y-86873000D01*
X139835750Y-86873000D01*
X139931000Y-86777750D01*
X139931000Y-85212475D01*
X139916358Y-85138867D01*
X139887638Y-85069529D01*
X139851871Y-85016000D01*
X140367157Y-85016000D01*
X140367157Y-85750000D01*
X140374513Y-85824689D01*
X140396299Y-85896508D01*
X140431678Y-85962696D01*
X140479289Y-86020711D01*
X140537304Y-86068322D01*
X140603492Y-86103701D01*
X140675311Y-86125487D01*
X140750000Y-86132843D01*
X144250000Y-86132843D01*
X144324689Y-86125487D01*
X144396508Y-86103701D01*
X144462696Y-86068322D01*
X144520711Y-86020711D01*
X144568322Y-85962696D01*
X144603701Y-85896508D01*
X144625487Y-85824689D01*
X144632843Y-85750000D01*
X144632843Y-82250000D01*
X144625487Y-82175311D01*
X144603701Y-82103492D01*
X144568322Y-82037304D01*
X144520711Y-81979289D01*
X144462696Y-81931678D01*
X144396508Y-81896299D01*
X144324689Y-81874513D01*
X144250000Y-81867157D01*
X143516000Y-81867157D01*
X143516000Y-81029902D01*
X143520915Y-80980000D01*
X143501298Y-80780829D01*
X143443202Y-80589313D01*
X143348860Y-80412810D01*
X143221896Y-80258104D01*
X143183133Y-80226292D01*
X142516000Y-79559160D01*
X142516000Y-74250840D01*
X144750841Y-72016000D01*
X145218733Y-72016000D01*
X145224513Y-72074689D01*
X145246299Y-72146508D01*
X145281678Y-72212696D01*
X145329289Y-72270711D01*
X145387304Y-72318322D01*
X145453492Y-72353701D01*
X145525311Y-72375487D01*
X145600000Y-72382843D01*
X149400000Y-72382843D01*
X149474689Y-72375487D01*
X149544000Y-72354462D01*
X149544000Y-92275763D01*
X147275764Y-94544000D01*
X52724237Y-94544000D01*
X50456000Y-92275764D01*
X50456000Y-91222250D01*
X56769000Y-91222250D01*
X56769000Y-91887525D01*
X56783642Y-91961133D01*
X56812362Y-92030471D01*
X56854058Y-92092873D01*
X56907126Y-92145942D01*
X56969529Y-92187638D01*
X57038866Y-92216358D01*
X57112475Y-92231000D01*
X57777750Y-92231000D01*
X57873000Y-92135750D01*
X57873000Y-91127000D01*
X58127000Y-91127000D01*
X58127000Y-92135750D01*
X58222250Y-92231000D01*
X58887525Y-92231000D01*
X58961134Y-92216358D01*
X59030471Y-92187638D01*
X59092874Y-92145942D01*
X59145942Y-92092873D01*
X59187638Y-92030471D01*
X59216358Y-91961133D01*
X59231000Y-91887525D01*
X59231000Y-91222250D01*
X59135750Y-91127000D01*
X58127000Y-91127000D01*
X57873000Y-91127000D01*
X56864250Y-91127000D01*
X56769000Y-91222250D01*
X50456000Y-91222250D01*
X50456000Y-91000000D01*
X59303044Y-91000000D01*
X59326812Y-91241318D01*
X59397202Y-91473363D01*
X59511509Y-91687216D01*
X59665340Y-91874660D01*
X59852784Y-92028491D01*
X60066637Y-92142798D01*
X60298682Y-92213188D01*
X60479528Y-92231000D01*
X60600472Y-92231000D01*
X60781318Y-92213188D01*
X60836251Y-92196524D01*
X112583081Y-92196524D01*
X112607514Y-92318637D01*
X112733825Y-92363811D01*
X112866521Y-92383475D01*
X113000504Y-92376874D01*
X113130624Y-92344261D01*
X113192486Y-92318637D01*
X113216919Y-92196524D01*
X113783081Y-92196524D01*
X113807514Y-92318637D01*
X113933825Y-92363811D01*
X114066521Y-92383475D01*
X114200504Y-92376874D01*
X114330624Y-92344261D01*
X114392486Y-92318637D01*
X114416919Y-92196524D01*
X114100000Y-91879605D01*
X113783081Y-92196524D01*
X113216919Y-92196524D01*
X112900000Y-91879605D01*
X112583081Y-92196524D01*
X60836251Y-92196524D01*
X61013363Y-92142798D01*
X61227216Y-92028491D01*
X61414660Y-91874660D01*
X61568491Y-91687216D01*
X61579552Y-91666521D01*
X112216525Y-91666521D01*
X112223126Y-91800504D01*
X112255739Y-91930624D01*
X112281363Y-91992486D01*
X112403476Y-92016919D01*
X112720395Y-91700000D01*
X113079605Y-91700000D01*
X113396524Y-92016919D01*
X113500000Y-91996215D01*
X113603476Y-92016919D01*
X113920395Y-91700000D01*
X114279605Y-91700000D01*
X114596524Y-92016919D01*
X114681082Y-92000000D01*
X121479085Y-92000000D01*
X121498702Y-92199171D01*
X121556798Y-92390687D01*
X121651140Y-92567190D01*
X121778104Y-92721896D01*
X121816873Y-92753713D01*
X121896287Y-92833127D01*
X121928104Y-92871896D01*
X122082810Y-92998860D01*
X122259313Y-93093202D01*
X122450829Y-93151298D01*
X122600098Y-93166000D01*
X122649999Y-93170915D01*
X122699901Y-93166000D01*
X122967157Y-93166000D01*
X122967157Y-93400000D01*
X122974513Y-93474689D01*
X122996299Y-93546508D01*
X123031678Y-93612696D01*
X123079289Y-93670711D01*
X123137304Y-93718322D01*
X123203492Y-93753701D01*
X123275311Y-93775487D01*
X123350000Y-93782843D01*
X125650000Y-93782843D01*
X125724689Y-93775487D01*
X125796508Y-93753701D01*
X125862696Y-93718322D01*
X125920711Y-93670711D01*
X125968322Y-93612696D01*
X126003701Y-93546508D01*
X126025487Y-93474689D01*
X126032843Y-93400000D01*
X126032843Y-93166000D01*
X126300098Y-93166000D01*
X126350000Y-93170915D01*
X126399902Y-93166000D01*
X126549171Y-93151298D01*
X126740687Y-93093202D01*
X126917190Y-92998860D01*
X127071896Y-92871896D01*
X127103713Y-92833127D01*
X127183127Y-92753713D01*
X127221896Y-92721896D01*
X127348860Y-92567190D01*
X127443202Y-92390687D01*
X127501298Y-92199171D01*
X127520915Y-92000000D01*
X127501298Y-91800829D01*
X127443202Y-91609313D01*
X127348860Y-91432810D01*
X127221896Y-91278104D01*
X127067190Y-91151140D01*
X126890687Y-91056798D01*
X126699171Y-90998702D01*
X126549902Y-90984000D01*
X126549901Y-90984000D01*
X126499999Y-90979085D01*
X126450098Y-90984000D01*
X126032843Y-90984000D01*
X126032843Y-90900000D01*
X126025487Y-90825311D01*
X126003701Y-90753492D01*
X125968322Y-90687304D01*
X125920711Y-90629289D01*
X125862696Y-90581678D01*
X125796508Y-90546299D01*
X125724689Y-90524513D01*
X125650000Y-90517157D01*
X123350000Y-90517157D01*
X123275311Y-90524513D01*
X123203492Y-90546299D01*
X123137304Y-90581678D01*
X123079289Y-90629289D01*
X123031678Y-90687304D01*
X122996299Y-90753492D01*
X122974513Y-90825311D01*
X122967157Y-90900000D01*
X122967157Y-90984000D01*
X122549902Y-90984000D01*
X122500000Y-90979085D01*
X122450098Y-90984000D01*
X122300829Y-90998702D01*
X122109313Y-91056798D01*
X121932810Y-91151140D01*
X121778104Y-91278104D01*
X121651140Y-91432810D01*
X121556798Y-91609313D01*
X121498702Y-91800829D01*
X121479085Y-92000000D01*
X114681082Y-92000000D01*
X114718637Y-91992486D01*
X114763811Y-91866175D01*
X114783475Y-91733479D01*
X114776874Y-91599496D01*
X114744261Y-91469376D01*
X114718637Y-91407514D01*
X114596524Y-91383081D01*
X114279605Y-91700000D01*
X113920395Y-91700000D01*
X113603476Y-91383081D01*
X113500000Y-91403785D01*
X113396524Y-91383081D01*
X113079605Y-91700000D01*
X112720395Y-91700000D01*
X112403476Y-91383081D01*
X112281363Y-91407514D01*
X112236189Y-91533825D01*
X112216525Y-91666521D01*
X61579552Y-91666521D01*
X61682798Y-91473363D01*
X61753188Y-91241318D01*
X61776956Y-91000000D01*
X61763810Y-90866521D01*
X112216525Y-90866521D01*
X112223126Y-91000504D01*
X112255739Y-91130624D01*
X112281363Y-91192486D01*
X112403476Y-91216919D01*
X112416919Y-91203476D01*
X112583081Y-91203476D01*
X112679605Y-91300000D01*
X112583081Y-91396524D01*
X112607514Y-91518637D01*
X112733825Y-91563811D01*
X112866521Y-91583475D01*
X113000504Y-91576874D01*
X113130624Y-91544261D01*
X113192486Y-91518637D01*
X113216919Y-91396524D01*
X113120395Y-91300000D01*
X113216919Y-91203476D01*
X113192486Y-91081363D01*
X113066175Y-91036189D01*
X112933479Y-91016525D01*
X112799496Y-91023126D01*
X112669376Y-91055739D01*
X112607514Y-91081363D01*
X112583081Y-91203476D01*
X112416919Y-91203476D01*
X112720395Y-90900000D01*
X113079605Y-90900000D01*
X113396524Y-91216919D01*
X113500000Y-91196215D01*
X113603476Y-91216919D01*
X113616919Y-91203476D01*
X113783081Y-91203476D01*
X113879605Y-91300000D01*
X113783081Y-91396524D01*
X113807514Y-91518637D01*
X113933825Y-91563811D01*
X114066521Y-91583475D01*
X114200504Y-91576874D01*
X114330624Y-91544261D01*
X114392486Y-91518637D01*
X114416919Y-91396524D01*
X114320395Y-91300000D01*
X114416919Y-91203476D01*
X114392486Y-91081363D01*
X114266175Y-91036189D01*
X114133479Y-91016525D01*
X113999496Y-91023126D01*
X113869376Y-91055739D01*
X113807514Y-91081363D01*
X113783081Y-91203476D01*
X113616919Y-91203476D01*
X113920395Y-90900000D01*
X114279605Y-90900000D01*
X114596524Y-91216919D01*
X114718637Y-91192486D01*
X114763811Y-91066175D01*
X114783475Y-90933479D01*
X114776874Y-90799496D01*
X114744261Y-90669376D01*
X114718637Y-90607514D01*
X114596524Y-90583081D01*
X114279605Y-90900000D01*
X113920395Y-90900000D01*
X113603476Y-90583081D01*
X113500000Y-90603785D01*
X113396524Y-90583081D01*
X113079605Y-90900000D01*
X112720395Y-90900000D01*
X112403476Y-90583081D01*
X112281363Y-90607514D01*
X112236189Y-90733825D01*
X112216525Y-90866521D01*
X61763810Y-90866521D01*
X61753188Y-90758682D01*
X61682798Y-90526637D01*
X61568491Y-90312784D01*
X61414660Y-90125340D01*
X61227216Y-89971509D01*
X61013363Y-89857202D01*
X60781318Y-89786812D01*
X60600472Y-89769000D01*
X60479528Y-89769000D01*
X60298682Y-89786812D01*
X60066637Y-89857202D01*
X59852784Y-89971509D01*
X59665340Y-90125340D01*
X59511509Y-90312784D01*
X59397202Y-90526637D01*
X59326812Y-90758682D01*
X59303044Y-91000000D01*
X50456000Y-91000000D01*
X50456000Y-90112475D01*
X56769000Y-90112475D01*
X56769000Y-90777750D01*
X56864250Y-90873000D01*
X57873000Y-90873000D01*
X57873000Y-89864250D01*
X58127000Y-89864250D01*
X58127000Y-90873000D01*
X59135750Y-90873000D01*
X59231000Y-90777750D01*
X59231000Y-90112475D01*
X59216358Y-90038867D01*
X59187638Y-89969529D01*
X59145942Y-89907127D01*
X59092874Y-89854058D01*
X59030471Y-89812362D01*
X58961134Y-89783642D01*
X58887525Y-89769000D01*
X58222250Y-89769000D01*
X58127000Y-89864250D01*
X57873000Y-89864250D01*
X57777750Y-89769000D01*
X57112475Y-89769000D01*
X57038866Y-89783642D01*
X56969529Y-89812362D01*
X56907126Y-89854058D01*
X56854058Y-89907127D01*
X56812362Y-89969529D01*
X56783642Y-90038867D01*
X56769000Y-90112475D01*
X50456000Y-90112475D01*
X50456000Y-72354462D01*
X50525311Y-72375487D01*
X50600000Y-72382843D01*
X54400000Y-72382843D01*
X54474689Y-72375487D01*
X54546508Y-72353701D01*
X54612696Y-72318322D01*
X54670711Y-72270711D01*
X54718322Y-72212696D01*
X54753701Y-72146508D01*
X54775487Y-72074689D01*
X54781267Y-72016000D01*
X57049902Y-72016000D01*
X57199171Y-72001298D01*
X57390687Y-71943202D01*
X57567190Y-71848860D01*
X57721896Y-71721896D01*
X57848860Y-71567190D01*
X57943202Y-71390687D01*
X58001298Y-71199171D01*
X58020915Y-71000000D01*
X58001298Y-70800829D01*
X57943202Y-70609313D01*
X57848860Y-70432810D01*
X57721896Y-70278104D01*
X57567190Y-70151140D01*
X57512000Y-70121641D01*
X57512000Y-69782843D01*
X58000000Y-69782843D01*
X58074689Y-69775487D01*
X58146508Y-69753701D01*
X58212696Y-69718322D01*
X58270711Y-69670711D01*
X58318322Y-69612696D01*
X58353701Y-69546508D01*
X58375487Y-69474689D01*
X58382843Y-69400000D01*
X58382843Y-68500000D01*
X58375487Y-68425311D01*
X58353701Y-68353492D01*
X58318322Y-68287304D01*
X58270711Y-68229289D01*
X58212696Y-68181678D01*
X58146508Y-68146299D01*
X58074689Y-68124513D01*
X58000000Y-68117157D01*
X55500000Y-68117157D01*
X55425311Y-68124513D01*
X55353492Y-68146299D01*
X55287304Y-68181678D01*
X55229289Y-68229289D01*
X55181678Y-68287304D01*
X55146299Y-68353492D01*
X55124513Y-68425311D01*
X55117157Y-68500000D01*
X55117157Y-69400000D01*
X55124513Y-69474689D01*
X55146299Y-69546508D01*
X55181678Y-69612696D01*
X55229289Y-69670711D01*
X55287304Y-69718322D01*
X55353492Y-69753701D01*
X55425311Y-69775487D01*
X55500000Y-69782843D01*
X55988001Y-69782843D01*
X55988001Y-69846369D01*
X55850369Y-69984000D01*
X54781267Y-69984000D01*
X54775487Y-69925311D01*
X54753701Y-69853492D01*
X54718322Y-69787304D01*
X54670711Y-69729289D01*
X54612696Y-69681678D01*
X54546508Y-69646299D01*
X54474689Y-69624513D01*
X54400000Y-69617157D01*
X50600000Y-69617157D01*
X50525311Y-69624513D01*
X50456000Y-69645538D01*
X50456000Y-66272250D01*
X55119000Y-66272250D01*
X55119000Y-66537525D01*
X55133642Y-66611133D01*
X55162362Y-66680471D01*
X55204058Y-66742873D01*
X55257126Y-66795942D01*
X55319529Y-66837638D01*
X55388866Y-66866358D01*
X55462475Y-66881000D01*
X56527750Y-66881000D01*
X56623000Y-66785750D01*
X56623000Y-66177000D01*
X56877000Y-66177000D01*
X56877000Y-66785750D01*
X56972250Y-66881000D01*
X58037525Y-66881000D01*
X58111134Y-66866358D01*
X58180471Y-66837638D01*
X58242874Y-66795942D01*
X58295942Y-66742873D01*
X58337638Y-66680471D01*
X58366358Y-66611133D01*
X58381000Y-66537525D01*
X58381000Y-66272250D01*
X58285750Y-66177000D01*
X56877000Y-66177000D01*
X56623000Y-66177000D01*
X55214250Y-66177000D01*
X55119000Y-66272250D01*
X50456000Y-66272250D01*
X50456000Y-65562475D01*
X55119000Y-65562475D01*
X55119000Y-65827750D01*
X55214250Y-65923000D01*
X56623000Y-65923000D01*
X56623000Y-65314250D01*
X56877000Y-65314250D01*
X56877000Y-65923000D01*
X58285750Y-65923000D01*
X58381000Y-65827750D01*
X58381000Y-65562475D01*
X58366358Y-65488867D01*
X58337638Y-65419529D01*
X58295942Y-65357127D01*
X58242874Y-65304058D01*
X58180471Y-65262362D01*
X58111134Y-65233642D01*
X58037525Y-65219000D01*
X56972250Y-65219000D01*
X56877000Y-65314250D01*
X56623000Y-65314250D01*
X56527750Y-65219000D01*
X55462475Y-65219000D01*
X55388866Y-65233642D01*
X55319529Y-65262362D01*
X55257126Y-65304058D01*
X55204058Y-65357127D01*
X55162362Y-65419529D01*
X55133642Y-65488867D01*
X55119000Y-65562475D01*
X50456000Y-65562475D01*
X50456000Y-65352744D01*
X50488867Y-65366358D01*
X50562475Y-65381000D01*
X52277750Y-65381000D01*
X52373000Y-65285750D01*
X52373000Y-64127000D01*
X52627000Y-64127000D01*
X52627000Y-65285750D01*
X52722250Y-65381000D01*
X54437525Y-65381000D01*
X54511133Y-65366358D01*
X54580471Y-65337638D01*
X54642873Y-65295942D01*
X54695942Y-65242874D01*
X54737638Y-65180471D01*
X54766358Y-65111134D01*
X54781000Y-65037525D01*
X54781000Y-64222250D01*
X54685750Y-64127000D01*
X52627000Y-64127000D01*
X52373000Y-64127000D01*
X52353000Y-64127000D01*
X52353000Y-63873000D01*
X52373000Y-63873000D01*
X52373000Y-62714250D01*
X52627000Y-62714250D01*
X52627000Y-63873000D01*
X54685750Y-63873000D01*
X54781000Y-63777750D01*
X54781000Y-62962475D01*
X54766358Y-62888866D01*
X54737638Y-62819529D01*
X54695942Y-62757126D01*
X54642873Y-62704058D01*
X54580471Y-62662362D01*
X54511133Y-62633642D01*
X54437525Y-62619000D01*
X52722250Y-62619000D01*
X52627000Y-62714250D01*
X52373000Y-62714250D01*
X52277750Y-62619000D01*
X50562475Y-62619000D01*
X50488867Y-62633642D01*
X50456000Y-62647256D01*
X50456000Y-62000000D01*
X59491553Y-62000000D01*
X59494000Y-62024846D01*
X59494001Y-75975144D01*
X59491553Y-76000000D01*
X59501322Y-76099192D01*
X59530255Y-76194574D01*
X59530256Y-76194575D01*
X59577242Y-76282479D01*
X59640474Y-76359527D01*
X59659781Y-76375372D01*
X62624628Y-79340220D01*
X62640473Y-79359527D01*
X62717521Y-79422759D01*
X62792009Y-79462574D01*
X62805425Y-79469745D01*
X62900807Y-79498678D01*
X63000000Y-79508448D01*
X63024854Y-79506000D01*
X100790409Y-79506000D01*
X107219000Y-85934592D01*
X107219000Y-86076922D01*
X107249013Y-86227809D01*
X107307887Y-86369942D01*
X107393358Y-86497859D01*
X107502141Y-86606642D01*
X107630058Y-86692113D01*
X107772191Y-86750987D01*
X107923078Y-86781000D01*
X108076922Y-86781000D01*
X108227809Y-86750987D01*
X108369942Y-86692113D01*
X108494001Y-86609220D01*
X108494000Y-88901499D01*
X108393358Y-89002141D01*
X108307887Y-89130058D01*
X108249013Y-89272191D01*
X108219000Y-89423078D01*
X108219000Y-89576922D01*
X108249013Y-89727809D01*
X108307887Y-89869942D01*
X108393358Y-89997859D01*
X108502141Y-90106642D01*
X108630058Y-90192113D01*
X108772191Y-90250987D01*
X108923078Y-90281000D01*
X109076922Y-90281000D01*
X109227809Y-90250987D01*
X109369942Y-90192113D01*
X109497859Y-90106642D01*
X109537980Y-90066521D01*
X112216525Y-90066521D01*
X112223126Y-90200504D01*
X112255739Y-90330624D01*
X112281363Y-90392486D01*
X112403476Y-90416919D01*
X112416919Y-90403476D01*
X112583081Y-90403476D01*
X112679605Y-90500000D01*
X112583081Y-90596524D01*
X112607514Y-90718637D01*
X112733825Y-90763811D01*
X112866521Y-90783475D01*
X113000504Y-90776874D01*
X113130624Y-90744261D01*
X113192486Y-90718637D01*
X113216919Y-90596524D01*
X113120395Y-90500000D01*
X113216919Y-90403476D01*
X113192486Y-90281363D01*
X113066175Y-90236189D01*
X112933479Y-90216525D01*
X112799496Y-90223126D01*
X112669376Y-90255739D01*
X112607514Y-90281363D01*
X112583081Y-90403476D01*
X112416919Y-90403476D01*
X112720395Y-90100000D01*
X113079605Y-90100000D01*
X113396524Y-90416919D01*
X113500000Y-90396215D01*
X113603476Y-90416919D01*
X113616919Y-90403476D01*
X113783081Y-90403476D01*
X113879605Y-90500000D01*
X113783081Y-90596524D01*
X113807514Y-90718637D01*
X113933825Y-90763811D01*
X114066521Y-90783475D01*
X114200504Y-90776874D01*
X114330624Y-90744261D01*
X114392486Y-90718637D01*
X114416919Y-90596524D01*
X114320395Y-90500000D01*
X114416919Y-90403476D01*
X114392486Y-90281363D01*
X114266175Y-90236189D01*
X114133479Y-90216525D01*
X113999496Y-90223126D01*
X113869376Y-90255739D01*
X113807514Y-90281363D01*
X113783081Y-90403476D01*
X113616919Y-90403476D01*
X113920395Y-90100000D01*
X114279605Y-90100000D01*
X114596524Y-90416919D01*
X114718637Y-90392486D01*
X114763811Y-90266175D01*
X114783475Y-90133479D01*
X114776874Y-89999496D01*
X114744261Y-89869376D01*
X114718637Y-89807514D01*
X114596524Y-89783081D01*
X114279605Y-90100000D01*
X113920395Y-90100000D01*
X113603476Y-89783081D01*
X113500000Y-89803785D01*
X113396524Y-89783081D01*
X113079605Y-90100000D01*
X112720395Y-90100000D01*
X112403476Y-89783081D01*
X112281363Y-89807514D01*
X112236189Y-89933825D01*
X112216525Y-90066521D01*
X109537980Y-90066521D01*
X109606642Y-89997859D01*
X109692113Y-89869942D01*
X109750987Y-89727809D01*
X109781000Y-89576922D01*
X109781000Y-89423078D01*
X109750987Y-89272191D01*
X109748639Y-89266521D01*
X112216525Y-89266521D01*
X112223126Y-89400504D01*
X112255739Y-89530624D01*
X112281363Y-89592486D01*
X112403476Y-89616919D01*
X112416919Y-89603476D01*
X112583081Y-89603476D01*
X112679605Y-89700000D01*
X112583081Y-89796524D01*
X112607514Y-89918637D01*
X112733825Y-89963811D01*
X112866521Y-89983475D01*
X113000504Y-89976874D01*
X113130624Y-89944261D01*
X113192486Y-89918637D01*
X113216919Y-89796524D01*
X113120395Y-89700000D01*
X113216919Y-89603476D01*
X113192486Y-89481363D01*
X113066175Y-89436189D01*
X112933479Y-89416525D01*
X112799496Y-89423126D01*
X112669376Y-89455739D01*
X112607514Y-89481363D01*
X112583081Y-89603476D01*
X112416919Y-89603476D01*
X112720395Y-89300000D01*
X113079605Y-89300000D01*
X113396524Y-89616919D01*
X113500000Y-89596215D01*
X113603476Y-89616919D01*
X113616919Y-89603476D01*
X113783081Y-89603476D01*
X113879605Y-89700000D01*
X113783081Y-89796524D01*
X113807514Y-89918637D01*
X113933825Y-89963811D01*
X114066521Y-89983475D01*
X114200504Y-89976874D01*
X114330624Y-89944261D01*
X114392486Y-89918637D01*
X114416919Y-89796524D01*
X114320395Y-89700000D01*
X114416919Y-89603476D01*
X114392486Y-89481363D01*
X114266175Y-89436189D01*
X114133479Y-89416525D01*
X113999496Y-89423126D01*
X113869376Y-89455739D01*
X113807514Y-89481363D01*
X113783081Y-89603476D01*
X113616919Y-89603476D01*
X113920395Y-89300000D01*
X114279605Y-89300000D01*
X114596524Y-89616919D01*
X114718637Y-89592486D01*
X114763811Y-89466175D01*
X114783475Y-89333479D01*
X114776874Y-89199496D01*
X114744261Y-89069376D01*
X114718637Y-89007514D01*
X114596524Y-88983081D01*
X114279605Y-89300000D01*
X113920395Y-89300000D01*
X113603476Y-88983081D01*
X113500000Y-89003785D01*
X113396524Y-88983081D01*
X113079605Y-89300000D01*
X112720395Y-89300000D01*
X112403476Y-88983081D01*
X112281363Y-89007514D01*
X112236189Y-89133825D01*
X112216525Y-89266521D01*
X109748639Y-89266521D01*
X109692113Y-89130058D01*
X109606642Y-89002141D01*
X109506000Y-88901499D01*
X109506000Y-88803476D01*
X112583081Y-88803476D01*
X112900000Y-89120395D01*
X113216919Y-88803476D01*
X113783081Y-88803476D01*
X114100000Y-89120395D01*
X114416919Y-88803476D01*
X114392486Y-88681363D01*
X114266175Y-88636189D01*
X114133479Y-88616525D01*
X113999496Y-88623126D01*
X113869376Y-88655739D01*
X113807514Y-88681363D01*
X113783081Y-88803476D01*
X113216919Y-88803476D01*
X113192486Y-88681363D01*
X113066175Y-88636189D01*
X112933479Y-88616525D01*
X112799496Y-88623126D01*
X112669376Y-88655739D01*
X112607514Y-88681363D01*
X112583081Y-88803476D01*
X109506000Y-88803476D01*
X109506000Y-86209591D01*
X110709592Y-85006000D01*
X111217157Y-85006000D01*
X111217157Y-85350000D01*
X111224513Y-85424689D01*
X111246299Y-85496508D01*
X111281678Y-85562696D01*
X111329289Y-85620711D01*
X111387304Y-85668322D01*
X111453492Y-85703701D01*
X111525311Y-85725487D01*
X111600000Y-85732843D01*
X112500000Y-85732843D01*
X112574689Y-85725487D01*
X112646508Y-85703701D01*
X112712696Y-85668322D01*
X112770711Y-85620711D01*
X112818322Y-85562696D01*
X112853701Y-85496508D01*
X112875487Y-85424689D01*
X112882843Y-85350000D01*
X112882843Y-83650000D01*
X112875487Y-83575311D01*
X112853701Y-83503492D01*
X112818322Y-83437304D01*
X112812000Y-83429601D01*
X112812000Y-83070399D01*
X112818322Y-83062696D01*
X112853701Y-82996508D01*
X112875487Y-82924689D01*
X112882843Y-82850000D01*
X112882843Y-82586707D01*
X112898860Y-82567190D01*
X112993202Y-82390687D01*
X113051298Y-82199171D01*
X113070915Y-82000000D01*
X113051298Y-81800829D01*
X112993202Y-81609313D01*
X112898860Y-81432810D01*
X112882843Y-81413293D01*
X112882843Y-81150000D01*
X112875487Y-81075311D01*
X112853701Y-81003492D01*
X112818322Y-80937304D01*
X112812000Y-80929601D01*
X112812000Y-80570399D01*
X112818322Y-80562696D01*
X112853701Y-80496508D01*
X112875487Y-80424689D01*
X112882843Y-80350000D01*
X112882843Y-78650000D01*
X112875487Y-78575311D01*
X112853701Y-78503492D01*
X112818322Y-78437304D01*
X112770711Y-78379289D01*
X112712696Y-78331678D01*
X112646508Y-78296299D01*
X112574689Y-78274513D01*
X112500000Y-78267157D01*
X111600000Y-78267157D01*
X111525311Y-78274513D01*
X111453492Y-78296299D01*
X111387304Y-78331678D01*
X111329289Y-78379289D01*
X111281678Y-78437304D01*
X111246299Y-78503492D01*
X111224513Y-78575311D01*
X111217157Y-78650000D01*
X111217157Y-80350000D01*
X111224513Y-80424689D01*
X111246299Y-80496508D01*
X111281678Y-80562696D01*
X111288000Y-80570400D01*
X111288001Y-80929600D01*
X111281678Y-80937304D01*
X111256718Y-80984000D01*
X110420841Y-80984000D01*
X105753712Y-76316872D01*
X105721896Y-76278104D01*
X105567190Y-76151140D01*
X105390687Y-76056798D01*
X105199171Y-75998702D01*
X105049902Y-75984000D01*
X105000000Y-75979085D01*
X104950098Y-75984000D01*
X64420841Y-75984000D01*
X63436840Y-75000000D01*
X63790841Y-74646000D01*
X63844036Y-74646000D01*
X63875311Y-74655487D01*
X63950000Y-74662843D01*
X66050000Y-74662843D01*
X66124689Y-74655487D01*
X66155964Y-74646000D01*
X71344036Y-74646000D01*
X71375311Y-74655487D01*
X71450000Y-74662843D01*
X73550000Y-74662843D01*
X73624689Y-74655487D01*
X73655964Y-74646000D01*
X78604036Y-74646000D01*
X78635311Y-74655487D01*
X78710000Y-74662843D01*
X80810000Y-74662843D01*
X80884689Y-74655487D01*
X80915964Y-74646000D01*
X86344036Y-74646000D01*
X86375311Y-74655487D01*
X86450000Y-74662843D01*
X88550000Y-74662843D01*
X88624689Y-74655487D01*
X88655964Y-74646000D01*
X93844036Y-74646000D01*
X93875311Y-74655487D01*
X93950000Y-74662843D01*
X96050000Y-74662843D01*
X96124689Y-74655487D01*
X96155964Y-74646000D01*
X98767157Y-74646000D01*
X98767157Y-74850000D01*
X98774513Y-74924689D01*
X98796299Y-74996508D01*
X98831678Y-75062696D01*
X98879289Y-75120711D01*
X98937304Y-75168322D01*
X99003492Y-75203701D01*
X99075311Y-75225487D01*
X99150000Y-75232843D01*
X100850000Y-75232843D01*
X100924689Y-75225487D01*
X100996508Y-75203701D01*
X101062696Y-75168322D01*
X101120711Y-75120711D01*
X101168322Y-75062696D01*
X101203701Y-74996508D01*
X101225487Y-74924689D01*
X101232843Y-74850000D01*
X101232843Y-74646000D01*
X103844036Y-74646000D01*
X103875311Y-74655487D01*
X103950000Y-74662843D01*
X106050000Y-74662843D01*
X106124689Y-74655487D01*
X106155964Y-74646000D01*
X111344036Y-74646000D01*
X111375311Y-74655487D01*
X111450000Y-74662843D01*
X113550000Y-74662843D01*
X113624689Y-74655487D01*
X113655964Y-74646000D01*
X118844036Y-74646000D01*
X118875311Y-74655487D01*
X118950000Y-74662843D01*
X121050000Y-74662843D01*
X121124689Y-74655487D01*
X121155964Y-74646000D01*
X126344036Y-74646000D01*
X126375311Y-74655487D01*
X126450000Y-74662843D01*
X128550000Y-74662843D01*
X128624689Y-74655487D01*
X128655964Y-74646000D01*
X133844036Y-74646000D01*
X133875311Y-74655487D01*
X133950000Y-74662843D01*
X136050000Y-74662843D01*
X136124689Y-74655487D01*
X136196508Y-74633701D01*
X136262696Y-74598322D01*
X136320711Y-74550711D01*
X136368322Y-74492696D01*
X136403701Y-74426508D01*
X136425487Y-74354689D01*
X136432843Y-74280000D01*
X136432843Y-72980000D01*
X136425487Y-72905311D01*
X136403701Y-72833492D01*
X136368322Y-72767304D01*
X136333605Y-72725000D01*
X136368322Y-72682696D01*
X136403701Y-72616508D01*
X136425487Y-72544689D01*
X136432843Y-72470000D01*
X136432843Y-72386000D01*
X136899160Y-72386000D01*
X136984000Y-72470840D01*
X136984001Y-74579158D01*
X129980080Y-81583080D01*
X126939858Y-81583080D01*
X126890687Y-81556798D01*
X126699171Y-81498702D01*
X126549902Y-81484000D01*
X126549893Y-81484000D01*
X126499999Y-81479086D01*
X126450105Y-81484000D01*
X124549902Y-81484000D01*
X124500000Y-81479085D01*
X124450098Y-81484000D01*
X122549902Y-81484000D01*
X122500000Y-81479085D01*
X122450098Y-81484000D01*
X122300829Y-81498702D01*
X122109313Y-81556798D01*
X121932810Y-81651140D01*
X121778104Y-81778104D01*
X121651140Y-81932810D01*
X121556798Y-82109313D01*
X121498702Y-82300829D01*
X121479085Y-82500000D01*
X121498702Y-82699171D01*
X121556798Y-82890687D01*
X121651140Y-83067190D01*
X121778104Y-83221896D01*
X121816873Y-83253713D01*
X121845367Y-83282207D01*
X121877184Y-83320976D01*
X122031890Y-83447940D01*
X122208393Y-83542282D01*
X122399909Y-83600378D01*
X122549178Y-83615080D01*
X122549185Y-83615080D01*
X122599079Y-83619994D01*
X122648973Y-83615080D01*
X124450098Y-83615080D01*
X124500000Y-83619995D01*
X124549902Y-83615080D01*
X126351018Y-83615080D01*
X126400920Y-83619995D01*
X126450822Y-83615080D01*
X130351018Y-83615080D01*
X130400920Y-83619995D01*
X130450822Y-83615080D01*
X130600091Y-83600378D01*
X130791607Y-83542282D01*
X130968110Y-83447940D01*
X131122816Y-83320976D01*
X131154632Y-83282208D01*
X133164590Y-81272250D01*
X133869000Y-81272250D01*
X133869000Y-81537525D01*
X133883642Y-81611133D01*
X133912362Y-81680471D01*
X133954058Y-81742873D01*
X134007126Y-81795942D01*
X134069529Y-81837638D01*
X134138866Y-81866358D01*
X134212475Y-81881000D01*
X135277750Y-81881000D01*
X135373000Y-81785750D01*
X135373000Y-81177000D01*
X135627000Y-81177000D01*
X135627000Y-81785750D01*
X135722250Y-81881000D01*
X136787525Y-81881000D01*
X136861134Y-81866358D01*
X136930471Y-81837638D01*
X136992874Y-81795942D01*
X137045942Y-81742873D01*
X137087638Y-81680471D01*
X137116358Y-81611133D01*
X137131000Y-81537525D01*
X137131000Y-81272250D01*
X137035750Y-81177000D01*
X135627000Y-81177000D01*
X135373000Y-81177000D01*
X133964250Y-81177000D01*
X133869000Y-81272250D01*
X133164590Y-81272250D01*
X133869000Y-80567840D01*
X133869000Y-80827750D01*
X133964250Y-80923000D01*
X135373000Y-80923000D01*
X135373000Y-80314250D01*
X135627000Y-80314250D01*
X135627000Y-80923000D01*
X137035750Y-80923000D01*
X137131000Y-80827750D01*
X137131000Y-80562475D01*
X137116358Y-80488867D01*
X137087638Y-80419529D01*
X137045942Y-80357127D01*
X136992874Y-80304058D01*
X136930471Y-80262362D01*
X136861134Y-80233642D01*
X136787525Y-80219000D01*
X135722250Y-80219000D01*
X135627000Y-80314250D01*
X135373000Y-80314250D01*
X135277750Y-80219000D01*
X134217840Y-80219000D01*
X138683135Y-75753706D01*
X138721896Y-75721896D01*
X138848860Y-75567190D01*
X138943202Y-75390687D01*
X139001298Y-75199171D01*
X139016000Y-75049902D01*
X139016000Y-75049901D01*
X139020915Y-75000000D01*
X139016000Y-74950098D01*
X139016000Y-72099893D01*
X139020914Y-72049999D01*
X139016000Y-72000105D01*
X139016000Y-72000098D01*
X139001298Y-71850829D01*
X138943202Y-71659313D01*
X138848860Y-71482810D01*
X138756279Y-71370000D01*
X138848860Y-71257190D01*
X138943202Y-71080687D01*
X139001298Y-70889171D01*
X139016000Y-70739902D01*
X139016000Y-70739895D01*
X139020914Y-70690001D01*
X139016000Y-70640107D01*
X139016000Y-66272250D01*
X141619000Y-66272250D01*
X141619000Y-66537525D01*
X141633642Y-66611133D01*
X141662362Y-66680471D01*
X141704058Y-66742873D01*
X141757126Y-66795942D01*
X141819529Y-66837638D01*
X141888866Y-66866358D01*
X141962475Y-66881000D01*
X143027750Y-66881000D01*
X143123000Y-66785750D01*
X143123000Y-66177000D01*
X143377000Y-66177000D01*
X143377000Y-66785750D01*
X143472250Y-66881000D01*
X144537525Y-66881000D01*
X144611134Y-66866358D01*
X144680471Y-66837638D01*
X144742874Y-66795942D01*
X144795942Y-66742873D01*
X144837638Y-66680471D01*
X144866358Y-66611133D01*
X144881000Y-66537525D01*
X144881000Y-66272250D01*
X144785750Y-66177000D01*
X143377000Y-66177000D01*
X143123000Y-66177000D01*
X141714250Y-66177000D01*
X141619000Y-66272250D01*
X139016000Y-66272250D01*
X139016000Y-65562475D01*
X141619000Y-65562475D01*
X141619000Y-65827750D01*
X141714250Y-65923000D01*
X143123000Y-65923000D01*
X143123000Y-65314250D01*
X143377000Y-65314250D01*
X143377000Y-65923000D01*
X144785750Y-65923000D01*
X144881000Y-65827750D01*
X144881000Y-65562475D01*
X144866358Y-65488867D01*
X144837638Y-65419529D01*
X144795942Y-65357127D01*
X144742874Y-65304058D01*
X144680471Y-65262362D01*
X144611134Y-65233642D01*
X144537525Y-65219000D01*
X143472250Y-65219000D01*
X143377000Y-65314250D01*
X143123000Y-65314250D01*
X143027750Y-65219000D01*
X141962475Y-65219000D01*
X141888866Y-65233642D01*
X141819529Y-65262362D01*
X141757126Y-65304058D01*
X141704058Y-65357127D01*
X141662362Y-65419529D01*
X141633642Y-65488867D01*
X141619000Y-65562475D01*
X139016000Y-65562475D01*
X139016000Y-64222250D01*
X145219000Y-64222250D01*
X145219000Y-65037525D01*
X145233642Y-65111134D01*
X145262362Y-65180471D01*
X145304058Y-65242874D01*
X145357127Y-65295942D01*
X145419529Y-65337638D01*
X145488867Y-65366358D01*
X145562475Y-65381000D01*
X147277750Y-65381000D01*
X147373000Y-65285750D01*
X147373000Y-64127000D01*
X145314250Y-64127000D01*
X145219000Y-64222250D01*
X139016000Y-64222250D01*
X139016000Y-62962475D01*
X145219000Y-62962475D01*
X145219000Y-63777750D01*
X145314250Y-63873000D01*
X147373000Y-63873000D01*
X147373000Y-62714250D01*
X147277750Y-62619000D01*
X145562475Y-62619000D01*
X145488867Y-62633642D01*
X145419529Y-62662362D01*
X145357127Y-62704058D01*
X145304058Y-62757126D01*
X145262362Y-62819529D01*
X145233642Y-62888866D01*
X145219000Y-62962475D01*
X139016000Y-62962475D01*
X139016000Y-62099893D01*
X139020914Y-62049999D01*
X139016000Y-62000105D01*
X139016000Y-62000098D01*
X139001298Y-61850829D01*
X138943202Y-61659313D01*
X138848860Y-61482810D01*
X138721896Y-61328104D01*
X138683127Y-61296287D01*
X138073713Y-60686873D01*
X138041896Y-60648104D01*
X137887190Y-60521140D01*
X137710687Y-60426798D01*
X137519171Y-60368702D01*
X137369902Y-60354000D01*
X137320000Y-60349085D01*
X137270098Y-60354000D01*
X136432843Y-60354000D01*
X136432843Y-60270000D01*
X136425487Y-60195311D01*
X136403701Y-60123492D01*
X136368322Y-60057304D01*
X136320711Y-59999289D01*
X136262696Y-59951678D01*
X136196508Y-59916299D01*
X136124689Y-59894513D01*
X136050000Y-59887157D01*
X133950000Y-59887157D01*
X133875311Y-59894513D01*
X133803492Y-59916299D01*
X133737304Y-59951678D01*
X133679289Y-59999289D01*
X133631678Y-60057304D01*
X133596299Y-60123492D01*
X133574513Y-60195311D01*
X133567157Y-60270000D01*
X133567157Y-60354000D01*
X128932843Y-60354000D01*
X128932843Y-60270000D01*
X128925487Y-60195311D01*
X128903701Y-60123492D01*
X128868322Y-60057304D01*
X128820711Y-59999289D01*
X128762696Y-59951678D01*
X128696508Y-59916299D01*
X128624689Y-59894513D01*
X128550000Y-59887157D01*
X126450000Y-59887157D01*
X126375311Y-59894513D01*
X126303492Y-59916299D01*
X126237304Y-59951678D01*
X126179289Y-59999289D01*
X126131678Y-60057304D01*
X126096299Y-60123492D01*
X126074513Y-60195311D01*
X126067157Y-60270000D01*
X126067157Y-60354000D01*
X121432843Y-60354000D01*
X121432843Y-60270000D01*
X121425487Y-60195311D01*
X121403701Y-60123492D01*
X121368322Y-60057304D01*
X121320711Y-59999289D01*
X121262696Y-59951678D01*
X121196508Y-59916299D01*
X121124689Y-59894513D01*
X121050000Y-59887157D01*
X118950000Y-59887157D01*
X118875311Y-59894513D01*
X118803492Y-59916299D01*
X118737304Y-59951678D01*
X118679289Y-59999289D01*
X118631678Y-60057304D01*
X118596299Y-60123492D01*
X118574513Y-60195311D01*
X118567157Y-60270000D01*
X118567157Y-60354000D01*
X113932843Y-60354000D01*
X113932843Y-60270000D01*
X113925487Y-60195311D01*
X113903701Y-60123492D01*
X113868322Y-60057304D01*
X113820711Y-59999289D01*
X113762696Y-59951678D01*
X113696508Y-59916299D01*
X113624689Y-59894513D01*
X113550000Y-59887157D01*
X111450000Y-59887157D01*
X111375311Y-59894513D01*
X111303492Y-59916299D01*
X111237304Y-59951678D01*
X111179289Y-59999289D01*
X111131678Y-60057304D01*
X111096299Y-60123492D01*
X111074513Y-60195311D01*
X111067157Y-60270000D01*
X111067157Y-60354000D01*
X106432843Y-60354000D01*
X106432843Y-60270000D01*
X106425487Y-60195311D01*
X106403701Y-60123492D01*
X106368322Y-60057304D01*
X106320711Y-59999289D01*
X106262696Y-59951678D01*
X106196508Y-59916299D01*
X106124689Y-59894513D01*
X106050000Y-59887157D01*
X103950000Y-59887157D01*
X103875311Y-59894513D01*
X103803492Y-59916299D01*
X103737304Y-59951678D01*
X103679289Y-59999289D01*
X103631678Y-60057304D01*
X103596299Y-60123492D01*
X103574513Y-60195311D01*
X103567157Y-60270000D01*
X103567157Y-60354000D01*
X101232843Y-60354000D01*
X101232843Y-60100000D01*
X101225487Y-60025311D01*
X101203701Y-59953492D01*
X101168322Y-59887304D01*
X101120711Y-59829289D01*
X101062696Y-59781678D01*
X100996508Y-59746299D01*
X100924689Y-59724513D01*
X100850000Y-59717157D01*
X99150000Y-59717157D01*
X99075311Y-59724513D01*
X99003492Y-59746299D01*
X98937304Y-59781678D01*
X98879289Y-59829289D01*
X98831678Y-59887304D01*
X98796299Y-59953492D01*
X98774513Y-60025311D01*
X98767157Y-60100000D01*
X98767157Y-60354000D01*
X96432843Y-60354000D01*
X96432843Y-60270000D01*
X96425487Y-60195311D01*
X96403701Y-60123492D01*
X96368322Y-60057304D01*
X96320711Y-59999289D01*
X96262696Y-59951678D01*
X96196508Y-59916299D01*
X96124689Y-59894513D01*
X96050000Y-59887157D01*
X93950000Y-59887157D01*
X93875311Y-59894513D01*
X93803492Y-59916299D01*
X93737304Y-59951678D01*
X93679289Y-59999289D01*
X93631678Y-60057304D01*
X93596299Y-60123492D01*
X93574513Y-60195311D01*
X93567157Y-60270000D01*
X93567157Y-60354000D01*
X88932843Y-60354000D01*
X88932843Y-60270000D01*
X88925487Y-60195311D01*
X88903701Y-60123492D01*
X88868322Y-60057304D01*
X88820711Y-59999289D01*
X88762696Y-59951678D01*
X88696508Y-59916299D01*
X88624689Y-59894513D01*
X88550000Y-59887157D01*
X86450000Y-59887157D01*
X86375311Y-59894513D01*
X86303492Y-59916299D01*
X86237304Y-59951678D01*
X86179289Y-59999289D01*
X86131678Y-60057304D01*
X86096299Y-60123492D01*
X86074513Y-60195311D01*
X86067157Y-60270000D01*
X86067157Y-60354000D01*
X81432843Y-60354000D01*
X81432843Y-60270000D01*
X81425487Y-60195311D01*
X81403701Y-60123492D01*
X81368322Y-60057304D01*
X81320711Y-59999289D01*
X81262696Y-59951678D01*
X81196508Y-59916299D01*
X81124689Y-59894513D01*
X81050000Y-59887157D01*
X78950000Y-59887157D01*
X78875311Y-59894513D01*
X78803492Y-59916299D01*
X78737304Y-59951678D01*
X78679289Y-59999289D01*
X78631678Y-60057304D01*
X78596299Y-60123492D01*
X78574513Y-60195311D01*
X78567157Y-60270000D01*
X78567157Y-60354000D01*
X73932843Y-60354000D01*
X73932843Y-60270000D01*
X73925487Y-60195311D01*
X73903701Y-60123492D01*
X73868322Y-60057304D01*
X73820711Y-59999289D01*
X73762696Y-59951678D01*
X73696508Y-59916299D01*
X73624689Y-59894513D01*
X73550000Y-59887157D01*
X71450000Y-59887157D01*
X71375311Y-59894513D01*
X71303492Y-59916299D01*
X71237304Y-59951678D01*
X71179289Y-59999289D01*
X71131678Y-60057304D01*
X71096299Y-60123492D01*
X71074513Y-60195311D01*
X71067157Y-60270000D01*
X71067157Y-60354000D01*
X66432843Y-60354000D01*
X66432843Y-60270000D01*
X66425487Y-60195311D01*
X66403701Y-60123492D01*
X66368322Y-60057304D01*
X66320711Y-59999289D01*
X66262696Y-59951678D01*
X66196508Y-59916299D01*
X66124689Y-59894513D01*
X66050000Y-59887157D01*
X63950000Y-59887157D01*
X63875311Y-59894513D01*
X63803492Y-59916299D01*
X63737304Y-59951678D01*
X63679289Y-59999289D01*
X63631678Y-60057304D01*
X63596299Y-60123492D01*
X63574513Y-60195311D01*
X63567157Y-60270000D01*
X63567157Y-62470000D01*
X63574513Y-62544689D01*
X63595538Y-62614000D01*
X63419902Y-62614000D01*
X63370000Y-62609085D01*
X63320098Y-62614000D01*
X63170829Y-62628702D01*
X62979313Y-62686798D01*
X62802810Y-62781140D01*
X62648104Y-62908104D01*
X62616292Y-62946867D01*
X61316872Y-64246288D01*
X61278104Y-64278104D01*
X61151140Y-64432810D01*
X61056798Y-64609314D01*
X60998702Y-64800829D01*
X60998702Y-64800830D01*
X60979085Y-65000000D01*
X60984000Y-65049902D01*
X60984001Y-71937054D01*
X60979085Y-71986966D01*
X60984001Y-72036877D01*
X60984000Y-74950098D01*
X60979085Y-75000000D01*
X60984000Y-75049901D01*
X60998702Y-75199170D01*
X61056798Y-75390686D01*
X61151140Y-75567190D01*
X61278104Y-75721896D01*
X61316872Y-75753712D01*
X63246292Y-77683133D01*
X63278104Y-77721896D01*
X63432810Y-77848860D01*
X63609313Y-77943202D01*
X63800829Y-78001298D01*
X63999999Y-78020915D01*
X64049901Y-78016000D01*
X104579160Y-78016000D01*
X109246292Y-82683133D01*
X109278104Y-82721896D01*
X109432810Y-82848860D01*
X109609313Y-82943202D01*
X109800829Y-83001298D01*
X110000000Y-83020915D01*
X110049902Y-83016000D01*
X111256718Y-83016000D01*
X111281678Y-83062696D01*
X111288000Y-83070400D01*
X111288001Y-83429600D01*
X111281678Y-83437304D01*
X111246299Y-83503492D01*
X111224513Y-83575311D01*
X111217157Y-83650000D01*
X111217157Y-83994000D01*
X110524845Y-83994000D01*
X110499999Y-83991553D01*
X110475153Y-83994000D01*
X110475146Y-83994000D01*
X110414229Y-84000000D01*
X110400806Y-84001322D01*
X110378607Y-84008056D01*
X110305425Y-84030255D01*
X110217521Y-84077241D01*
X110140473Y-84140473D01*
X110124628Y-84159780D01*
X108676988Y-85607421D01*
X108606642Y-85502141D01*
X108497859Y-85393358D01*
X108369942Y-85307887D01*
X108227809Y-85249013D01*
X108076922Y-85219000D01*
X107934592Y-85219000D01*
X101375376Y-78659785D01*
X101359527Y-78640473D01*
X101282479Y-78577241D01*
X101194575Y-78530255D01*
X101099193Y-78501322D01*
X101024854Y-78494000D01*
X101024846Y-78494000D01*
X101000000Y-78491553D01*
X100975154Y-78494000D01*
X63209592Y-78494000D01*
X60506000Y-75790409D01*
X60506000Y-62209591D01*
X64209592Y-58506000D01*
X95975154Y-58506000D01*
X96000000Y-58508447D01*
X96024846Y-58506000D01*
X96024854Y-58506000D01*
X96099193Y-58498678D01*
X96194575Y-58469745D01*
X96282479Y-58422759D01*
X96359527Y-58359527D01*
X96375376Y-58340215D01*
X100340220Y-54375372D01*
X100359527Y-54359527D01*
X100422759Y-54282479D01*
X100469745Y-54194575D01*
X100498678Y-54099193D01*
X100506000Y-54024854D01*
X100506000Y-54024847D01*
X100508447Y-54000001D01*
X100506000Y-53975155D01*
X100506000Y-51035945D01*
X102319000Y-51035945D01*
X102319000Y-51564055D01*
X102422030Y-52082019D01*
X102624129Y-52569930D01*
X102917531Y-53009038D01*
X103290962Y-53382469D01*
X103730070Y-53675871D01*
X104217981Y-53877970D01*
X104735945Y-53981000D01*
X105264055Y-53981000D01*
X105782019Y-53877970D01*
X106269930Y-53675871D01*
X106709038Y-53382469D01*
X107082469Y-53009038D01*
X107375871Y-52569930D01*
X107577970Y-52082019D01*
X107681000Y-51564055D01*
X107681000Y-51035945D01*
X107577970Y-50517981D01*
X107375871Y-50030070D01*
X107082469Y-49590962D01*
X106709038Y-49217531D01*
X106269930Y-48924129D01*
X105782019Y-48722030D01*
X105264055Y-48619000D01*
X104735945Y-48619000D01*
X104217981Y-48722030D01*
X103730070Y-48924129D01*
X103290962Y-49217531D01*
X102917531Y-49590962D01*
X102624129Y-50030070D01*
X102422030Y-50517981D01*
X102319000Y-51035945D01*
X100506000Y-51035945D01*
X100506000Y-49176952D01*
X100606781Y-49135207D01*
X100816590Y-48995018D01*
X100883769Y-48927839D01*
X101751766Y-48927839D01*
X101849840Y-49110933D01*
X102079065Y-49216427D01*
X102324466Y-49275174D01*
X102576614Y-49284916D01*
X102825816Y-49245280D01*
X103062498Y-49157788D01*
X103150160Y-49110933D01*
X103248234Y-48927839D01*
X102500000Y-48179605D01*
X101751766Y-48927839D01*
X100883769Y-48927839D01*
X100995018Y-48816590D01*
X101135207Y-48606781D01*
X101231772Y-48373654D01*
X101248752Y-48288291D01*
X101254720Y-48325816D01*
X101342212Y-48562498D01*
X101389067Y-48650160D01*
X101572161Y-48748234D01*
X102320395Y-48000000D01*
X102679605Y-48000000D01*
X103427839Y-48748234D01*
X103610933Y-48650160D01*
X103716427Y-48420935D01*
X103775174Y-48175534D01*
X103784916Y-47923386D01*
X103745280Y-47674184D01*
X103657788Y-47437502D01*
X103610933Y-47349840D01*
X103427839Y-47251766D01*
X102679605Y-48000000D01*
X102320395Y-48000000D01*
X101572161Y-47251766D01*
X101389067Y-47349840D01*
X101283573Y-47579065D01*
X101250144Y-47718707D01*
X101231772Y-47626346D01*
X101135207Y-47393219D01*
X100995018Y-47183410D01*
X100883769Y-47072161D01*
X101751766Y-47072161D01*
X102500000Y-47820395D01*
X103248234Y-47072161D01*
X103150160Y-46889067D01*
X102920935Y-46783573D01*
X102675534Y-46724826D01*
X102423386Y-46715084D01*
X102174184Y-46754720D01*
X101937502Y-46842212D01*
X101849840Y-46889067D01*
X101751766Y-47072161D01*
X100883769Y-47072161D01*
X100816590Y-47004982D01*
X100606781Y-46864793D01*
X100373654Y-46768228D01*
X100126167Y-46719000D01*
X99873833Y-46719000D01*
X99626346Y-46768228D01*
X99393219Y-46864793D01*
X99183410Y-47004982D01*
X99004982Y-47183410D01*
X98864793Y-47393219D01*
X98768228Y-47626346D01*
X98750000Y-47717985D01*
X98731772Y-47626346D01*
X98635207Y-47393219D01*
X98495018Y-47183410D01*
X98316590Y-47004982D01*
X98106781Y-46864793D01*
X97873654Y-46768228D01*
X97626167Y-46719000D01*
X97373833Y-46719000D01*
X97126346Y-46768228D01*
X96893219Y-46864793D01*
X96683410Y-47004982D01*
X96504982Y-47183410D01*
X96364793Y-47393219D01*
X96268228Y-47626346D01*
X96219000Y-47873833D01*
X96219000Y-48126167D01*
X96268228Y-48373654D01*
X96364793Y-48606781D01*
X96504982Y-48816590D01*
X96683410Y-48995018D01*
X96893219Y-49135207D01*
X97126346Y-49231772D01*
X97373833Y-49281000D01*
X97626167Y-49281000D01*
X97873654Y-49231772D01*
X98106781Y-49135207D01*
X98316590Y-48995018D01*
X98495018Y-48816590D01*
X98635207Y-48606781D01*
X98731772Y-48373654D01*
X98750000Y-48282015D01*
X98768228Y-48373654D01*
X98864793Y-48606781D01*
X99004982Y-48816590D01*
X99183410Y-48995018D01*
X99393219Y-49135207D01*
X99494000Y-49176952D01*
X99494001Y-53790407D01*
X95790409Y-57494000D01*
X64024845Y-57494000D01*
X63999999Y-57491553D01*
X63975153Y-57494000D01*
X63975146Y-57494000D01*
X63910694Y-57500348D01*
X63900806Y-57501322D01*
X63805425Y-57530255D01*
X63717521Y-57577241D01*
X63640473Y-57640473D01*
X63624629Y-57659779D01*
X59659785Y-61624624D01*
X59640473Y-61640473D01*
X59577241Y-61717521D01*
X59530255Y-61805426D01*
X59501322Y-61900808D01*
X59494000Y-61975147D01*
X59494000Y-61975154D01*
X59491553Y-62000000D01*
X50456000Y-62000000D01*
X50456000Y-51035945D01*
X92319000Y-51035945D01*
X92319000Y-51564055D01*
X92422030Y-52082019D01*
X92624129Y-52569930D01*
X92917531Y-53009038D01*
X93290962Y-53382469D01*
X93730070Y-53675871D01*
X94217981Y-53877970D01*
X94735945Y-53981000D01*
X95264055Y-53981000D01*
X95782019Y-53877970D01*
X96269930Y-53675871D01*
X96709038Y-53382469D01*
X97082469Y-53009038D01*
X97375871Y-52569930D01*
X97577970Y-52082019D01*
X97681000Y-51564055D01*
X97681000Y-51035945D01*
X97577970Y-50517981D01*
X97375871Y-50030070D01*
X97082469Y-49590962D01*
X96709038Y-49217531D01*
X96269930Y-48924129D01*
X95782019Y-48722030D01*
X95264055Y-48619000D01*
X94735945Y-48619000D01*
X94217981Y-48722030D01*
X93730070Y-48924129D01*
X93290962Y-49217531D01*
X92917531Y-49590962D01*
X92624129Y-50030070D01*
X92422030Y-50517981D01*
X92319000Y-51035945D01*
X50456000Y-51035945D01*
X50456000Y-47724236D01*
X52724237Y-45456000D01*
X147275764Y-45456000D01*
X149544001Y-47724238D01*
G36*
X136984000Y-62470840D02*
X136984001Y-70269159D01*
X136899160Y-70354000D01*
X136432843Y-70354000D01*
X136432843Y-70270000D01*
X136425487Y-70195311D01*
X136403701Y-70123492D01*
X136368322Y-70057304D01*
X136320711Y-69999289D01*
X136262696Y-69951678D01*
X136196508Y-69916299D01*
X136124689Y-69894513D01*
X136050000Y-69887157D01*
X133950000Y-69887157D01*
X133875311Y-69894513D01*
X133803492Y-69916299D01*
X133737304Y-69951678D01*
X133679289Y-69999289D01*
X133631678Y-70057304D01*
X133596299Y-70123492D01*
X133574513Y-70195311D01*
X133567157Y-70270000D01*
X133567157Y-70354000D01*
X128932843Y-70354000D01*
X128932843Y-70270000D01*
X128925487Y-70195311D01*
X128903701Y-70123492D01*
X128868322Y-70057304D01*
X128820711Y-69999289D01*
X128762696Y-69951678D01*
X128696508Y-69916299D01*
X128624689Y-69894513D01*
X128550000Y-69887157D01*
X126450000Y-69887157D01*
X126375311Y-69894513D01*
X126303492Y-69916299D01*
X126237304Y-69951678D01*
X126179289Y-69999289D01*
X126131678Y-70057304D01*
X126096299Y-70123492D01*
X126074513Y-70195311D01*
X126067157Y-70270000D01*
X126067157Y-70354000D01*
X121432843Y-70354000D01*
X121432843Y-70270000D01*
X121425487Y-70195311D01*
X121403701Y-70123492D01*
X121368322Y-70057304D01*
X121320711Y-69999289D01*
X121262696Y-69951678D01*
X121196508Y-69916299D01*
X121124689Y-69894513D01*
X121050000Y-69887157D01*
X118950000Y-69887157D01*
X118875311Y-69894513D01*
X118803492Y-69916299D01*
X118737304Y-69951678D01*
X118679289Y-69999289D01*
X118631678Y-70057304D01*
X118596299Y-70123492D01*
X118574513Y-70195311D01*
X118567157Y-70270000D01*
X118567157Y-70354000D01*
X113932843Y-70354000D01*
X113932843Y-70270000D01*
X113925487Y-70195311D01*
X113903701Y-70123492D01*
X113868322Y-70057304D01*
X113820711Y-69999289D01*
X113762696Y-69951678D01*
X113696508Y-69916299D01*
X113624689Y-69894513D01*
X113550000Y-69887157D01*
X111450000Y-69887157D01*
X111375311Y-69894513D01*
X111303492Y-69916299D01*
X111237304Y-69951678D01*
X111179289Y-69999289D01*
X111131678Y-70057304D01*
X111096299Y-70123492D01*
X111074513Y-70195311D01*
X111067157Y-70270000D01*
X111067157Y-70354000D01*
X106432843Y-70354000D01*
X106432843Y-70270000D01*
X106425487Y-70195311D01*
X106403701Y-70123492D01*
X106368322Y-70057304D01*
X106320711Y-69999289D01*
X106262696Y-69951678D01*
X106196508Y-69916299D01*
X106124689Y-69894513D01*
X106050000Y-69887157D01*
X103950000Y-69887157D01*
X103875311Y-69894513D01*
X103803492Y-69916299D01*
X103737304Y-69951678D01*
X103679289Y-69999289D01*
X103631678Y-70057304D01*
X103596299Y-70123492D01*
X103574513Y-70195311D01*
X103567157Y-70270000D01*
X103567157Y-70354000D01*
X96432843Y-70354000D01*
X96432843Y-70270000D01*
X96425487Y-70195311D01*
X96403701Y-70123492D01*
X96368322Y-70057304D01*
X96320711Y-69999289D01*
X96262696Y-69951678D01*
X96196508Y-69916299D01*
X96124689Y-69894513D01*
X96050000Y-69887157D01*
X93950000Y-69887157D01*
X93875311Y-69894513D01*
X93803492Y-69916299D01*
X93737304Y-69951678D01*
X93679289Y-69999289D01*
X93631678Y-70057304D01*
X93596299Y-70123492D01*
X93574513Y-70195311D01*
X93567157Y-70270000D01*
X93567157Y-70354000D01*
X88932843Y-70354000D01*
X88932843Y-70270000D01*
X88925487Y-70195311D01*
X88903701Y-70123492D01*
X88868322Y-70057304D01*
X88820711Y-69999289D01*
X88762696Y-69951678D01*
X88696508Y-69916299D01*
X88624689Y-69894513D01*
X88550000Y-69887157D01*
X86450000Y-69887157D01*
X86375311Y-69894513D01*
X86303492Y-69916299D01*
X86237304Y-69951678D01*
X86179289Y-69999289D01*
X86131678Y-70057304D01*
X86096299Y-70123492D01*
X86074513Y-70195311D01*
X86067157Y-70270000D01*
X86067157Y-70354000D01*
X81192843Y-70354000D01*
X81192843Y-70270000D01*
X81185487Y-70195311D01*
X81163701Y-70123492D01*
X81128322Y-70057304D01*
X81080711Y-69999289D01*
X81022696Y-69951678D01*
X80956508Y-69916299D01*
X80884689Y-69894513D01*
X80810000Y-69887157D01*
X78710000Y-69887157D01*
X78635311Y-69894513D01*
X78563492Y-69916299D01*
X78497304Y-69951678D01*
X78439289Y-69999289D01*
X78391678Y-70057304D01*
X78356299Y-70123492D01*
X78334513Y-70195311D01*
X78327157Y-70270000D01*
X78327157Y-70354000D01*
X73932843Y-70354000D01*
X73932843Y-70270000D01*
X73925487Y-70195311D01*
X73903701Y-70123492D01*
X73868322Y-70057304D01*
X73820711Y-69999289D01*
X73762696Y-69951678D01*
X73696508Y-69916299D01*
X73624689Y-69894513D01*
X73550000Y-69887157D01*
X71450000Y-69887157D01*
X71375311Y-69894513D01*
X71303492Y-69916299D01*
X71237304Y-69951678D01*
X71179289Y-69999289D01*
X71131678Y-70057304D01*
X71096299Y-70123492D01*
X71074513Y-70195311D01*
X71067157Y-70270000D01*
X71067157Y-70354000D01*
X66432843Y-70354000D01*
X66432843Y-70270000D01*
X66425487Y-70195311D01*
X66403701Y-70123492D01*
X66368322Y-70057304D01*
X66320711Y-69999289D01*
X66262696Y-69951678D01*
X66196508Y-69916299D01*
X66124689Y-69894513D01*
X66050000Y-69887157D01*
X63950000Y-69887157D01*
X63875311Y-69894513D01*
X63803492Y-69916299D01*
X63737304Y-69951678D01*
X63679289Y-69999289D01*
X63631678Y-70057304D01*
X63596299Y-70123492D01*
X63574513Y-70195311D01*
X63567157Y-70270000D01*
X63567157Y-72117282D01*
X63016000Y-71566126D01*
X63016000Y-65420840D01*
X63790841Y-64646000D01*
X63844036Y-64646000D01*
X63875311Y-64655487D01*
X63950000Y-64662843D01*
X66050000Y-64662843D01*
X66124689Y-64655487D01*
X66155964Y-64646000D01*
X71344036Y-64646000D01*
X71375311Y-64655487D01*
X71450000Y-64662843D01*
X73550000Y-64662843D01*
X73624689Y-64655487D01*
X73655964Y-64646000D01*
X78844036Y-64646000D01*
X78875311Y-64655487D01*
X78950000Y-64662843D01*
X81050000Y-64662843D01*
X81124689Y-64655487D01*
X81155964Y-64646000D01*
X86344036Y-64646000D01*
X86375311Y-64655487D01*
X86450000Y-64662843D01*
X88550000Y-64662843D01*
X88624689Y-64655487D01*
X88655964Y-64646000D01*
X93844036Y-64646000D01*
X93875311Y-64655487D01*
X93950000Y-64662843D01*
X96050000Y-64662843D01*
X96124689Y-64655487D01*
X96155964Y-64646000D01*
X103844036Y-64646000D01*
X103875311Y-64655487D01*
X103950000Y-64662843D01*
X106050000Y-64662843D01*
X106124689Y-64655487D01*
X106155964Y-64646000D01*
X111344036Y-64646000D01*
X111375311Y-64655487D01*
X111450000Y-64662843D01*
X113550000Y-64662843D01*
X113624689Y-64655487D01*
X113655964Y-64646000D01*
X118844036Y-64646000D01*
X118875311Y-64655487D01*
X118950000Y-64662843D01*
X121050000Y-64662843D01*
X121124689Y-64655487D01*
X121155964Y-64646000D01*
X126344036Y-64646000D01*
X126375311Y-64655487D01*
X126450000Y-64662843D01*
X128550000Y-64662843D01*
X128624689Y-64655487D01*
X128655964Y-64646000D01*
X133844036Y-64646000D01*
X133875311Y-64655487D01*
X133950000Y-64662843D01*
X136050000Y-64662843D01*
X136124689Y-64655487D01*
X136196508Y-64633701D01*
X136262696Y-64598322D01*
X136320711Y-64550711D01*
X136368322Y-64492696D01*
X136403701Y-64426508D01*
X136425487Y-64354689D01*
X136432843Y-64280000D01*
X136432843Y-62980000D01*
X136425487Y-62905311D01*
X136403701Y-62833492D01*
X136368322Y-62767304D01*
X136333605Y-62725000D01*
X136368322Y-62682696D01*
X136403701Y-62616508D01*
X136425487Y-62544689D01*
X136432843Y-62470000D01*
X136432843Y-62386000D01*
X136899160Y-62386000D01*
X136984000Y-62470840D01*
X136984000Y-62470840D01*
G37*
X136984000Y-62470840D02*
X136984001Y-70269159D01*
X136899160Y-70354000D01*
X136432843Y-70354000D01*
X136432843Y-70270000D01*
X136425487Y-70195311D01*
X136403701Y-70123492D01*
X136368322Y-70057304D01*
X136320711Y-69999289D01*
X136262696Y-69951678D01*
X136196508Y-69916299D01*
X136124689Y-69894513D01*
X136050000Y-69887157D01*
X133950000Y-69887157D01*
X133875311Y-69894513D01*
X133803492Y-69916299D01*
X133737304Y-69951678D01*
X133679289Y-69999289D01*
X133631678Y-70057304D01*
X133596299Y-70123492D01*
X133574513Y-70195311D01*
X133567157Y-70270000D01*
X133567157Y-70354000D01*
X128932843Y-70354000D01*
X128932843Y-70270000D01*
X128925487Y-70195311D01*
X128903701Y-70123492D01*
X128868322Y-70057304D01*
X128820711Y-69999289D01*
X128762696Y-69951678D01*
X128696508Y-69916299D01*
X128624689Y-69894513D01*
X128550000Y-69887157D01*
X126450000Y-69887157D01*
X126375311Y-69894513D01*
X126303492Y-69916299D01*
X126237304Y-69951678D01*
X126179289Y-69999289D01*
X126131678Y-70057304D01*
X126096299Y-70123492D01*
X126074513Y-70195311D01*
X126067157Y-70270000D01*
X126067157Y-70354000D01*
X121432843Y-70354000D01*
X121432843Y-70270000D01*
X121425487Y-70195311D01*
X121403701Y-70123492D01*
X121368322Y-70057304D01*
X121320711Y-69999289D01*
X121262696Y-69951678D01*
X121196508Y-69916299D01*
X121124689Y-69894513D01*
X121050000Y-69887157D01*
X118950000Y-69887157D01*
X118875311Y-69894513D01*
X118803492Y-69916299D01*
X118737304Y-69951678D01*
X118679289Y-69999289D01*
X118631678Y-70057304D01*
X118596299Y-70123492D01*
X118574513Y-70195311D01*
X118567157Y-70270000D01*
X118567157Y-70354000D01*
X113932843Y-70354000D01*
X113932843Y-70270000D01*
X113925487Y-70195311D01*
X113903701Y-70123492D01*
X113868322Y-70057304D01*
X113820711Y-69999289D01*
X113762696Y-69951678D01*
X113696508Y-69916299D01*
X113624689Y-69894513D01*
X113550000Y-69887157D01*
X111450000Y-69887157D01*
X111375311Y-69894513D01*
X111303492Y-69916299D01*
X111237304Y-69951678D01*
X111179289Y-69999289D01*
X111131678Y-70057304D01*
X111096299Y-70123492D01*
X111074513Y-70195311D01*
X111067157Y-70270000D01*
X111067157Y-70354000D01*
X106432843Y-70354000D01*
X106432843Y-70270000D01*
X106425487Y-70195311D01*
X106403701Y-70123492D01*
X106368322Y-70057304D01*
X106320711Y-69999289D01*
X106262696Y-69951678D01*
X106196508Y-69916299D01*
X106124689Y-69894513D01*
X106050000Y-69887157D01*
X103950000Y-69887157D01*
X103875311Y-69894513D01*
X103803492Y-69916299D01*
X103737304Y-69951678D01*
X103679289Y-69999289D01*
X103631678Y-70057304D01*
X103596299Y-70123492D01*
X103574513Y-70195311D01*
X103567157Y-70270000D01*
X103567157Y-70354000D01*
X96432843Y-70354000D01*
X96432843Y-70270000D01*
X96425487Y-70195311D01*
X96403701Y-70123492D01*
X96368322Y-70057304D01*
X96320711Y-69999289D01*
X96262696Y-69951678D01*
X96196508Y-69916299D01*
X96124689Y-69894513D01*
X96050000Y-69887157D01*
X93950000Y-69887157D01*
X93875311Y-69894513D01*
X93803492Y-69916299D01*
X93737304Y-69951678D01*
X93679289Y-69999289D01*
X93631678Y-70057304D01*
X93596299Y-70123492D01*
X93574513Y-70195311D01*
X93567157Y-70270000D01*
X93567157Y-70354000D01*
X88932843Y-70354000D01*
X88932843Y-70270000D01*
X88925487Y-70195311D01*
X88903701Y-70123492D01*
X88868322Y-70057304D01*
X88820711Y-69999289D01*
X88762696Y-69951678D01*
X88696508Y-69916299D01*
X88624689Y-69894513D01*
X88550000Y-69887157D01*
X86450000Y-69887157D01*
X86375311Y-69894513D01*
X86303492Y-69916299D01*
X86237304Y-69951678D01*
X86179289Y-69999289D01*
X86131678Y-70057304D01*
X86096299Y-70123492D01*
X86074513Y-70195311D01*
X86067157Y-70270000D01*
X86067157Y-70354000D01*
X81192843Y-70354000D01*
X81192843Y-70270000D01*
X81185487Y-70195311D01*
X81163701Y-70123492D01*
X81128322Y-70057304D01*
X81080711Y-69999289D01*
X81022696Y-69951678D01*
X80956508Y-69916299D01*
X80884689Y-69894513D01*
X80810000Y-69887157D01*
X78710000Y-69887157D01*
X78635311Y-69894513D01*
X78563492Y-69916299D01*
X78497304Y-69951678D01*
X78439289Y-69999289D01*
X78391678Y-70057304D01*
X78356299Y-70123492D01*
X78334513Y-70195311D01*
X78327157Y-70270000D01*
X78327157Y-70354000D01*
X73932843Y-70354000D01*
X73932843Y-70270000D01*
X73925487Y-70195311D01*
X73903701Y-70123492D01*
X73868322Y-70057304D01*
X73820711Y-69999289D01*
X73762696Y-69951678D01*
X73696508Y-69916299D01*
X73624689Y-69894513D01*
X73550000Y-69887157D01*
X71450000Y-69887157D01*
X71375311Y-69894513D01*
X71303492Y-69916299D01*
X71237304Y-69951678D01*
X71179289Y-69999289D01*
X71131678Y-70057304D01*
X71096299Y-70123492D01*
X71074513Y-70195311D01*
X71067157Y-70270000D01*
X71067157Y-70354000D01*
X66432843Y-70354000D01*
X66432843Y-70270000D01*
X66425487Y-70195311D01*
X66403701Y-70123492D01*
X66368322Y-70057304D01*
X66320711Y-69999289D01*
X66262696Y-69951678D01*
X66196508Y-69916299D01*
X66124689Y-69894513D01*
X66050000Y-69887157D01*
X63950000Y-69887157D01*
X63875311Y-69894513D01*
X63803492Y-69916299D01*
X63737304Y-69951678D01*
X63679289Y-69999289D01*
X63631678Y-70057304D01*
X63596299Y-70123492D01*
X63574513Y-70195311D01*
X63567157Y-70270000D01*
X63567157Y-72117282D01*
X63016000Y-71566126D01*
X63016000Y-65420840D01*
X63790841Y-64646000D01*
X63844036Y-64646000D01*
X63875311Y-64655487D01*
X63950000Y-64662843D01*
X66050000Y-64662843D01*
X66124689Y-64655487D01*
X66155964Y-64646000D01*
X71344036Y-64646000D01*
X71375311Y-64655487D01*
X71450000Y-64662843D01*
X73550000Y-64662843D01*
X73624689Y-64655487D01*
X73655964Y-64646000D01*
X78844036Y-64646000D01*
X78875311Y-64655487D01*
X78950000Y-64662843D01*
X81050000Y-64662843D01*
X81124689Y-64655487D01*
X81155964Y-64646000D01*
X86344036Y-64646000D01*
X86375311Y-64655487D01*
X86450000Y-64662843D01*
X88550000Y-64662843D01*
X88624689Y-64655487D01*
X88655964Y-64646000D01*
X93844036Y-64646000D01*
X93875311Y-64655487D01*
X93950000Y-64662843D01*
X96050000Y-64662843D01*
X96124689Y-64655487D01*
X96155964Y-64646000D01*
X103844036Y-64646000D01*
X103875311Y-64655487D01*
X103950000Y-64662843D01*
X106050000Y-64662843D01*
X106124689Y-64655487D01*
X106155964Y-64646000D01*
X111344036Y-64646000D01*
X111375311Y-64655487D01*
X111450000Y-64662843D01*
X113550000Y-64662843D01*
X113624689Y-64655487D01*
X113655964Y-64646000D01*
X118844036Y-64646000D01*
X118875311Y-64655487D01*
X118950000Y-64662843D01*
X121050000Y-64662843D01*
X121124689Y-64655487D01*
X121155964Y-64646000D01*
X126344036Y-64646000D01*
X126375311Y-64655487D01*
X126450000Y-64662843D01*
X128550000Y-64662843D01*
X128624689Y-64655487D01*
X128655964Y-64646000D01*
X133844036Y-64646000D01*
X133875311Y-64655487D01*
X133950000Y-64662843D01*
X136050000Y-64662843D01*
X136124689Y-64655487D01*
X136196508Y-64633701D01*
X136262696Y-64598322D01*
X136320711Y-64550711D01*
X136368322Y-64492696D01*
X136403701Y-64426508D01*
X136425487Y-64354689D01*
X136432843Y-64280000D01*
X136432843Y-62980000D01*
X136425487Y-62905311D01*
X136403701Y-62833492D01*
X136368322Y-62767304D01*
X136333605Y-62725000D01*
X136368322Y-62682696D01*
X136403701Y-62616508D01*
X136425487Y-62544689D01*
X136432843Y-62470000D01*
X136432843Y-62386000D01*
X136899160Y-62386000D01*
X136984000Y-62470840D01*
G04 #@! TD*
M02*
