M48
;DRILL file {KiCad (5.0.0-rc2-117-g8a2639325)} date 07/20/18 00:32:29
;FORMAT={-:-/ absolute / metric / decimal}
FMAT,2
METRIC,TZ
T1C0.300
T2C0.400
T3C1.000
T4C2.300
T5C3.200
%
G90
G05
M71
T1
X112.9Y-89.3
X112.9Y-90.1
X112.9Y-90.9
X112.9Y-91.7
X114.1Y-89.3
X114.1Y-90.1
X114.1Y-90.9
X114.1Y-91.7
T2
X51.Y-48.
X51.Y-50.
X51.Y-52.
X51.Y-54.
X51.Y-56.
X51.Y-58.
X51.Y-60.
X51.Y-62.
X51.Y-67.5
X51.Y-73.
X51.Y-75.
X51.Y-77.
X51.Y-79.
X51.Y-81.
X51.Y-83.
X51.Y-85.
X51.Y-87.
X51.Y-89.
X51.Y-92.
X52.Y-47.
X52.Y-93.
X53.Y-46.
X53.Y-94.
X55.Y-46.
X55.Y-94.
X56.75Y-64.75
X57.Y-46.
X57.Y-71.
X57.Y-94.
X59.Y-46.
X59.Y-94.
X61.Y-46.
X61.Y-94.
X63.Y-46.
X63.Y-94.
X64.5Y-60.75
X64.5Y-62.
X64.5Y-63.75
X64.5Y-70.75
X64.5Y-72.
X64.5Y-73.75
X64.5Y-85.
X65.Y-94.
X65.5Y-60.75
X65.5Y-62.
X65.5Y-63.75
X65.5Y-70.75
X65.5Y-72.
X65.5Y-73.75
X67.Y-94.
X69.Y-94.
X71.Y-46.
X71.Y-94.
X72.Y-54.
X72.Y-60.75
X72.Y-62.
X72.Y-63.75
X72.Y-70.75
X72.Y-72.
X72.Y-73.75
X73.Y-46.
X73.Y-60.75
X73.Y-62.
X73.Y-63.75
X73.Y-70.75
X73.Y-72.
X73.Y-73.75
X73.Y-94.
X75.Y-46.
X75.Y-94.
X77.Y-46.
X77.Y-94.
X79.Y-46.
X79.Y-94.
X79.25Y-70.75
X79.25Y-72.
X79.25Y-73.75
X79.5Y-60.75
X79.5Y-62.
X79.5Y-63.75
X80.25Y-70.75
X80.25Y-72.
X80.25Y-73.75
X80.5Y-60.75
X80.5Y-62.
X80.5Y-63.75
X81.Y-46.
X81.Y-94.
X83.Y-46.
X83.Y-94.
X85.Y-46.
X85.Y-94.
X87.Y-46.
X87.Y-49.5
X87.Y-60.75
X87.Y-62.
X87.Y-63.75
X87.Y-70.75
X87.Y-72.
X87.Y-73.75
X87.Y-94.
X88.Y-60.75
X88.Y-62.
X88.Y-63.75
X88.Y-70.75
X88.Y-72.
X88.Y-73.75
X89.Y-46.
X89.Y-94.
X91.Y-46.
X91.Y-94.
X93.Y-46.
X93.Y-94.
X94.5Y-60.75
X94.5Y-62.
X94.5Y-63.75
X94.5Y-70.75
X94.5Y-72.
X94.5Y-73.75
X95.Y-46.
X95.Y-94.
X95.5Y-60.75
X95.5Y-62.
X95.5Y-63.75
X95.5Y-70.75
X95.5Y-72.
X95.5Y-73.75
X97.Y-46.
X97.Y-94.
X99.Y-46.
X99.Y-94.
X100.Y-61.37
X100.Y-63.75
X100.Y-71.25
X100.Y-73.63
X101.Y-46.
X101.Y-94.
X103.Y-46.
X103.Y-94.
X104.5Y-60.75
X104.5Y-62.
X104.5Y-63.75
X104.5Y-70.75
X104.5Y-72.
X104.5Y-73.75
X105.Y-46.
X105.Y-94.
X105.5Y-60.75
X105.5Y-62.
X105.5Y-63.75
X105.5Y-70.75
X105.5Y-72.
X105.5Y-73.75
X107.Y-46.
X107.Y-94.
X108.Y-86.
X109.Y-46.
X109.Y-89.5
X109.Y-94.
X111.Y-46.
X111.Y-94.
X112.Y-60.75
X112.Y-62.
X112.Y-63.75
X112.Y-70.75
X112.Y-72.
X112.Y-73.75
X113.Y-46.
X113.Y-60.75
X113.Y-62.
X113.Y-63.75
X113.Y-70.75
X113.Y-72.
X113.Y-73.75
X113.Y-94.
X115.Y-46.
X115.Y-94.
X117.Y-46.
X117.Y-76.
X117.Y-94.
X118.Y-89.5
X119.Y-46.
X119.Y-94.
X119.5Y-60.75
X119.5Y-62.
X119.5Y-63.75
X119.5Y-70.75
X119.5Y-72.
X119.5Y-73.75
X119.75Y-87.5
X120.5Y-60.75
X120.5Y-62.
X120.5Y-63.75
X120.5Y-70.75
X120.5Y-72.
X120.5Y-73.75
X121.Y-46.
X121.Y-94.
X122.5Y-82.5
X122.5Y-92.
X123.Y-46.
X123.Y-94.001
X124.5Y-82.5
X124.5Y-92.
X125.Y-46.
X125.Y-94.001
X126.5Y-82.5
X126.5Y-92.
X127.Y-46.
X127.Y-60.75
X127.Y-62.
X127.Y-63.75
X127.Y-70.75
X127.Y-72.
X127.Y-73.75
X127.Y-94.001
X128.Y-60.75
X128.Y-62.
X128.Y-63.75
X128.Y-70.75
X128.Y-72.
X128.Y-73.75
X129.Y-46.
X129.Y-94.
X131.Y-46.
X131.Y-94.
X133.Y-46.
X133.Y-94.
X134.5Y-60.75
X134.5Y-62.
X134.5Y-63.75
X134.5Y-70.75
X134.5Y-72.
X134.5Y-73.75
X135.Y-46.
X135.Y-94.
X135.5Y-60.75
X135.5Y-62.
X135.5Y-63.75
X135.5Y-70.75
X135.5Y-72.
X135.5Y-73.75
X135.5Y-79.75
X137.Y-46.
X137.Y-94.
X139.Y-46.
X139.Y-94.
X141.Y-46.
X141.Y-94.
X143.Y-46.
X143.Y-94.
X143.25Y-64.75
X145.Y-46.
X145.Y-94.
X147.Y-46.
X147.Y-94.
X148.Y-47.
X148.Y-93.
X149.Y-48.
X149.Y-50.
X149.Y-52.
X149.Y-54.
X149.Y-56.
X149.Y-58.
X149.Y-60.
X149.Y-62.
X149.Y-67.5
X149.Y-73.
X149.Y-75.
X149.Y-77.
X149.Y-79.
X149.Y-81.
X149.Y-83.
X149.Y-85.
X149.Y-87.
X149.Y-89.
X149.Y-92.
T3
X58.Y-91.
X60.54Y-91.
X97.5Y-48.
X100.Y-48.
X102.5Y-48.
T4
X95.Y-51.3
X105.Y-51.3
T5
X100.Y-67.5
X54.Y-76.
X146.Y-59.
X146.Y-76.
X54.Y-59.
X100.Y-88.
T3
X137.8Y-88.G85X137.8Y-86.
G05
X141.5Y-84.G85X143.5Y-84.
G05
X141.5Y-90.G85X143.5Y-90.
G05
T0
M30
