G04 #@! TF.GenerationSoftware,KiCad,Pcbnew,(5.0.0-rc2-117-g8a2639325)*
G04 #@! TF.CreationDate,2018-07-20T00:32:21+10:00*
G04 #@! TF.ProjectId,AR0004-R1,4152303030342D52312E6B696361645F,rev?*
G04 #@! TF.SameCoordinates,Original*
G04 #@! TF.FileFunction,Soldermask,Bot*
G04 #@! TF.FilePolarity,Negative*
%FSLAX46Y46*%
G04 Gerber Fmt 4.6, Leading zero omitted, Abs format (unit mm)*
G04 Created by KiCad (PCBNEW (5.0.0-rc2-117-g8a2639325)) date 07/20/18 00:32:21*
%MOMM*%
%LPD*%
G01*
G04 APERTURE LIST*
%ADD10R,1.154000X0.754000*%
%ADD11R,3.754000X3.754000*%
%ADD12O,1.954000X1.954000*%
%ADD13R,1.954000X1.954000*%
%ADD14R,5.654040X3.154680*%
%ADD15R,0.754000X1.154000*%
%ADD16C,4.854000*%
%ADD17C,2.054000*%
%ADD18R,6.654000X6.054000*%
%ADD19R,2.454000X1.454000*%
%ADD20C,5.754000*%
%ADD21R,1.754000X2.254000*%
%ADD22R,4.054000X2.254000*%
%ADD23R,1.054000X1.054000*%
%ADD24R,1.804000X0.854000*%
%ADD25R,1.454000X1.854000*%
G04 APERTURE END LIST*
D10*
G04 #@! TO.C,C1*
X62000000Y-52750000D03*
X62000000Y-51250000D03*
G04 #@! TD*
G04 #@! TO.C,C2*
X72000000Y-51250000D03*
X72000000Y-52750000D03*
G04 #@! TD*
G04 #@! TO.C,C3*
X64500000Y-82750000D03*
X64500000Y-84250000D03*
G04 #@! TD*
G04 #@! TO.C,C4*
X64500000Y-87250000D03*
X64500000Y-85750000D03*
G04 #@! TD*
D11*
G04 #@! TO.C,J3*
X137800000Y-87000000D03*
X142500000Y-90000000D03*
X142500000Y-84000000D03*
G04 #@! TD*
D12*
G04 #@! TO.C,J6*
X60540000Y-91000000D03*
D13*
X58000000Y-91000000D03*
G04 #@! TD*
D14*
G04 #@! TO.C,L1*
X124500000Y-82049540D03*
X124500000Y-91950460D03*
G04 #@! TD*
D15*
G04 #@! TO.C,R1*
X90250000Y-48000000D03*
X91750000Y-48000000D03*
G04 #@! TD*
D16*
G04 #@! TO.C,RV1*
X95000000Y-51300000D03*
X105000000Y-51300000D03*
D17*
X97500000Y-48000000D03*
X100000000Y-48000000D03*
X102500000Y-48000000D03*
G04 #@! TD*
D18*
G04 #@! TO.C,U2*
X55400000Y-85000000D03*
D19*
X61700000Y-87280000D03*
X61700000Y-82720000D03*
G04 #@! TD*
D20*
G04 #@! TO.C,MK1*
X54000000Y-59000000D03*
G04 #@! TD*
G04 #@! TO.C,MK2*
X100000000Y-67500000D03*
G04 #@! TD*
G04 #@! TO.C,MK3*
X146000000Y-59000000D03*
G04 #@! TD*
G04 #@! TO.C,MK4*
X54000000Y-76000000D03*
G04 #@! TD*
G04 #@! TO.C,MK5*
X100000000Y-88000000D03*
G04 #@! TD*
G04 #@! TO.C,MK6*
X146000000Y-76000000D03*
G04 #@! TD*
D21*
G04 #@! TO.C,U1*
X69300000Y-53150000D03*
X64700000Y-53150000D03*
X67000000Y-53150000D03*
D22*
X67000000Y-46850000D03*
G04 #@! TD*
D23*
G04 #@! TO.C,D22*
X85800000Y-49500000D03*
X84200000Y-49500000D03*
G04 #@! TD*
D24*
G04 #@! TO.C,U3*
X110800000Y-92405000D03*
X110800000Y-91135000D03*
X110800000Y-89865000D03*
X110800000Y-88595000D03*
X116200000Y-88595000D03*
X116200000Y-89865000D03*
X116200000Y-91135000D03*
X116200000Y-92405000D03*
D25*
X114100000Y-89700000D03*
X114100000Y-91300000D03*
X112900000Y-89700000D03*
X112900000Y-91300000D03*
G04 #@! TD*
D15*
G04 #@! TO.C,R5*
X82750000Y-49500000D03*
X81250000Y-49500000D03*
G04 #@! TD*
M02*
