G04 #@! TF.GenerationSoftware,KiCad,Pcbnew,(5.0.0-rc2-117-g8a2639325)*
G04 #@! TF.CreationDate,2018-07-20T00:32:21+10:00*
G04 #@! TF.ProjectId,AR0004-R1,4152303030342D52312E6B696361645F,rev?*
G04 #@! TF.SameCoordinates,Original*
G04 #@! TF.FileFunction,Legend,Bot*
G04 #@! TF.FilePolarity,Positive*
%FSLAX46Y46*%
G04 Gerber Fmt 4.6, Leading zero omitted, Abs format (unit mm)*
G04 Created by KiCad (PCBNEW (5.0.0-rc2-117-g8a2639325)) date 07/20/18 00:32:21*
%MOMM*%
%LPD*%
G01*
G04 APERTURE LIST*
%ADD10C,0.300000*%
%ADD11C,0.150000*%
%ADD12C,0.200000*%
%ADD13C,0.120000*%
G04 APERTURE END LIST*
D10*
X109623571Y-53964285D02*
X109623571Y-52821428D01*
X109695000Y-52821428D02*
X109695000Y-53964285D01*
X109766428Y-53964285D02*
X109766428Y-52821428D01*
X109837857Y-52821428D02*
X109837857Y-53964285D01*
X109909285Y-53964285D02*
X109909285Y-52821428D01*
X109980714Y-52821428D02*
X109980714Y-53964285D01*
X110052142Y-53964285D02*
X110052142Y-52821428D01*
X110123571Y-52821428D02*
X110123571Y-53964285D01*
X110195000Y-53964285D02*
X110195000Y-52821428D01*
X110266428Y-52821428D02*
X110266428Y-53964285D01*
X110337857Y-53964285D02*
X110337857Y-52821428D01*
X110409285Y-52821428D02*
X110409285Y-53964285D01*
X110480714Y-53964285D02*
X110480714Y-52821428D01*
X110552142Y-52821428D02*
X110552142Y-53964285D01*
X110623571Y-53964285D02*
X110623571Y-52821428D01*
X109552142Y-53964285D02*
X110695000Y-53964285D01*
X110695000Y-52821428D01*
X109552142Y-52821428D01*
X109552142Y-53964285D01*
X111409285Y-52821428D02*
X111409285Y-54321428D01*
X111766428Y-54321428D01*
X111980714Y-54250000D01*
X112123571Y-54107142D01*
X112195000Y-53964285D01*
X112266428Y-53678571D01*
X112266428Y-53464285D01*
X112195000Y-53178571D01*
X112123571Y-53035714D01*
X111980714Y-52892857D01*
X111766428Y-52821428D01*
X111409285Y-52821428D01*
X113623571Y-54321428D02*
X112909285Y-54321428D01*
X112837857Y-53607142D01*
X112909285Y-53678571D01*
X113052142Y-53750000D01*
X113409285Y-53750000D01*
X113552142Y-53678571D01*
X113623571Y-53607142D01*
X113695000Y-53464285D01*
X113695000Y-53107142D01*
X113623571Y-52964285D01*
X113552142Y-52892857D01*
X113409285Y-52821428D01*
X113052142Y-52821428D01*
X112909285Y-52892857D01*
X112837857Y-52964285D01*
X114623571Y-54321428D02*
X114766428Y-54321428D01*
X114909285Y-54250000D01*
X114980714Y-54178571D01*
X115052142Y-54035714D01*
X115123571Y-53750000D01*
X115123571Y-53392857D01*
X115052142Y-53107142D01*
X114980714Y-52964285D01*
X114909285Y-52892857D01*
X114766428Y-52821428D01*
X114623571Y-52821428D01*
X114480714Y-52892857D01*
X114409285Y-52964285D01*
X114337857Y-53107142D01*
X114266428Y-53392857D01*
X114266428Y-53750000D01*
X114337857Y-54035714D01*
X114409285Y-54178571D01*
X114480714Y-54250000D01*
X114623571Y-54321428D01*
X118123571Y-53964285D02*
X118123571Y-52821428D01*
X118195000Y-52821428D02*
X118195000Y-53964285D01*
X118266428Y-53964285D02*
X118266428Y-52821428D01*
X118337857Y-52821428D02*
X118337857Y-53964285D01*
X118409285Y-53964285D02*
X118409285Y-52821428D01*
X118480714Y-52821428D02*
X118480714Y-53964285D01*
X118552142Y-53964285D02*
X118552142Y-52821428D01*
X118623571Y-52821428D02*
X118623571Y-53964285D01*
X118695000Y-53964285D02*
X118695000Y-52821428D01*
X118766428Y-52821428D02*
X118766428Y-53964285D01*
X118837857Y-53964285D02*
X118837857Y-52821428D01*
X118909285Y-52821428D02*
X118909285Y-53964285D01*
X118980714Y-53964285D02*
X118980714Y-52821428D01*
X119052142Y-52821428D02*
X119052142Y-53964285D01*
X119123571Y-53964285D02*
X119123571Y-52821428D01*
X118052142Y-53964285D02*
X119195000Y-53964285D01*
X119195000Y-52821428D01*
X118052142Y-52821428D01*
X118052142Y-53964285D01*
X119909285Y-52821428D02*
X119909285Y-54321428D01*
X120266428Y-54321428D01*
X120480714Y-54250000D01*
X120623571Y-54107142D01*
X120695000Y-53964285D01*
X120766428Y-53678571D01*
X120766428Y-53464285D01*
X120695000Y-53178571D01*
X120623571Y-53035714D01*
X120480714Y-52892857D01*
X120266428Y-52821428D01*
X119909285Y-52821428D01*
X122052142Y-54321428D02*
X121766428Y-54321428D01*
X121623571Y-54250000D01*
X121552142Y-54178571D01*
X121409285Y-53964285D01*
X121337857Y-53678571D01*
X121337857Y-53107142D01*
X121409285Y-52964285D01*
X121480714Y-52892857D01*
X121623571Y-52821428D01*
X121909285Y-52821428D01*
X122052142Y-52892857D01*
X122123571Y-52964285D01*
X122195000Y-53107142D01*
X122195000Y-53464285D01*
X122123571Y-53607142D01*
X122052142Y-53678571D01*
X121909285Y-53750000D01*
X121623571Y-53750000D01*
X121480714Y-53678571D01*
X121409285Y-53607142D01*
X121337857Y-53464285D01*
X123552142Y-54321428D02*
X122837857Y-54321428D01*
X122766428Y-53607142D01*
X122837857Y-53678571D01*
X122980714Y-53750000D01*
X123337857Y-53750000D01*
X123480714Y-53678571D01*
X123552142Y-53607142D01*
X123623571Y-53464285D01*
X123623571Y-53107142D01*
X123552142Y-52964285D01*
X123480714Y-52892857D01*
X123337857Y-52821428D01*
X122980714Y-52821428D01*
X122837857Y-52892857D01*
X122766428Y-52964285D01*
D11*
X135452380Y-83500000D02*
X134452380Y-83500000D01*
X134452380Y-83738095D01*
X134500000Y-83880952D01*
X134595238Y-83976190D01*
X134690476Y-84023809D01*
X134880952Y-84071428D01*
X135023809Y-84071428D01*
X135214285Y-84023809D01*
X135309523Y-83976190D01*
X135404761Y-83880952D01*
X135452380Y-83738095D01*
X135452380Y-83500000D01*
X135357142Y-85071428D02*
X135404761Y-85023809D01*
X135452380Y-84880952D01*
X135452380Y-84785714D01*
X135404761Y-84642857D01*
X135309523Y-84547619D01*
X135214285Y-84500000D01*
X135023809Y-84452380D01*
X134880952Y-84452380D01*
X134690476Y-84500000D01*
X134595238Y-84547619D01*
X134500000Y-84642857D01*
X134452380Y-84785714D01*
X134452380Y-84880952D01*
X134500000Y-85023809D01*
X134547619Y-85071428D01*
X134452380Y-86738095D02*
X134452380Y-86261904D01*
X134928571Y-86214285D01*
X134880952Y-86261904D01*
X134833333Y-86357142D01*
X134833333Y-86595238D01*
X134880952Y-86690476D01*
X134928571Y-86738095D01*
X135023809Y-86785714D01*
X135261904Y-86785714D01*
X135357142Y-86738095D01*
X135404761Y-86690476D01*
X135452380Y-86595238D01*
X135452380Y-86357142D01*
X135404761Y-86261904D01*
X135357142Y-86214285D01*
X134785714Y-87833333D02*
X134785714Y-88214285D01*
X134452380Y-87976190D02*
X135309523Y-87976190D01*
X135404761Y-88023809D01*
X135452380Y-88119047D01*
X135452380Y-88214285D01*
X135452380Y-88690476D02*
X135404761Y-88595238D01*
X135357142Y-88547619D01*
X135261904Y-88500000D01*
X134976190Y-88500000D01*
X134880952Y-88547619D01*
X134833333Y-88595238D01*
X134785714Y-88690476D01*
X134785714Y-88833333D01*
X134833333Y-88928571D01*
X134880952Y-88976190D01*
X134976190Y-89023809D01*
X135261904Y-89023809D01*
X135357142Y-88976190D01*
X135404761Y-88928571D01*
X135452380Y-88833333D01*
X135452380Y-88690476D01*
X134547619Y-90166666D02*
X134500000Y-90214285D01*
X134452380Y-90309523D01*
X134452380Y-90547619D01*
X134500000Y-90642857D01*
X134547619Y-90690476D01*
X134642857Y-90738095D01*
X134738095Y-90738095D01*
X134880952Y-90690476D01*
X135452380Y-90119047D01*
X135452380Y-90738095D01*
X134785714Y-91595238D02*
X135452380Y-91595238D01*
X134404761Y-91357142D02*
X135119047Y-91119047D01*
X135119047Y-91738095D01*
X134452380Y-91976190D02*
X135452380Y-92309523D01*
X134452380Y-92642857D01*
D10*
X101714285Y-83678571D02*
X102571428Y-83678571D01*
X102142857Y-83678571D02*
X102142857Y-82178571D01*
X102285714Y-82392857D01*
X102428571Y-82535714D01*
X102571428Y-82607142D01*
X100857142Y-82821428D02*
X101000000Y-82750000D01*
X101071428Y-82678571D01*
X101142857Y-82535714D01*
X101142857Y-82464285D01*
X101071428Y-82321428D01*
X101000000Y-82250000D01*
X100857142Y-82178571D01*
X100571428Y-82178571D01*
X100428571Y-82250000D01*
X100357142Y-82321428D01*
X100285714Y-82464285D01*
X100285714Y-82535714D01*
X100357142Y-82678571D01*
X100428571Y-82750000D01*
X100571428Y-82821428D01*
X100857142Y-82821428D01*
X101000000Y-82892857D01*
X101071428Y-82964285D01*
X101142857Y-83107142D01*
X101142857Y-83392857D01*
X101071428Y-83535714D01*
X101000000Y-83607142D01*
X100857142Y-83678571D01*
X100571428Y-83678571D01*
X100428571Y-83607142D01*
X100357142Y-83535714D01*
X100285714Y-83392857D01*
X100285714Y-83107142D01*
X100357142Y-82964285D01*
X100428571Y-82892857D01*
X100571428Y-82821428D01*
X99714285Y-82321428D02*
X99642857Y-82250000D01*
X99500000Y-82178571D01*
X99142857Y-82178571D01*
X99000000Y-82250000D01*
X98928571Y-82321428D01*
X98857142Y-82464285D01*
X98857142Y-82607142D01*
X98928571Y-82821428D01*
X99785714Y-83678571D01*
X98857142Y-83678571D01*
X97571428Y-82178571D02*
X97857142Y-82178571D01*
X98000000Y-82250000D01*
X98071428Y-82321428D01*
X98214285Y-82535714D01*
X98285714Y-82821428D01*
X98285714Y-83392857D01*
X98214285Y-83535714D01*
X98142857Y-83607142D01*
X98000000Y-83678571D01*
X97714285Y-83678571D01*
X97571428Y-83607142D01*
X97500000Y-83535714D01*
X97428571Y-83392857D01*
X97428571Y-83035714D01*
X97500000Y-82892857D01*
X97571428Y-82821428D01*
X97714285Y-82750000D01*
X98000000Y-82750000D01*
X98142857Y-82821428D01*
X98214285Y-82892857D01*
X98285714Y-83035714D01*
X110718809Y-47095238D02*
X109575952Y-47095238D01*
X110147380Y-47095238D02*
X110147380Y-49095238D01*
X109956904Y-48809523D01*
X109766428Y-48619047D01*
X109575952Y-48523809D01*
X111956904Y-49095238D02*
X112147380Y-49095238D01*
X112337857Y-49000000D01*
X112433095Y-48904761D01*
X112528333Y-48714285D01*
X112623571Y-48333333D01*
X112623571Y-47857142D01*
X112528333Y-47476190D01*
X112433095Y-47285714D01*
X112337857Y-47190476D01*
X112147380Y-47095238D01*
X111956904Y-47095238D01*
X111766428Y-47190476D01*
X111671190Y-47285714D01*
X111575952Y-47476190D01*
X111480714Y-47857142D01*
X111480714Y-48333333D01*
X111575952Y-48714285D01*
X111671190Y-48904761D01*
X111766428Y-49000000D01*
X111956904Y-49095238D01*
X113290238Y-49095238D02*
X113766428Y-47095238D01*
X114147380Y-48523809D01*
X114528333Y-47095238D01*
X115004523Y-49095238D01*
X117195000Y-47190476D02*
X117480714Y-47095238D01*
X117956904Y-47095238D01*
X118147380Y-47190476D01*
X118242619Y-47285714D01*
X118337857Y-47476190D01*
X118337857Y-47666666D01*
X118242619Y-47857142D01*
X118147380Y-47952380D01*
X117956904Y-48047619D01*
X117575952Y-48142857D01*
X117385476Y-48238095D01*
X117290238Y-48333333D01*
X117195000Y-48523809D01*
X117195000Y-48714285D01*
X117290238Y-48904761D01*
X117385476Y-49000000D01*
X117575952Y-49095238D01*
X118052142Y-49095238D01*
X118337857Y-49000000D01*
X118909285Y-48428571D02*
X119671190Y-48428571D01*
X119195000Y-49095238D02*
X119195000Y-47380952D01*
X119290238Y-47190476D01*
X119480714Y-47095238D01*
X119671190Y-47095238D01*
X121194999Y-47095238D02*
X121194999Y-48142857D01*
X121099761Y-48333333D01*
X120909285Y-48428571D01*
X120528333Y-48428571D01*
X120337857Y-48333333D01*
X121194999Y-47190476D02*
X121004523Y-47095238D01*
X120528333Y-47095238D01*
X120337857Y-47190476D01*
X120242619Y-47380952D01*
X120242619Y-47571428D01*
X120337857Y-47761904D01*
X120528333Y-47857142D01*
X121004523Y-47857142D01*
X121194999Y-47952380D01*
X122147380Y-48428571D02*
X122147380Y-47095238D01*
X122147380Y-48238095D02*
X122242619Y-48333333D01*
X122433095Y-48428571D01*
X122718809Y-48428571D01*
X122909285Y-48333333D01*
X123004523Y-48142857D01*
X123004523Y-47095238D01*
X124814047Y-47095238D02*
X124814047Y-49095238D01*
X124814047Y-47190476D02*
X124623571Y-47095238D01*
X124242619Y-47095238D01*
X124052142Y-47190476D01*
X123956904Y-47285714D01*
X123861666Y-47476190D01*
X123861666Y-48047619D01*
X123956904Y-48238095D01*
X124052142Y-48333333D01*
X124242619Y-48428571D01*
X124623571Y-48428571D01*
X124814047Y-48333333D01*
X126623571Y-47095238D02*
X126623571Y-48142857D01*
X126528333Y-48333333D01*
X126337857Y-48428571D01*
X125956904Y-48428571D01*
X125766428Y-48333333D01*
X126623571Y-47190476D02*
X126433095Y-47095238D01*
X125956904Y-47095238D01*
X125766428Y-47190476D01*
X125671190Y-47380952D01*
X125671190Y-47571428D01*
X125766428Y-47761904D01*
X125956904Y-47857142D01*
X126433095Y-47857142D01*
X126623571Y-47952380D01*
X127575952Y-47095238D02*
X127575952Y-48428571D01*
X127575952Y-48047619D02*
X127671190Y-48238095D01*
X127766428Y-48333333D01*
X127956904Y-48428571D01*
X128147380Y-48428571D01*
X129671190Y-47095238D02*
X129671190Y-49095238D01*
X129671190Y-47190476D02*
X129480714Y-47095238D01*
X129099761Y-47095238D01*
X128909285Y-47190476D01*
X128814047Y-47285714D01*
X128718809Y-47476190D01*
X128718809Y-48047619D01*
X128814047Y-48238095D01*
X128909285Y-48333333D01*
X129099761Y-48428571D01*
X129480714Y-48428571D01*
X129671190Y-48333333D01*
X132147380Y-47095238D02*
X132147380Y-49095238D01*
X133385476Y-47095238D02*
X133194999Y-47190476D01*
X133099761Y-47380952D01*
X133099761Y-49095238D01*
X134433095Y-47095238D02*
X134242619Y-47190476D01*
X134147380Y-47380952D01*
X134147380Y-49095238D01*
X136052142Y-48428571D02*
X136052142Y-47095238D01*
X135195000Y-48428571D02*
X135195000Y-47380952D01*
X135290238Y-47190476D01*
X135480714Y-47095238D01*
X135766428Y-47095238D01*
X135956904Y-47190476D01*
X136052142Y-47285714D01*
X137004523Y-47095238D02*
X137004523Y-48428571D01*
X137004523Y-48238095D02*
X137099761Y-48333333D01*
X137290238Y-48428571D01*
X137575952Y-48428571D01*
X137766428Y-48333333D01*
X137861666Y-48142857D01*
X137861666Y-47095238D01*
X137861666Y-48142857D02*
X137956904Y-48333333D01*
X138147380Y-48428571D01*
X138433095Y-48428571D01*
X138623571Y-48333333D01*
X138718809Y-48142857D01*
X138718809Y-47095238D01*
X139671190Y-47095238D02*
X139671190Y-48428571D01*
X139671190Y-49095238D02*
X139575952Y-49000000D01*
X139671190Y-48904761D01*
X139766428Y-49000000D01*
X139671190Y-49095238D01*
X139671190Y-48904761D01*
X140623571Y-48428571D02*
X140623571Y-47095238D01*
X140623571Y-48238095D02*
X140718809Y-48333333D01*
X140909285Y-48428571D01*
X141195000Y-48428571D01*
X141385476Y-48333333D01*
X141480714Y-48142857D01*
X141480714Y-47095238D01*
X143290238Y-47095238D02*
X143290238Y-48142857D01*
X143195000Y-48333333D01*
X143004523Y-48428571D01*
X142623571Y-48428571D01*
X142433095Y-48333333D01*
X143290238Y-47190476D02*
X143099761Y-47095238D01*
X142623571Y-47095238D01*
X142433095Y-47190476D01*
X142337857Y-47380952D01*
X142337857Y-47571428D01*
X142433095Y-47761904D01*
X142623571Y-47857142D01*
X143099761Y-47857142D01*
X143290238Y-47952380D01*
X144242619Y-48428571D02*
X144242619Y-47095238D01*
X144242619Y-48238095D02*
X144337857Y-48333333D01*
X144528333Y-48428571D01*
X144814047Y-48428571D01*
X145004523Y-48333333D01*
X145099761Y-48142857D01*
X145099761Y-47095238D01*
X145766428Y-48428571D02*
X146528333Y-48428571D01*
X146052142Y-49095238D02*
X146052142Y-47380952D01*
X146147380Y-47190476D01*
X146337857Y-47095238D01*
X146528333Y-47095238D01*
X109480714Y-50750000D02*
X110195000Y-50750000D01*
X109337857Y-50321428D02*
X109837857Y-51821428D01*
X110337857Y-50321428D01*
X111695000Y-50321428D02*
X111195000Y-51035714D01*
X110837857Y-50321428D02*
X110837857Y-51821428D01*
X111409285Y-51821428D01*
X111552142Y-51750000D01*
X111623571Y-51678571D01*
X111695000Y-51535714D01*
X111695000Y-51321428D01*
X111623571Y-51178571D01*
X111552142Y-51107142D01*
X111409285Y-51035714D01*
X110837857Y-51035714D01*
X112123571Y-51821428D02*
X112623571Y-50321428D01*
X113123571Y-51821428D01*
X113552142Y-50750000D02*
X114266428Y-50750000D01*
X113409285Y-50321428D02*
X113909285Y-51821428D01*
X114409285Y-50321428D01*
X115766428Y-50321428D02*
X115266428Y-51035714D01*
X114909285Y-50321428D02*
X114909285Y-51821428D01*
X115480714Y-51821428D01*
X115623571Y-51750000D01*
X115695000Y-51678571D01*
X115766428Y-51535714D01*
X115766428Y-51321428D01*
X115695000Y-51178571D01*
X115623571Y-51107142D01*
X115480714Y-51035714D01*
X114909285Y-51035714D01*
X117337857Y-51821428D02*
X118195000Y-51821428D01*
X117766428Y-50321428D02*
X117766428Y-51821428D01*
X119266428Y-50392857D02*
X119123571Y-50321428D01*
X118837857Y-50321428D01*
X118695000Y-50392857D01*
X118623571Y-50535714D01*
X118623571Y-51107142D01*
X118695000Y-51250000D01*
X118837857Y-51321428D01*
X119123571Y-51321428D01*
X119266428Y-51250000D01*
X119337857Y-51107142D01*
X119337857Y-50964285D01*
X118623571Y-50821428D01*
X120623571Y-50392857D02*
X120480714Y-50321428D01*
X120195000Y-50321428D01*
X120052142Y-50392857D01*
X119980714Y-50464285D01*
X119909285Y-50607142D01*
X119909285Y-51035714D01*
X119980714Y-51178571D01*
X120052142Y-51250000D01*
X120195000Y-51321428D01*
X120480714Y-51321428D01*
X120623571Y-51250000D01*
X121266428Y-50321428D02*
X121266428Y-51821428D01*
X121909285Y-50321428D02*
X121909285Y-51107142D01*
X121837857Y-51250000D01*
X121695000Y-51321428D01*
X121480714Y-51321428D01*
X121337857Y-51250000D01*
X121266428Y-51178571D01*
X122623571Y-51321428D02*
X122623571Y-50321428D01*
X122623571Y-51178571D02*
X122695000Y-51250000D01*
X122837857Y-51321428D01*
X123052142Y-51321428D01*
X123195000Y-51250000D01*
X123266428Y-51107142D01*
X123266428Y-50321428D01*
X124195000Y-50321428D02*
X124052142Y-50392857D01*
X123980714Y-50464285D01*
X123909285Y-50607142D01*
X123909285Y-51035714D01*
X123980714Y-51178571D01*
X124052142Y-51250000D01*
X124195000Y-51321428D01*
X124409285Y-51321428D01*
X124552142Y-51250000D01*
X124623571Y-51178571D01*
X124695000Y-51035714D01*
X124695000Y-50607142D01*
X124623571Y-50464285D01*
X124552142Y-50392857D01*
X124409285Y-50321428D01*
X124195000Y-50321428D01*
X125552142Y-50321428D02*
X125409285Y-50392857D01*
X125337857Y-50535714D01*
X125337857Y-51821428D01*
X126337857Y-50321428D02*
X126195000Y-50392857D01*
X126123571Y-50464285D01*
X126052142Y-50607142D01*
X126052142Y-51035714D01*
X126123571Y-51178571D01*
X126195000Y-51250000D01*
X126337857Y-51321428D01*
X126552142Y-51321428D01*
X126695000Y-51250000D01*
X126766428Y-51178571D01*
X126837857Y-51035714D01*
X126837857Y-50607142D01*
X126766428Y-50464285D01*
X126695000Y-50392857D01*
X126552142Y-50321428D01*
X126337857Y-50321428D01*
X128123571Y-51321428D02*
X128123571Y-50107142D01*
X128052142Y-49964285D01*
X127980714Y-49892857D01*
X127837857Y-49821428D01*
X127623571Y-49821428D01*
X127480714Y-49892857D01*
X128123571Y-50392857D02*
X127980714Y-50321428D01*
X127695000Y-50321428D01*
X127552142Y-50392857D01*
X127480714Y-50464285D01*
X127409285Y-50607142D01*
X127409285Y-51035714D01*
X127480714Y-51178571D01*
X127552142Y-51250000D01*
X127695000Y-51321428D01*
X127980714Y-51321428D01*
X128123571Y-51250000D01*
X128837857Y-50321428D02*
X128837857Y-51321428D01*
X128837857Y-51821428D02*
X128766428Y-51750000D01*
X128837857Y-51678571D01*
X128909285Y-51750000D01*
X128837857Y-51821428D01*
X128837857Y-51678571D01*
X130123571Y-50392857D02*
X129980714Y-50321428D01*
X129695000Y-50321428D01*
X129552142Y-50392857D01*
X129480714Y-50535714D01*
X129480714Y-51107142D01*
X129552142Y-51250000D01*
X129695000Y-51321428D01*
X129980714Y-51321428D01*
X130123571Y-51250000D01*
X130195000Y-51107142D01*
X130195000Y-50964285D01*
X129480714Y-50821428D01*
X130766428Y-50392857D02*
X130909285Y-50321428D01*
X131195000Y-50321428D01*
X131337857Y-50392857D01*
X131409285Y-50535714D01*
X131409285Y-50607142D01*
X131337857Y-50750000D01*
X131195000Y-50821428D01*
X130980714Y-50821428D01*
X130837857Y-50892857D01*
X130766428Y-51035714D01*
X130766428Y-51107142D01*
X130837857Y-51250000D01*
X130980714Y-51321428D01*
X131195000Y-51321428D01*
X131337857Y-51250000D01*
X133123571Y-50750000D02*
X133837857Y-50750000D01*
X132980714Y-50321428D02*
X133480714Y-51821428D01*
X133980714Y-50321428D01*
X135337857Y-50321428D02*
X134837857Y-51035714D01*
X134480714Y-50321428D02*
X134480714Y-51821428D01*
X135052142Y-51821428D01*
X135195000Y-51750000D01*
X135266428Y-51678571D01*
X135337857Y-51535714D01*
X135337857Y-51321428D01*
X135266428Y-51178571D01*
X135195000Y-51107142D01*
X135052142Y-51035714D01*
X134480714Y-51035714D01*
X136266428Y-51821428D02*
X136409285Y-51821428D01*
X136552142Y-51750000D01*
X136623571Y-51678571D01*
X136695000Y-51535714D01*
X136766428Y-51250000D01*
X136766428Y-50892857D01*
X136695000Y-50607142D01*
X136623571Y-50464285D01*
X136552142Y-50392857D01*
X136409285Y-50321428D01*
X136266428Y-50321428D01*
X136123571Y-50392857D01*
X136052142Y-50464285D01*
X135980714Y-50607142D01*
X135909285Y-50892857D01*
X135909285Y-51250000D01*
X135980714Y-51535714D01*
X136052142Y-51678571D01*
X136123571Y-51750000D01*
X136266428Y-51821428D01*
X137695000Y-51821428D02*
X137837857Y-51821428D01*
X137980714Y-51750000D01*
X138052142Y-51678571D01*
X138123571Y-51535714D01*
X138195000Y-51250000D01*
X138195000Y-50892857D01*
X138123571Y-50607142D01*
X138052142Y-50464285D01*
X137980714Y-50392857D01*
X137837857Y-50321428D01*
X137695000Y-50321428D01*
X137552142Y-50392857D01*
X137480714Y-50464285D01*
X137409285Y-50607142D01*
X137337857Y-50892857D01*
X137337857Y-51250000D01*
X137409285Y-51535714D01*
X137480714Y-51678571D01*
X137552142Y-51750000D01*
X137695000Y-51821428D01*
X139123571Y-51821428D02*
X139266428Y-51821428D01*
X139409285Y-51750000D01*
X139480714Y-51678571D01*
X139552142Y-51535714D01*
X139623571Y-51250000D01*
X139623571Y-50892857D01*
X139552142Y-50607142D01*
X139480714Y-50464285D01*
X139409285Y-50392857D01*
X139266428Y-50321428D01*
X139123571Y-50321428D01*
X138980714Y-50392857D01*
X138909285Y-50464285D01*
X138837857Y-50607142D01*
X138766428Y-50892857D01*
X138766428Y-51250000D01*
X138837857Y-51535714D01*
X138909285Y-51678571D01*
X138980714Y-51750000D01*
X139123571Y-51821428D01*
X140909285Y-51321428D02*
X140909285Y-50321428D01*
X140552142Y-51892857D02*
X140195000Y-50821428D01*
X141123571Y-50821428D01*
X141695000Y-50892857D02*
X142837857Y-50892857D01*
X144409285Y-50321428D02*
X143909285Y-51035714D01*
X143552142Y-50321428D02*
X143552142Y-51821428D01*
X144123571Y-51821428D01*
X144266428Y-51750000D01*
X144337857Y-51678571D01*
X144409285Y-51535714D01*
X144409285Y-51321428D01*
X144337857Y-51178571D01*
X144266428Y-51107142D01*
X144123571Y-51035714D01*
X143552142Y-51035714D01*
X145837857Y-50321428D02*
X144980714Y-50321428D01*
X145409285Y-50321428D02*
X145409285Y-51821428D01*
X145266428Y-51607142D01*
X145123571Y-51464285D01*
X144980714Y-51392857D01*
X81535714Y-46821428D02*
X81535714Y-48321428D01*
X82107142Y-48321428D01*
X82250000Y-48250000D01*
X82321428Y-48178571D01*
X82392857Y-48035714D01*
X82392857Y-47821428D01*
X82321428Y-47678571D01*
X82250000Y-47607142D01*
X82107142Y-47535714D01*
X81535714Y-47535714D01*
X83321428Y-48321428D02*
X83607142Y-48321428D01*
X83750000Y-48250000D01*
X83892857Y-48107142D01*
X83964285Y-47821428D01*
X83964285Y-47321428D01*
X83892857Y-47035714D01*
X83750000Y-46892857D01*
X83607142Y-46821428D01*
X83321428Y-46821428D01*
X83178571Y-46892857D01*
X83035714Y-47035714D01*
X82964285Y-47321428D01*
X82964285Y-47821428D01*
X83035714Y-48107142D01*
X83178571Y-48250000D01*
X83321428Y-48321428D01*
X84464285Y-48321428D02*
X84821428Y-46821428D01*
X85107142Y-47892857D01*
X85392857Y-46821428D01*
X85750000Y-48321428D01*
X86321428Y-47607142D02*
X86821428Y-47607142D01*
X87035714Y-46821428D02*
X86321428Y-46821428D01*
X86321428Y-48321428D01*
X87035714Y-48321428D01*
X88535714Y-46821428D02*
X88035714Y-47535714D01*
X87678571Y-46821428D02*
X87678571Y-48321428D01*
X88250000Y-48321428D01*
X88392857Y-48250000D01*
X88464285Y-48178571D01*
X88535714Y-48035714D01*
X88535714Y-47821428D01*
X88464285Y-47678571D01*
X88392857Y-47607142D01*
X88250000Y-47535714D01*
X87678571Y-47535714D01*
X55947857Y-91107142D02*
X54805000Y-91107142D01*
X67337857Y-90892857D02*
X67837857Y-90892857D01*
X67837857Y-91678571D02*
X67837857Y-90178571D01*
X67123571Y-90178571D01*
X66623571Y-91250000D02*
X65909285Y-91250000D01*
X66766428Y-91678571D02*
X66266428Y-90178571D01*
X65766428Y-91678571D01*
X65266428Y-91678571D02*
X65266428Y-90178571D01*
X64409285Y-91678571D01*
X64409285Y-90178571D01*
X63695000Y-91107142D02*
X62552142Y-91107142D01*
X63123571Y-91678571D02*
X63123571Y-90535714D01*
D12*
X150000000Y-55000000D02*
X50000000Y-55000000D01*
X150000000Y-80000000D02*
X150000000Y-55000000D01*
X50000000Y-80000000D02*
X150000000Y-80000000D01*
X50000000Y-55000000D02*
X50000000Y-80000000D01*
D13*
G04 #@! TO.C,C1*
X61320000Y-51500000D02*
X61320000Y-52500000D01*
X62680000Y-52500000D02*
X62680000Y-51500000D01*
G04 #@! TO.C,C2*
X72680000Y-52500000D02*
X72680000Y-51500000D01*
X71320000Y-51500000D02*
X71320000Y-52500000D01*
G04 #@! TO.C,C3*
X65180000Y-84000000D02*
X65180000Y-83000000D01*
X63820000Y-83000000D02*
X63820000Y-84000000D01*
G04 #@! TO.C,C4*
X63820000Y-86000000D02*
X63820000Y-87000000D01*
X65180000Y-87000000D02*
X65180000Y-86000000D01*
G04 #@! TO.C,J3*
X147100000Y-83100000D02*
X144500000Y-83100000D01*
X147100000Y-97800000D02*
X147100000Y-83100000D01*
X137900000Y-83100000D02*
X137900000Y-85000000D01*
X140600000Y-83100000D02*
X137900000Y-83100000D01*
X137900000Y-97800000D02*
X147100000Y-97800000D01*
X137900000Y-89000000D02*
X137900000Y-97800000D01*
G04 #@! TO.C,J6*
X56670000Y-89670000D02*
X56670000Y-91000000D01*
X58000000Y-89670000D02*
X56670000Y-89670000D01*
X59270000Y-89670000D02*
X59270000Y-92330000D01*
X59270000Y-92330000D02*
X61870000Y-92330000D01*
X59270000Y-89670000D02*
X61870000Y-89670000D01*
X61870000Y-89670000D02*
X61870000Y-92330000D01*
D11*
G04 #@! TO.C,L1*
X127890974Y-84899420D02*
G75*
G03X127890974Y-84899420I-391234J0D01*
G01*
X127799460Y-91899660D02*
X127901060Y-92001260D01*
X127901060Y-92001260D02*
X128299840Y-92100320D01*
X128299840Y-92100320D02*
X128800220Y-92001260D01*
X128800220Y-92001260D02*
X129099940Y-91800600D01*
X129099940Y-91800600D02*
X129501260Y-91500880D01*
X129501260Y-91500880D02*
X129600320Y-91000500D01*
X129600320Y-91000500D02*
X129501260Y-90500120D01*
X129501260Y-90500120D02*
X129199000Y-90098800D01*
X129199000Y-90098800D02*
X129099940Y-89999740D01*
X129099940Y-89999740D02*
X129501260Y-89400300D01*
X129501260Y-89400300D02*
X129800980Y-88600200D01*
X129800980Y-88600200D02*
X129999100Y-87599440D01*
X129999100Y-87599440D02*
X129999100Y-86400560D01*
X129999100Y-86400560D02*
X129800980Y-85498860D01*
X129800980Y-85498860D02*
X129600320Y-84899420D01*
X129600320Y-84899420D02*
X129399660Y-84399040D01*
X129399660Y-84399040D02*
X129199000Y-84000260D01*
X129199000Y-84000260D02*
X129399660Y-83700540D01*
X129399660Y-83700540D02*
X129600320Y-83101100D01*
X129600320Y-83101100D02*
X129501260Y-82699780D01*
X129501260Y-82699780D02*
X129300600Y-82400060D01*
X129300600Y-82400060D02*
X129099940Y-82100340D01*
X129099940Y-82100340D02*
X128599560Y-81899680D01*
X128599560Y-81899680D02*
X128099180Y-81998740D01*
X128099180Y-81998740D02*
X127700400Y-82199400D01*
X121200540Y-91899660D02*
X120900820Y-92001260D01*
X120900820Y-92001260D02*
X120499500Y-92100320D01*
X120499500Y-92100320D02*
X120199780Y-92001260D01*
X120199780Y-92001260D02*
X119801000Y-91800600D01*
X119801000Y-91800600D02*
X119600340Y-91500880D01*
X119600340Y-91500880D02*
X119399680Y-91201160D01*
X119399680Y-91201160D02*
X119399680Y-90898900D01*
X119399680Y-90898900D02*
X119498740Y-90599180D01*
X119498740Y-90599180D02*
X119600340Y-90299460D01*
X119600340Y-90299460D02*
X119900060Y-89999740D01*
X119900060Y-89999740D02*
X119600340Y-89600960D01*
X119600340Y-89600960D02*
X119399680Y-89199640D01*
X119399680Y-89199640D02*
X119199020Y-88699260D01*
X119199020Y-88699260D02*
X119000900Y-87899160D01*
X119000900Y-87899160D02*
X118899300Y-87000000D01*
X118899300Y-87000000D02*
X119000900Y-86199900D01*
X119000900Y-86199900D02*
X119199020Y-85300740D01*
X119199020Y-85300740D02*
X119600340Y-84399040D01*
X119600340Y-84399040D02*
X119801000Y-84000260D01*
X119801000Y-84000260D02*
X119600340Y-83700540D01*
X119600340Y-83700540D02*
X119399680Y-83299220D01*
X119399680Y-83299220D02*
X119498740Y-82798840D01*
X119498740Y-82798840D02*
X119699400Y-82400060D01*
X119699400Y-82400060D02*
X119999120Y-82100340D01*
X119999120Y-82100340D02*
X120499500Y-81899680D01*
X120499500Y-81899680D02*
X120999880Y-81998740D01*
X120999880Y-81998740D02*
X121299600Y-82199400D01*
X127799460Y-80799860D02*
X130700140Y-80799860D01*
X130700140Y-80799860D02*
X130700140Y-93200140D01*
X130700140Y-93200140D02*
X127799460Y-93200140D01*
X118299860Y-93200140D02*
X118299860Y-80799860D01*
X118299860Y-80799860D02*
X121200540Y-80799860D01*
X118299860Y-93200140D02*
X121200540Y-93200140D01*
D13*
G04 #@! TO.C,R1*
X91500000Y-47320000D02*
X90500000Y-47320000D01*
X90500000Y-48680000D02*
X91500000Y-48680000D01*
G04 #@! TO.C,RV1*
X103060000Y-36340000D02*
X96940000Y-36340000D01*
X103060000Y-43740000D02*
X96940000Y-43740000D01*
X96940000Y-43740000D02*
X96940000Y-36340000D01*
X103060000Y-43740000D02*
X103060000Y-36340000D01*
X103310000Y-43740000D02*
X96690000Y-43740000D01*
X103310000Y-44540000D02*
X96690000Y-44540000D01*
X96690000Y-44540000D02*
X96690000Y-43740000D01*
X103310000Y-44540000D02*
X103310000Y-43740000D01*
X104961000Y-44540000D02*
X95040000Y-44540000D01*
X102505000Y-51460000D02*
X97495000Y-51460000D01*
X95040000Y-48805000D02*
X95040000Y-44540000D01*
X104961000Y-48805000D02*
X104961000Y-44540000D01*
G04 #@! TO.C,U2*
X59970000Y-88180000D02*
X61070000Y-88180000D01*
X59970000Y-88450000D02*
X59970000Y-88180000D01*
X58470000Y-88450000D02*
X59970000Y-88450000D01*
X59970000Y-81820000D02*
X62800000Y-81820000D01*
X59970000Y-81550000D02*
X59970000Y-81820000D01*
X58470000Y-81550000D02*
X59970000Y-81550000D01*
G04 #@! TO.C,U1*
X70410000Y-54100000D02*
X70410000Y-48090000D01*
X63590000Y-51850000D02*
X63590000Y-48090000D01*
X70410000Y-48090000D02*
X69150000Y-48090000D01*
X63590000Y-48090000D02*
X64850000Y-48090000D01*
G04 #@! TO.C,D22*
X86300000Y-49000000D02*
X84200000Y-49000000D01*
X86300000Y-50000000D02*
X84200000Y-50000000D01*
X86300000Y-49000000D02*
X86300000Y-50000000D01*
D11*
G04 #@! TO.C,U3*
X111425000Y-93075000D02*
X111425000Y-93025000D01*
X115575000Y-93075000D02*
X115575000Y-92930000D01*
X115575000Y-87925000D02*
X115575000Y-88070000D01*
X111425000Y-87925000D02*
X111425000Y-88070000D01*
X111425000Y-93075000D02*
X115575000Y-93075000D01*
X111425000Y-87925000D02*
X115575000Y-87925000D01*
X111425000Y-93025000D02*
X110025000Y-93025000D01*
D13*
G04 #@! TO.C,R5*
X81500000Y-50180000D02*
X82500000Y-50180000D01*
X82500000Y-48820000D02*
X81500000Y-48820000D01*
G04 #@! TO.C,C1*
D11*
X60907142Y-51833333D02*
X60954761Y-51785714D01*
X61002380Y-51642857D01*
X61002380Y-51547619D01*
X60954761Y-51404761D01*
X60859523Y-51309523D01*
X60764285Y-51261904D01*
X60573809Y-51214285D01*
X60430952Y-51214285D01*
X60240476Y-51261904D01*
X60145238Y-51309523D01*
X60050000Y-51404761D01*
X60002380Y-51547619D01*
X60002380Y-51642857D01*
X60050000Y-51785714D01*
X60097619Y-51833333D01*
X61002380Y-52785714D02*
X61002380Y-52214285D01*
X61002380Y-52500000D02*
X60002380Y-52500000D01*
X60145238Y-52404761D01*
X60240476Y-52309523D01*
X60288095Y-52214285D01*
G04 #@! TO.C,C2*
X73857142Y-51833333D02*
X73904761Y-51785714D01*
X73952380Y-51642857D01*
X73952380Y-51547619D01*
X73904761Y-51404761D01*
X73809523Y-51309523D01*
X73714285Y-51261904D01*
X73523809Y-51214285D01*
X73380952Y-51214285D01*
X73190476Y-51261904D01*
X73095238Y-51309523D01*
X73000000Y-51404761D01*
X72952380Y-51547619D01*
X72952380Y-51642857D01*
X73000000Y-51785714D01*
X73047619Y-51833333D01*
X73047619Y-52214285D02*
X73000000Y-52261904D01*
X72952380Y-52357142D01*
X72952380Y-52595238D01*
X73000000Y-52690476D01*
X73047619Y-52738095D01*
X73142857Y-52785714D01*
X73238095Y-52785714D01*
X73380952Y-52738095D01*
X73952380Y-52166666D01*
X73952380Y-52785714D01*
G04 #@! TO.C,C3*
X66307142Y-83333333D02*
X66354761Y-83285714D01*
X66402380Y-83142857D01*
X66402380Y-83047619D01*
X66354761Y-82904761D01*
X66259523Y-82809523D01*
X66164285Y-82761904D01*
X65973809Y-82714285D01*
X65830952Y-82714285D01*
X65640476Y-82761904D01*
X65545238Y-82809523D01*
X65450000Y-82904761D01*
X65402380Y-83047619D01*
X65402380Y-83142857D01*
X65450000Y-83285714D01*
X65497619Y-83333333D01*
X65402380Y-83666666D02*
X65402380Y-84285714D01*
X65783333Y-83952380D01*
X65783333Y-84095238D01*
X65830952Y-84190476D01*
X65878571Y-84238095D01*
X65973809Y-84285714D01*
X66211904Y-84285714D01*
X66307142Y-84238095D01*
X66354761Y-84190476D01*
X66402380Y-84095238D01*
X66402380Y-83809523D01*
X66354761Y-83714285D01*
X66307142Y-83666666D01*
G04 #@! TO.C,C4*
X66307142Y-86333333D02*
X66354761Y-86285714D01*
X66402380Y-86142857D01*
X66402380Y-86047619D01*
X66354761Y-85904761D01*
X66259523Y-85809523D01*
X66164285Y-85761904D01*
X65973809Y-85714285D01*
X65830952Y-85714285D01*
X65640476Y-85761904D01*
X65545238Y-85809523D01*
X65450000Y-85904761D01*
X65402380Y-86047619D01*
X65402380Y-86142857D01*
X65450000Y-86285714D01*
X65497619Y-86333333D01*
X65735714Y-87190476D02*
X66402380Y-87190476D01*
X65354761Y-86952380D02*
X66069047Y-86714285D01*
X66069047Y-87333333D01*
G04 #@! TO.C,J3*
X137297619Y-92783333D02*
X136583333Y-92783333D01*
X136440476Y-92830952D01*
X136345238Y-92926190D01*
X136297619Y-93069047D01*
X136297619Y-93164285D01*
X137297619Y-92402380D02*
X137297619Y-91783333D01*
X136916666Y-92116666D01*
X136916666Y-91973809D01*
X136869047Y-91878571D01*
X136821428Y-91830952D01*
X136726190Y-91783333D01*
X136488095Y-91783333D01*
X136392857Y-91830952D01*
X136345238Y-91878571D01*
X136297619Y-91973809D01*
X136297619Y-92259523D01*
X136345238Y-92354761D01*
X136392857Y-92402380D01*
G04 #@! TO.C,J6*
X57833333Y-92452380D02*
X57833333Y-93166666D01*
X57880952Y-93309523D01*
X57976190Y-93404761D01*
X58119047Y-93452380D01*
X58214285Y-93452380D01*
X56928571Y-92452380D02*
X57119047Y-92452380D01*
X57214285Y-92500000D01*
X57261904Y-92547619D01*
X57357142Y-92690476D01*
X57404761Y-92880952D01*
X57404761Y-93261904D01*
X57357142Y-93357142D01*
X57309523Y-93404761D01*
X57214285Y-93452380D01*
X57023809Y-93452380D01*
X56928571Y-93404761D01*
X56880952Y-93357142D01*
X56833333Y-93261904D01*
X56833333Y-93023809D01*
X56880952Y-92928571D01*
X56928571Y-92880952D01*
X57023809Y-92833333D01*
X57214285Y-92833333D01*
X57309523Y-92880952D01*
X57357142Y-92928571D01*
X57404761Y-93023809D01*
G04 #@! TO.C,L1*
X117952380Y-81283793D02*
X117952380Y-80807602D01*
X116952380Y-80807602D01*
X117952380Y-82140936D02*
X117952380Y-81569507D01*
X117952380Y-81855221D02*
X116952380Y-81855221D01*
X117095238Y-81759983D01*
X117190476Y-81664745D01*
X117238095Y-81569507D01*
G04 #@! TO.C,R1*
X91166666Y-49902380D02*
X91500000Y-49426190D01*
X91738095Y-49902380D02*
X91738095Y-48902380D01*
X91357142Y-48902380D01*
X91261904Y-48950000D01*
X91214285Y-48997619D01*
X91166666Y-49092857D01*
X91166666Y-49235714D01*
X91214285Y-49330952D01*
X91261904Y-49378571D01*
X91357142Y-49426190D01*
X91738095Y-49426190D01*
X90214285Y-49902380D02*
X90785714Y-49902380D01*
X90500000Y-49902380D02*
X90500000Y-48902380D01*
X90595238Y-49045238D01*
X90690476Y-49140476D01*
X90785714Y-49188095D01*
G04 #@! TO.C,RV1*
X100595238Y-53452380D02*
X100928571Y-52976190D01*
X101166666Y-53452380D02*
X101166666Y-52452380D01*
X100785714Y-52452380D01*
X100690476Y-52500000D01*
X100642857Y-52547619D01*
X100595238Y-52642857D01*
X100595238Y-52785714D01*
X100642857Y-52880952D01*
X100690476Y-52928571D01*
X100785714Y-52976190D01*
X101166666Y-52976190D01*
X100309523Y-52452380D02*
X99976190Y-53452380D01*
X99642857Y-52452380D01*
X98785714Y-53452380D02*
X99357142Y-53452380D01*
X99071428Y-53452380D02*
X99071428Y-52452380D01*
X99166666Y-52595238D01*
X99261904Y-52690476D01*
X99357142Y-52738095D01*
G04 #@! TO.C,U2*
X60452380Y-84238095D02*
X61261904Y-84238095D01*
X61357142Y-84285714D01*
X61404761Y-84333333D01*
X61452380Y-84428571D01*
X61452380Y-84619047D01*
X61404761Y-84714285D01*
X61357142Y-84761904D01*
X61261904Y-84809523D01*
X60452380Y-84809523D01*
X60547619Y-85238095D02*
X60500000Y-85285714D01*
X60452380Y-85380952D01*
X60452380Y-85619047D01*
X60500000Y-85714285D01*
X60547619Y-85761904D01*
X60642857Y-85809523D01*
X60738095Y-85809523D01*
X60880952Y-85761904D01*
X61452380Y-85190476D01*
X61452380Y-85809523D01*
G04 #@! TO.C,U1*
X71261904Y-46452380D02*
X71261904Y-47261904D01*
X71214285Y-47357142D01*
X71166666Y-47404761D01*
X71071428Y-47452380D01*
X70880952Y-47452380D01*
X70785714Y-47404761D01*
X70738095Y-47357142D01*
X70690476Y-47261904D01*
X70690476Y-46452380D01*
X69690476Y-47452380D02*
X70261904Y-47452380D01*
X69976190Y-47452380D02*
X69976190Y-46452380D01*
X70071428Y-46595238D01*
X70166666Y-46690476D01*
X70261904Y-46738095D01*
G04 #@! TO.C,D22*
X86214285Y-51452380D02*
X86214285Y-50452380D01*
X85976190Y-50452380D01*
X85833333Y-50500000D01*
X85738095Y-50595238D01*
X85690476Y-50690476D01*
X85642857Y-50880952D01*
X85642857Y-51023809D01*
X85690476Y-51214285D01*
X85738095Y-51309523D01*
X85833333Y-51404761D01*
X85976190Y-51452380D01*
X86214285Y-51452380D01*
X85261904Y-50547619D02*
X85214285Y-50500000D01*
X85119047Y-50452380D01*
X84880952Y-50452380D01*
X84785714Y-50500000D01*
X84738095Y-50547619D01*
X84690476Y-50642857D01*
X84690476Y-50738095D01*
X84738095Y-50880952D01*
X85309523Y-51452380D01*
X84690476Y-51452380D01*
X84309523Y-50547619D02*
X84261904Y-50500000D01*
X84166666Y-50452380D01*
X83928571Y-50452380D01*
X83833333Y-50500000D01*
X83785714Y-50547619D01*
X83738095Y-50642857D01*
X83738095Y-50738095D01*
X83785714Y-50880952D01*
X84357142Y-51452380D01*
X83738095Y-51452380D01*
G04 #@! TO.C,U3*
X114261904Y-93452380D02*
X114261904Y-94261904D01*
X114214285Y-94357142D01*
X114166666Y-94404761D01*
X114071428Y-94452380D01*
X113880952Y-94452380D01*
X113785714Y-94404761D01*
X113738095Y-94357142D01*
X113690476Y-94261904D01*
X113690476Y-93452380D01*
X113309523Y-93452380D02*
X112690476Y-93452380D01*
X113023809Y-93833333D01*
X112880952Y-93833333D01*
X112785714Y-93880952D01*
X112738095Y-93928571D01*
X112690476Y-94023809D01*
X112690476Y-94261904D01*
X112738095Y-94357142D01*
X112785714Y-94404761D01*
X112880952Y-94452380D01*
X113166666Y-94452380D01*
X113261904Y-94404761D01*
X113309523Y-94357142D01*
G04 #@! TO.C,R5*
X82166666Y-51402380D02*
X82500000Y-50926190D01*
X82738095Y-51402380D02*
X82738095Y-50402380D01*
X82357142Y-50402380D01*
X82261904Y-50450000D01*
X82214285Y-50497619D01*
X82166666Y-50592857D01*
X82166666Y-50735714D01*
X82214285Y-50830952D01*
X82261904Y-50878571D01*
X82357142Y-50926190D01*
X82738095Y-50926190D01*
X81261904Y-50402380D02*
X81738095Y-50402380D01*
X81785714Y-50878571D01*
X81738095Y-50830952D01*
X81642857Y-50783333D01*
X81404761Y-50783333D01*
X81309523Y-50830952D01*
X81261904Y-50878571D01*
X81214285Y-50973809D01*
X81214285Y-51211904D01*
X81261904Y-51307142D01*
X81309523Y-51354761D01*
X81404761Y-51402380D01*
X81642857Y-51402380D01*
X81738095Y-51354761D01*
X81785714Y-51307142D01*
G04 #@! TD*
M02*
